
<svg width="16px" height="16px" viewBox="0 0 16 16" version="1.1" xmlns="http://www.w3.org/2000/svg" xmlns:xlink="http://www.w3.org/1999/xlink">
    <g id="Product-page" stroke="none" stroke-width="1" fill="none" fill-rule="evenodd">
        <g id="🖥--Product-detail" transform="translate(-898.000000, -883.000000)" fill-rule="nonzero">
            <g id="Share" transform="translate(832.000000, 881.000000)">
                <g id="Social" transform="translate(66.000000, 2.000000)">
                    <g id="48px-logo-facebook">
                        <path d="M15.3333333,16 C15.7015233,16 16,15.7015233 16,15.3333333 L16,0.666666667 C16,0.298476667 15.7015233,0 15.3333333,0 L0.666666667,0 C0.298476667,0 0,0.298476667 0,0.666666667 L0,15.3333333 C0,15.7015233 0.298476667,16 0.666666667,16 L15.3333333,16 Z" id="White_4_" fill="#39579A"></path>
                        <path d="M8.50639,16 L8.50639,9.66666667 L6.33333333,9.66666667 L6.33333333,7.33333333 L8.50639,7.33333333 L8.50639,5.60846 C8.50639,3.54187 9.76859333,2.41657333 11.6121333,2.41657333 C12.4952067,2.41657333 13.2541633,2.48232 13.4753467,2.51170667 L13.4753467,4.67141333 L12.1967533,4.67199333 C11.1941333,4.67199333 11,5.14842333 11,5.84755 L11,7.33333333 L13.3333333,7.33333333 L13,9.66666667 L11,9.66666667 L11,16 L8.50639,16 Z" id="White_2_" fill="#FFFFFF"></path>
                    </g>
                </g>
            </g>
        </g>
    </g>
</svg>
