
<svg width="16px" height="16px" viewBox="0 0 16 16" version="1.1" xmlns="http://www.w3.org/2000/svg" xmlns:xlink="http://www.w3.org/1999/xlink">
    <g id="Product-page" stroke="none" stroke-width="1" fill="none" fill-rule="evenodd">
        <g id="🖥--Product-detail" transform="translate(-978.000000, -883.000000)" fill-rule="nonzero">
            <g id="Share" transform="translate(832.000000, 881.000000)">
                <g id="Social" transform="translate(66.000000, 2.000000)">
                    <g id="48px-logo-pinterest" transform="translate(80.000000, 0.000000)">
                        <path d="M16,8 C16,12.4183033 12.41826,15.9999567 8,15.9999567 C3.58174,15.9999567 0,12.4183033 0,8 C0,3.58174 3.58174,4.33333333e-05 8,4.33333333e-05 C12.41826,4.33333333e-05 16,3.58174 16,8" id="Path" fill="#FFFFFF"></path>
                        <path d="M7.99048333,0.75106 C3.98701667,0.75106 0.741543333,3.99653333 0.741543333,8 C0.741543333,11.0709967 2.65217,13.6940267 5.34875667,14.7502433 C5.28535333,14.1766967 5.22817333,13.2969533 5.37394667,12.6708467 C5.50563,12.1051067 6.22397333,9.06761333 6.22397333,9.06761333 C6.22397333,9.06761333 6.00712,8.63339333 6.00712,7.99138333 C6.00712,6.98343333 6.59134,6.23091667 7.31877,6.23091667 C7.93720667,6.23091667 8.23598,6.69524667 8.23598,7.25203333 C8.23598,7.87398 7.83998,8.80383 7.63559333,9.66560333 C7.46482,10.3871233 7.99743,10.9755067 8.70905333,10.9755067 C9.99746667,10.9755067 10.9878033,9.617 10.9878033,7.65601 C10.9878033,5.9204 9.74065667,4.70687 7.95988,4.70687 C5.89733667,4.70687 4.68667667,6.25391 4.68667667,7.85271667 C4.68667667,8.47573667 4.92668333,9.14384 5.22614,9.507 C5.28533667,9.57875667 5.29405,9.64168333 5.27642667,9.7149 C5.22138,9.94389 5.09909667,10.43625 5.07508667,10.53699 C5.04345333,10.6696967 4.97001667,10.6978167 4.83268,10.6339433 C3.92726667,10.2124967 3.36125667,8.88887667 3.36125667,7.82567 C3.36125667,5.53898333 5.02266667,3.43902333 8.15089667,3.43902333 C10.6655367,3.43902333 12.6197933,5.2309 12.6197933,7.62566333 C12.6197933,10.12393 11.04456,12.1345167 8.85818,12.1345167 C8.12367,12.1345167 7.4331,11.75292 7.19673667,11.3021433 C7.19673667,11.3021433 6.83327667,12.6862 6.74515,13.0253567 C6.58144333,13.65501 6.13968333,14.4442733 5.84417333,14.9257233 C6.52245333,15.1356967 7.24321667,15.2489867 7.99049,15.2489867 C11.994,15.2489867 15.23947,12.0035167 15.23947,8.00000667 C15.2394633,3.99653333 11.9939967,0.75106 7.99048333,0.75106 Z" id="Path" fill="#BD081C"></path>
                    </g>
                </g>
            </g>
        </g>
    </g>
</svg>
