<?xml version="1.0" encoding="UTF-8"?>
<svg width="128px" height="32px" viewBox="0 0 128 32" version="1.1" xmlns="http://www.w3.org/2000/svg" xmlns:xlink="http://www.w3.org/1999/xlink">
    <g id="Symbols" stroke="none" stroke-width="1" fill="none" fill-rule="evenodd">
        <g id="Logo" transform="translate(1.000000, -13.000000)" fill="#1A1A1A">
            <g transform="translate(-1.000000, 13.000000)" id="Group">
                <g>
                    <path d="M17,0.298342541 L22.5072024,0.298342541 C23.5908571,0.298342541 24.4884978,0.451655925 25.2001516,0.758287293 C25.9118054,1.06491866 26.4738418,1.44613032 26.8862775,1.9019337 C27.2987132,2.35773709 27.5898399,2.85082608 27.7596664,3.38121547 C27.9294929,3.91160486 28.0144049,4.40055025 28.0144049,4.8480663 C28.0144049,5.34530635 27.9335363,5.85496977 27.7717968,6.37707182 C27.6100573,6.89917388 27.351278,7.38397566 26.9954511,7.83149171 C26.6396242,8.27900776 26.182717,8.65193221 25.6247157,8.95027624 C25.0667144,9.24862028 24.399549,9.42265169 23.6231994,9.47237569 L23.6231994,9.5718232 L23.8658074,9.6961326 C24.0598948,9.79558061 24.2256753,9.91988876 24.3631539,10.0690608 C24.5006325,10.2182328 24.6785433,10.4585619 24.8968916,10.7900552 C25.1152399,11.1215486 25.4104101,11.589776 25.7824109,12.1947514 C26.1544118,12.7997268 26.6800573,13.6077298 27.3593632,14.6187845 C27.5857985,14.9668526 27.8041435,15.2776229 28.0144049,15.551105 C28.2246662,15.824587 28.4430113,16.0566289 28.6694466,16.2472376 C28.8958818,16.4378463 29.1384875,16.5828724 29.3972707,16.6823204 C29.6560539,16.7817685 29.9552674,16.8314917 30.2949204,16.8314917 C30.3757901,16.8314917 30.4566587,16.8273481 30.5375284,16.8190608 C30.6183982,16.8107734 30.6992667,16.7983426 30.7801365,16.781768 L30.7801365,17.7016575 C30.5537012,17.8342548 30.3272693,17.9171269 30.100834,17.9502762 C29.8743987,17.9834256 29.5832719,18 29.227445,18 C28.7422265,18 28.3257536,17.9337023 27.9780136,17.801105 C27.6302737,17.6685076 27.3189299,17.4903326 27.0439727,17.2665746 C26.7690156,17.0428166 26.5142797,16.7734822 26.2797574,16.4585635 C26.0452351,16.1436448 25.8066729,15.795582 25.5640637,15.4143646 L23.6474602,12.5055249 C23.3563291,12.0414341 23.1056366,11.6519353 22.8953753,11.3370166 C22.6851139,11.0220979 22.458682,10.7651944 22.2160728,10.5662983 C21.9734635,10.3674023 21.7025539,10.2265198 21.4033359,10.1436464 C21.1041178,10.0607731 20.7280791,10.019337 20.2752085,10.019337 L19.2077331,10.019337 L19.2077331,17.7016575 L17,17.7016575 L17,0.298342541 Z M19.2077331,1.39226519 L19.2077331,8.90055249 L21.7065959,8.90055249 C22.3535539,8.90055249 22.9236771,8.78453155 23.4169826,8.55248619 C23.910288,8.32044083 24.326761,8.01795767 24.6664139,7.64502762 C25.0060669,7.27209758 25.2608028,6.85773709 25.4306293,6.4019337 C25.6004557,5.94613032 25.6853677,5.49447738 25.6853677,5.04696133 C25.6853677,4.51657193 25.5923689,4.02762655 25.4063685,3.5801105 C25.220368,3.13259445 24.9494584,2.74723919 24.5936315,2.42403315 C24.2378046,2.10082711 23.8132448,1.84806721 23.3199393,1.66574586 C22.8266339,1.4834245 22.2726844,1.39226519 21.6580743,1.39226519 L19.2077331,1.39226519 Z M32.7210008,9 C32.7210008,8.0552439 32.8948681,7.05249149 33.242608,5.99171271 C33.590348,4.93093392 34.1362106,3.95718675 34.8802123,3.07044199 C35.624214,2.18369722 36.5703759,1.45027914 37.7187263,0.870165746 C38.8670768,0.290052348 40.2418419,0 41.8430629,0 C43.4604579,0 44.863527,0.294195953 46.0523124,0.882596685 C47.2410977,1.47099742 48.2236504,2.21270271 49,3.10773481 C49.7763496,4.00276691 50.3505162,4.97651407 50.7225171,6.02900552 C51.0945179,7.08149698 51.2805155,8.07181856 51.2805155,9 C51.2805155,9.61326273 51.1956036,10.2596651 51.0257771,10.9392265 C50.8559506,11.6187879 50.6052582,12.2941955 50.2736922,12.9654696 C49.9421262,13.6367437 49.5175664,14.2748589 49,14.8798343 C48.4824336,15.4848097 47.8718761,16.0193347 47.1683093,16.4834254 C46.4647425,16.9475161 45.6722308,17.316297 44.7907506,17.589779 C43.9092703,17.863261 42.9267176,18 41.8430629,18 C40.2418419,18 38.8670768,17.705804 37.7187263,17.1174033 C36.5703759,16.5290026 35.624214,15.7872973 34.8802123,14.8922652 C34.1362106,13.9972331 33.590348,13.0234859 33.242608,11.9709945 C32.8948681,10.918503 32.7210008,9.92818144 32.7210008,9 Z M35.0985595,9 C35.0985595,10.1602268 35.2724269,11.2251333 35.6201668,12.1947514 C35.9679067,13.1643695 36.4450311,13.9972341 37.0515542,14.6933702 C37.6580773,15.3895062 38.3737639,15.9323185 39.1986353,16.3218232 C40.0235068,16.7113279 40.9211475,16.9060773 41.8915845,16.9060773 C42.8458476,16.9060773 43.7475318,16.7113279 44.5966641,16.3218232 C45.4457965,15.9323185 46.1897871,15.3895062 46.8286581,14.6933702 C47.4675291,13.9972341 47.9729575,13.1643695 48.3449583,12.1947514 C48.7169592,11.2251333 48.9029568,10.1602268 48.9029568,9 C48.9029568,7.8397732 48.7169592,6.77486673 48.3449583,5.80524862 C47.9729575,4.83563051 47.4675291,4.00276591 46.8286581,3.30662983 C46.1897871,2.61049376 45.4457965,2.06768151 44.5966641,1.6781768 C43.7475318,1.28867209 42.8458476,1.09392265 41.8915845,1.09392265 C40.9211475,1.09392265 40.0235068,1.28867209 39.1986353,1.6781768 C38.3737639,2.06768151 37.6580773,2.61049376 37.0515542,3.30662983 C36.4450311,4.00276591 35.9679067,4.83563051 35.6201668,5.80524862 C35.2724269,6.77486673 35.0985595,7.8397732 35.0985595,9 Z M55.4048522,17.7016575 L55.4048522,0.298342541 L57.6125853,0.298342541 L57.6125853,16.3342541 L66.3707354,16.3342541 L66.3707354,17.7016575 L55.4048522,17.7016575 Z M70.009856,17.7016575 L70.009856,0.298342541 L72.2175891,0.298342541 L72.2175891,16.3342541 L80.9757392,16.3342541 L80.9757392,17.7016575 L70.009856,17.7016575 Z M84.6148597,0.298342541 L95.580743,0.298342541 L95.580743,1.66574586 L86.8225929,1.66574586 L86.8225929,7.90607735 L94.343442,7.90607735 L94.343442,9.04972376 L86.8225929,9.04972376 L86.8225929,16.3342541 L95.580743,16.3342541 L95.580743,17.7016575 L84.6148597,17.7016575 L84.6148597,0.298342541 Z M99.2198635,0.298342541 L104.727066,0.298342541 C105.810721,0.298342541 106.708361,0.451655925 107.420015,0.758287293 C108.131669,1.06491866 108.693705,1.44613032 109.106141,1.9019337 C109.518577,2.35773709 109.809703,2.85082608 109.97953,3.38121547 C110.149356,3.91160486 110.234268,4.40055025 110.234268,4.8480663 C110.234268,5.34530635 110.1534,5.85496977 109.99166,6.37707182 C109.829921,6.89917388 109.571142,7.38397566 109.215315,7.83149171 C108.859488,8.27900776 108.402581,8.65193221 107.844579,8.95027624 C107.286578,9.24862028 106.619413,9.42265169 105.843063,9.47237569 L105.843063,9.5718232 L106.085671,9.6961326 C106.279758,9.79558061 106.445539,9.91988876 106.583017,10.0690608 C106.720496,10.2182328 106.898407,10.4585619 107.116755,10.7900552 C107.335103,11.1215486 107.630274,11.589776 108.002274,12.1947514 C108.374275,12.7997268 108.899921,13.6077298 109.579227,14.6187845 C109.805662,14.9668526 110.024007,15.2776229 110.234268,15.551105 C110.44453,15.824587 110.662875,16.0566289 110.88931,16.2472376 C111.115745,16.4378463 111.358351,16.5828724 111.617134,16.6823204 C111.875917,16.7817685 112.175131,16.8314917 112.514784,16.8314917 C112.595654,16.8314917 112.676522,16.8273481 112.757392,16.8190608 C112.838262,16.8107734 112.91913,16.7983426 113,16.781768 L113,17.7016575 C112.773565,17.8342548 112.547133,17.9171269 112.320697,17.9502762 C112.094262,17.9834256 111.803135,18 111.447309,18 C110.96209,18 110.545617,17.9337023 110.197877,17.801105 C109.850137,17.6685076 109.538793,17.4903326 109.263836,17.2665746 C108.988879,17.0428166 108.734143,16.7734822 108.499621,16.4585635 C108.265099,16.1436448 108.026536,15.795582 107.783927,15.4143646 L105.867324,12.5055249 C105.576193,12.0414341 105.3255,11.6519353 105.115239,11.3370166 C104.904977,11.0220979 104.678546,10.7651944 104.435936,10.5662983 C104.193327,10.3674023 103.922417,10.2265198 103.623199,10.1436464 C103.323981,10.0607731 102.947943,10.019337 102.495072,10.019337 L101.427597,10.019337 L101.427597,17.7016575 L99.2198635,17.7016575 L99.2198635,0.298342541 Z M101.427597,1.39226519 L101.427597,8.90055249 L103.926459,8.90055249 C104.573417,8.90055249 105.143541,8.78453155 105.636846,8.55248619 C106.130152,8.32044083 106.546625,8.01795767 106.886277,7.64502762 C107.22593,7.27209758 107.480666,6.85773709 107.650493,6.4019337 C107.820319,5.94613032 107.905231,5.49447738 107.905231,5.04696133 C107.905231,4.51657193 107.812232,4.02762655 107.626232,3.5801105 C107.440232,3.13259445 107.169322,2.74723919 106.813495,2.42403315 C106.457668,2.10082711 106.033108,1.84806721 105.539803,1.66574586 C105.046497,1.4834245 104.492548,1.39226519 103.877938,1.39226519 L101.427597,1.39226519 Z" id="ROLLER"></path>
                    <path d="M4.5,9.54925534 C4.7970588,8.69555343 5.27059594,7.78042237 6.02544941,7.02544892 C8.02425972,5.02663813 11.1459936,5 11.2779157,5 L11.27855,5 C11.4697736,5 11.6533863,5.07579181 11.7887968,5.21120228 C11.9242072,5.34692988 12.0003161,5.53054267 11.999999,5.7224006 C11.9996819,5.85432275 11.9730438,8.97574028 9.97455059,10.9745511 C7.97574028,12.9733619 4.85400641,13 4.72208429,13 L4.72145005,13 C4.6456278,13 4.57100215,12.9880839 4.50010354,12.9652601 C4.42926511,12.9880839 4.35468932,13 4.27886707,13 L4.27791571,13 C4.14599359,13 1.02425972,12.9733619 -0.974550589,10.9745511 C-2.97304377,8.97574028 -2.99968189,5.85432275 -2.99999901,5.7224006 C-3.00031613,5.53054267 -2.92420722,5.34692988 -2.78879678,5.21120228 C-2.65338634,5.07579181 -2.46977359,5 -2.27854995,5 L-2.27791571,5 C-2.14599359,5 0.975740284,5.02663813 2.97455059,7.02544892 C3.72940406,7.78042237 4.2029412,8.69555343 4.5,9.54925534 Z M-1.4860659,6.51393348 C-1.35604651,7.42311809 -0.98882101,8.92024418 0.045625954,9.95437428 C1.08641533,10.9951639 2.57941849,11.3604868 3.48638302,11.4882864 C3.35668075,10.5794189 2.98977237,9.08070718 1.95437405,8.04562572 C0.920244203,7.0111785 -0.576564403,6.64427003 -1.4860659,6.51393348 Z M10.4860659,6.51393348 C9.57688152,6.64395291 8.0797558,7.0111785 7.04562595,8.04562572 C6.00451946,9.08641535 5.6395138,10.5794189 5.51171425,11.4863836 C6.42026439,11.3566813 7.91897572,10.9897729 8.95437405,9.95437428 C9.98850389,8.92024418 10.3557294,7.42343521 10.4860659,6.51393348 Z" id="Combined-Shape" transform="translate(4.500000, 9.000000) rotate(-90.000000) translate(-4.500000, -9.000000) "></path>
                    <path d="M123.5,9.54925534 C123.797059,8.69555343 124.270596,7.78042237 125.025449,7.02544892 C127.02426,5.02663813 130.145994,5 130.277916,5 L130.27855,5 C130.469774,5 130.653386,5.07579181 130.788797,5.21120228 C130.924207,5.34692988 131.000316,5.53054267 130.999999,5.7224006 C130.999682,5.85432275 130.973044,8.97574028 128.974551,10.9745511 C126.97574,12.9733619 123.854006,13 123.722084,13 L123.72145,13 C123.645628,13 123.571002,12.9880839 123.500104,12.9652601 C123.429265,12.9880839 123.354689,13 123.278867,13 L123.277916,13 C123.145994,13 120.02426,12.9733619 118.025449,10.9745511 C116.026956,8.97574028 116.000318,5.85432275 116.000001,5.7224006 C115.999684,5.53054267 116.075793,5.34692988 116.211203,5.21120228 C116.346614,5.07579181 116.530226,5 116.72145,5 L116.722084,5 C116.854006,5 119.97574,5.02663813 121.974551,7.02544892 C122.729404,7.78042237 123.202941,8.69555343 123.5,9.54925534 Z M117.513934,6.51393348 C117.643953,7.42311809 118.011179,8.92024418 119.045626,9.95437428 C120.086415,10.9951639 121.579418,11.3604868 122.486383,11.4882864 C122.356681,10.5794189 121.989772,9.08070718 120.954374,8.04562572 C119.920244,7.0111785 118.423436,6.64427003 117.513934,6.51393348 Z M129.486066,6.51393348 C128.576882,6.64395291 127.079756,7.0111785 126.045626,8.04562572 C125.004519,9.08641535 124.639514,10.5794189 124.511714,11.4863836 C125.420264,11.3566813 126.918976,10.9897729 127.954374,9.95437428 C128.988504,8.92024418 129.355729,7.42343521 129.486066,6.51393348 Z" id="Combined-Shape-Copy" transform="translate(123.500000, 9.000000) scale(-1, 1) rotate(-90.000000) translate(-123.500000, -9.000000) "></path>
                    <path d="M8.5,27.46 L7.108,27.46 L7.108,26.8 L10.672,26.8 L10.672,27.46 L9.28,27.46 L9.28,31 L8.5,31 L8.5,27.46 Z M17.992,26.8 L17.992,31 L17.212,31 L17.212,29.2 L15.04,29.2 L15.04,31 L14.26,31 L14.26,26.8 L15.04,26.8 L15.04,28.534 L17.212,28.534 L17.212,26.8 L17.992,26.8 Z M25.27,30.346 L25.27,31 L22.12,31 L22.12,26.8 L25.186,26.8 L25.186,27.454 L22.9,27.454 L22.9,28.546 L24.928,28.546 L24.928,29.188 L22.9,29.188 L22.9,30.346 L25.27,30.346 Z M32.998,31 L32.992,28.216 L31.612,30.52 L31.264,30.52 L29.884,28.252 L29.884,31 L29.14,31 L29.14,26.8 L29.782,26.8 L31.45,29.584 L33.088,26.8 L33.73,26.8 L33.736,31 L32.998,31 Z M41.02,30.346 L41.02,31 L37.87,31 L37.87,26.8 L40.936,26.8 L40.936,27.454 L38.65,27.454 L38.65,28.546 L40.678,28.546 L40.678,29.188 L38.65,29.188 L38.65,30.346 L41.02,30.346 Z M52.522,28.816 C52.7540012,28.8920004 52.9379993,29.0189991 53.074,29.197 C53.2100007,29.3750009 53.278,29.5959987 53.278,29.86 C53.278,30.2240018 53.1380014,30.504999 52.858,30.703 C52.5779986,30.901001 52.1700027,31 51.634,31 L49.546,31 L49.546,26.8 L51.514,26.8 C52.0100025,26.8 52.3919987,26.896999 52.66,27.091 C52.9280013,27.285001 53.062,27.5519983 53.062,27.892 C53.062,28.100001 53.0140005,28.2839992 52.918,28.444 C52.8219995,28.6040008 52.6900008,28.7279996 52.522,28.816 Z M50.326,27.412 L50.326,28.57 L51.43,28.57 C51.7020014,28.57 51.9109993,28.5210005 52.057,28.423 C52.2030007,28.3249995 52.276,28.1820009 52.276,27.994 C52.276,27.801999 52.2030007,27.6570005 52.057,27.559 C51.9109993,27.4609995 51.7020014,27.412 51.43,27.412 L50.326,27.412 Z M51.586,30.388 C52.190003,30.388 52.492,30.186002 52.492,29.782 C52.492,29.377998 52.190003,29.176 51.586,29.176 L50.326,29.176 L50.326,30.388 L51.586,30.388 Z M58.834,29.518 L58.834,31 L58.054,31 L58.054,29.53 L56.404,26.8 L57.238,26.8 L58.468,28.846 L59.71,26.8 L60.478,26.8 L58.834,29.518 Z M69.946,31.06 C69.6219984,31.06 69.3090015,31.0140005 69.007,30.922 C68.7049985,30.8299995 68.4660009,30.7080008 68.29,30.556 L68.56,29.95 C68.7320009,30.0860007 68.9429987,30.1969996 69.193,30.283 C69.4430012,30.3690004 69.6939987,30.412 69.946,30.412 C70.2580016,30.412 70.4909992,30.3620005 70.645,30.262 C70.7990008,30.1619995 70.876,30.0300008 70.876,29.866 C70.876,29.7459994 70.8330004,29.6470004 70.747,29.569 C70.6609996,29.4909996 70.5520007,29.4300002 70.42,29.386 C70.2879993,29.3419998 70.1080011,29.2920003 69.88,29.236 C69.5599984,29.1599996 69.301001,29.0840004 69.103,29.008 C68.904999,28.9319996 68.7350007,28.8130008 68.593,28.651 C68.4509993,28.4889992 68.38,28.2700014 68.38,27.994 C68.38,27.7619988 68.4429994,27.5510009 68.569,27.361 C68.6950006,27.170999 68.8849987,27.0200006 69.139,26.908 C69.3930013,26.7959994 69.7039982,26.74 70.072,26.74 C70.3280013,26.74 70.5799988,26.7719997 70.828,26.836 C71.0760012,26.9000003 71.2899991,26.9919994 71.47,27.112 L71.224,27.718 C71.0399991,27.6099995 70.848001,27.5280003 70.648,27.472 C70.447999,27.4159997 70.2540009,27.388 70.066,27.388 C69.7579985,27.388 69.5290007,27.4399995 69.379,27.544 C69.2289992,27.6480005 69.154,27.7859991 69.154,27.958 C69.154,28.0780006 69.1969996,28.1759996 69.283,28.252 C69.3690004,28.3280004 69.4779993,28.3879998 69.61,28.432 C69.7420007,28.4760002 69.9219989,28.5259997 70.15,28.582 C70.4620016,28.6540004 70.717999,28.7289996 70.918,28.807 C71.118001,28.8850004 71.2889993,29.0039992 71.431,29.164 C71.5730007,29.3240008 71.644,29.5399986 71.644,29.812 C71.644,30.0440012 71.5810006,30.2539991 71.455,30.442 C71.3289994,30.6300009 71.1380013,30.7799994 70.882,30.892 C70.6259987,31.0040006 70.3140018,31.06 69.946,31.06 Z M79.15,26.8 L79.15,31 L78.37,31 L78.37,29.2 L76.198,29.2 L76.198,31 L75.418,31 L75.418,26.8 L76.198,26.8 L76.198,28.534 L78.37,28.534 L78.37,26.8 L79.15,26.8 Z M85.24,31.06 C84.8119979,31.06 84.4260017,30.9670009 84.082,30.781 C83.7379983,30.5949991 83.468001,30.3370016 83.272,30.007 C83.075999,29.6769983 82.978,29.308002 82.978,28.9 C82.978,28.491998 83.075999,28.1230016 83.272,27.793 C83.468001,27.4629983 83.7379983,27.2050009 84.082,27.019 C84.4260017,26.8329991 84.8119979,26.74 85.24,26.74 C85.6680021,26.74 86.0539983,26.8329991 86.398,27.019 C86.7420017,27.2050009 87.011999,27.4619984 87.208,27.79 C87.404001,28.1180016 87.502,28.4879979 87.502,28.9 C87.502,29.3120021 87.404001,29.6819984 87.208,30.01 C87.011999,30.3380016 86.7420017,30.5949991 86.398,30.781 C86.0539983,30.9670009 85.6680021,31.06 85.24,31.06 Z M85.24,30.376 C85.5200014,30.376 85.7719989,30.3130006 85.996,30.187 C86.2200011,30.0609994 86.3959994,29.8850011 86.524,29.659 C86.6520006,29.4329989 86.716,29.1800014 86.716,28.9 C86.716,28.6199986 86.6520006,28.3670011 86.524,28.141 C86.3959994,27.9149989 86.2200011,27.7390006 85.996,27.613 C85.7719989,27.4869994 85.5200014,27.424 85.24,27.424 C84.9599986,27.424 84.7080011,27.4869994 84.484,27.613 C84.2599989,27.7390006 84.0840006,27.9149989 83.956,28.141 C83.8279994,28.3670011 83.764,28.6199986 83.764,28.9 C83.764,29.1800014 83.8279994,29.4329989 83.956,29.659 C84.0840006,29.8850011 84.2599989,30.0609994 84.484,30.187 C84.7080011,30.3130006 84.9599986,30.376 85.24,30.376 Z M93.058,26.8 C93.4220018,26.8 93.7389986,26.8599994 94.009,26.98 C94.2790013,27.1000006 94.4859993,27.2719989 94.63,27.496 C94.7740007,27.7200011 94.846,27.9859985 94.846,28.294 C94.846,28.5980015 94.7740007,28.8629989 94.63,29.089 C94.4859993,29.3150011 94.2790013,29.4879994 94.009,29.608 C93.7389986,29.7280006 93.4220018,29.788 93.058,29.788 L92.11,29.788 L92.11,31 L91.33,31 L91.33,26.8 L93.058,26.8 Z M93.022,29.128 C93.3620017,29.128 93.6199991,29.0560007 93.796,28.912 C93.9720009,28.7679993 94.06,28.5620013 94.06,28.294 C94.06,28.0259987 93.9720009,27.8200007 93.796,27.676 C93.6199991,27.5319993 93.3620017,27.46 93.022,27.46 L92.11,27.46 L92.11,29.128 L93.022,29.128 Z M101.602,28.816 C101.834001,28.8920004 102.017999,29.0189991 102.154,29.197 C102.290001,29.3750009 102.358,29.5959987 102.358,29.86 C102.358,30.2240018 102.218001,30.504999 101.938,30.703 C101.657999,30.901001 101.250003,31 100.714,31 L98.626,31 L98.626,26.8 L100.594,26.8 C101.090002,26.8 101.471999,26.896999 101.74,27.091 C102.008001,27.285001 102.142,27.5519983 102.142,27.892 C102.142,28.100001 102.094,28.2839992 101.998,28.444 C101.902,28.6040008 101.770001,28.7279996 101.602,28.816 Z M99.406,27.412 L99.406,28.57 L100.51,28.57 C100.782001,28.57 100.990999,28.5210005 101.137,28.423 C101.283001,28.3249995 101.356,28.1820009 101.356,27.994 C101.356,27.801999 101.283001,27.6570005 101.137,27.559 C100.990999,27.4609995 100.782001,27.412 100.51,27.412 L99.406,27.412 Z M100.666,30.388 C101.270003,30.388 101.572,30.186002 101.572,29.782 C101.572,29.377998 101.270003,29.176 100.666,29.176 L99.406,29.176 L99.406,30.388 L100.666,30.388 Z M108.916,30.028 L106.816,30.028 L106.402,31 L105.598,31 L107.488,26.8 L108.256,26.8 L110.152,31 L109.336,31 L108.916,30.028 Z M108.658,29.416 L107.866,27.58 L107.08,29.416 L108.658,29.416 Z M114.988,31.06 C114.663998,31.06 114.351002,31.0140005 114.049,30.922 C113.746998,30.8299995 113.508001,30.7080008 113.332,30.556 L113.602,29.95 C113.774001,30.0860007 113.984999,30.1969996 114.235,30.283 C114.485001,30.3690004 114.735999,30.412 114.988,30.412 C115.300002,30.412 115.532999,30.3620005 115.687,30.262 C115.841001,30.1619995 115.918,30.0300008 115.918,29.866 C115.918,29.7459994 115.875,29.6470004 115.789,29.569 C115.703,29.4909996 115.594001,29.4300002 115.462,29.386 C115.329999,29.3419998 115.150001,29.2920003 114.922,29.236 C114.601998,29.1599996 114.343001,29.0840004 114.145,29.008 C113.946999,28.9319996 113.777001,28.8130008 113.635,28.651 C113.492999,28.4889992 113.422,28.2700014 113.422,27.994 C113.422,27.7619988 113.484999,27.5510009 113.611,27.361 C113.737001,27.170999 113.926999,27.0200006 114.181,26.908 C114.435001,26.7959994 114.745998,26.74 115.114,26.74 C115.370001,26.74 115.621999,26.7719997 115.87,26.836 C116.118001,26.9000003 116.331999,26.9919994 116.512,27.112 L116.266,27.718 C116.081999,27.6099995 115.890001,27.5280003 115.69,27.472 C115.489999,27.4159997 115.296001,27.388 115.108,27.388 C114.799998,27.388 114.571001,27.4399995 114.421,27.544 C114.270999,27.6480005 114.196,27.7859991 114.196,27.958 C114.196,28.0780006 114.239,28.1759996 114.325,28.252 C114.411,28.3280004 114.519999,28.3879998 114.652,28.432 C114.784001,28.4760002 114.963999,28.5259997 115.192,28.582 C115.504002,28.6540004 115.759999,28.7289996 115.96,28.807 C116.160001,28.8850004 116.330999,29.0039992 116.473,29.164 C116.615001,29.3240008 116.686,29.5399986 116.686,29.812 C116.686,30.0440012 116.623001,30.2539991 116.497,30.442 C116.370999,30.6300009 116.180001,30.7799994 115.924,30.892 C115.667999,31.0040006 115.356002,31.06 114.988,31.06 Z M123.61,30.346 L123.61,31 L120.46,31 L120.46,26.8 L123.526,26.8 L123.526,27.454 L121.24,27.454 L121.24,28.546 L123.268,28.546 L123.268,29.188 L121.24,29.188 L121.24,30.346 L123.61,30.346 Z" id="THEMEBYSHOPBASE" fill-rule="nonzero"></path>
                </g>
            </g>
        </g>
    </g>
</svg>