
<svg width="16px" height="12px" viewBox="0 0 16 12" version="1.1" xmlns="http://www.w3.org/2000/svg" xmlns:xlink="http://www.w3.org/1999/xlink">
    <g id="Product-page" stroke="none" stroke-width="1" fill="none" fill-rule="evenodd">
        <g id="🖥--Product-detail" transform="translate(-1018.000000, -885.000000)">
            <g id="Share" transform="translate(832.000000, 881.000000)">
                <g id="Social" transform="translate(66.000000, 2.000000)">
                    <g id="48px-email-83" transform="translate(120.000000, 0.000000)">
                        <rect id="Rectangle-Copy" x="0" y="0" width="16" height="16"></rect>
                        <path d="M15.3333333,13.6666667 L0.666666667,13.6666667 C0.482573333,13.6666667 0.333333333,13.5174267 0.333333333,13.3333333 L0.333333333,2.66666667 C0.333333333,2.48257333 0.482573333,2.33333333 0.666666667,2.33333333 L15.3333333,2.33333333 C15.5174267,2.33333333 15.6666667,2.48257333 15.6666667,2.66666667 L15.6666667,13.3333333 C15.6666667,13.5174267 15.5174267,13.6666667 15.3333333,13.6666667 Z" id="Path" fill="#B3B3B3" fill-rule="nonzero"></path>
                        <path d="M8,6.33333333 C8.08040333,6.33333333 8.16064333,6.36230333 8.22428333,6.41992333 L15.5576167,13.08659 C15.6595033,13.1793633 15.6938467,13.3251967 15.6442067,13.4534533 C15.5945633,13.58203 15.47103,13.6666667 15.3333333,13.6666667 L0.666666667,13.6666667 C0.52897,13.6666667 0.405436667,13.58203 0.355793333,13.45345 C0.30615,13.3251933 0.340493333,13.17936 0.442383333,13.0865867 L7.77571667,6.41992 C7.83935667,6.36230333 7.91959667,6.33333333 8,6.33333333 Z" id="Path" fill="#D6D6D6" fill-rule="nonzero"></path>
                        <path d="M8,9.66666667 C7.91959667,9.66666667 7.83935667,9.63769667 7.77571667,9.58007667 L0.442383333,2.91341 C0.340493333,2.82063667 0.306153333,2.67480333 0.355793333,2.54655 C0.405436667,2.41797 0.52897,2.33333333 0.666666667,2.33333333 L15.3333333,2.33333333 C15.47103,2.33333333 15.5945633,2.41797 15.6442067,2.54655 C15.69385,2.67480667 15.6595067,2.82064 15.5576167,2.91341333 L8.22428333,9.58008 C8.16064333,9.63769667 8.08040333,9.66666667 8,9.66666667 Z" id="Path" fill="#E6E6E6" fill-rule="nonzero"></path>
                    </g>
                </g>
            </g>
        </g>
    </g>
</svg>
