
<svg width="16px" height="14px" viewBox="0 0 16 14" version="1.1" xmlns="http://www.w3.org/2000/svg" xmlns:xlink="http://www.w3.org/1999/xlink">
    <g id="Product-page" stroke="none" stroke-width="1" fill="none" fill-rule="evenodd">
        <g id="🖥--Product-detail" transform="translate(-938.000000, -884.000000)">
            <g id="Share" transform="translate(832.000000, 881.000000)">
                <g id="Social" transform="translate(66.000000, 2.000000)">
                    <g id="48px-logo-twitter" transform="translate(40.000000, 0.000000)">
                        <rect id="Rectangle" x="0" y="0" width="16" height="16"></rect>
                        <path d="M16,2.87257667 C15.4113233,3.13365 14.7787033,3.31013667 14.1146433,3.38946667 C14.7924167,2.98322333 15.31291,2.33991 15.55798,1.57337333 C14.9237533,1.94955667 14.2212333,2.22274333 13.4735,2.36997333 C12.8747133,1.73197333 12.0215867,1.33333333 11.0774833,1.33333333 C9.26453333,1.33333333 7.79479333,2.80307667 7.79479333,4.61585333 C7.79479333,4.87315667 7.82382667,5.12365333 7.87977667,5.36392667 C5.15164333,5.22704333 2.73287667,3.92019 1.11385,1.93418333 C0.83129,2.41901333 0.669433333,2.98288 0.669433333,3.58447 C0.669433333,4.7233 1.24896,5.72804667 2.12974333,6.31672333 C1.59165333,6.29969333 1.08550333,6.15200667 0.64291,5.90613333 C0.64268,5.91985 0.64263,5.93357 0.64263,5.9474 C0.64263,7.53788 1.77413667,8.86462667 3.27583,9.16616667 C3.00035667,9.24114667 2.71036,9.28127333 2.41099667,9.28127333 C2.19947,9.28127333 1.99383333,9.26069667 1.79339667,9.22240333 C2.21112667,10.5265167 3.4234,11.4755967 4.85982667,11.5021167 C3.73637333,12.3825033 2.32098,12.90728 0.783053333,12.90728 C0.51809,12.9072767 0.256786667,12.8917333 0,12.86144 C1.45271333,13.7928 3.17815667,14.33621 5.03191,14.33621 C11.0698233,14.33621 14.3715433,9.33430667 14.3715433,4.99649 C14.3715433,4.85417667 14.3683467,4.71261 14.3620567,4.57184333 C15.00337,4.10902 15.5599267,3.53086 16,2.87257667 Z" id="Path" fill="#69ACE0" fill-rule="nonzero"></path>
                    </g>
                </g>
            </g>
        </g>
    </g>
</svg>
