<svg width="40" height="40" viewBox="0 0 40 40" xmlns="http://www.w3.org/2000/svg"><g fill="none" fill-rule="evenodd"><path fill="#DBDFE1" d="M0 0h40v40H0z"/><path d="M20 6.64c1.875.053 3.437.704 4.688 1.954 1.25 1.25 1.875 2.825 1.875 4.726 0 1.901-.625 3.477-1.875 4.727-1.25 1.25-2.813 1.875-4.688 1.875-1.875 0-3.437-.625-4.688-1.875-1.25-1.25-1.874-2.826-1.874-4.727 0-1.9.624-3.476 1.874-4.726S18.125 6.693 20 6.64zm0 16.72c3.802.051 6.953.702 9.453 1.953 2.5 1.25 3.802 2.812 3.906 4.687v3.36H6.641V30c.104-1.875 1.406-3.437 3.906-4.688 2.5-1.25 5.65-1.9 9.453-1.953z" fill="#F5F6F7" fill-rule="nonzero"/></g></svg>