<?xml version="1.0" encoding="UTF-8"?>
<svg width="262px" height="262px" viewBox="0 0 262 262" version="1.1" xmlns="http://www.w3.org/2000/svg" xmlns:xlink="http://www.w3.org/1999/xlink">
    <!-- Generator: Sketch 53.2 (72643) - https://sketchapp.com -->
    <title>img</title>
    <desc>Created with Sketch.</desc>
    <defs>
        <rect id="path-1" x="0" y="0" width="262" height="262"></rect>
    </defs>
    <g id="Collection-page" stroke="none" stroke-width="1" fill="none" fill-rule="evenodd">
        <g id="🖥--Collection-page---Image-placeholder" transform="translate(-1028.000000, -658.000000)">
            <g id="Product-Copy-7" transform="translate(1028.000000, 658.000000)">
                <g id="img">
                    <mask id="mask-2" fill="white">
                        <use xlink:href="#path-1"></use>
                    </mask>
                    <use id="Rectangle" fill="#BFBFBF" xlink:href="#path-1"></use>
                    <g id="Bag" mask="url(#mask-2)" stroke="#777777">
                        <g transform="translate(41.000000, 61.000000)">
                            <path d="M21.9244107,38.9615385 C18.3723158,38.9615385 15.3540199,41.5587123 14.8242334,45.0710768 L3.82258259,118.009527 C3.68332853,118.93275 3.61340823,119.865105 3.61340823,120.798771 C3.61340823,131.127175 11.9862336,139.5 22.3146371,139.5 L156.667467,139.5 C157.606081,139.5 158.543363,139.429337 159.471368,139.288609 C169.683023,137.740058 176.705856,128.206526 175.157305,117.994871 L164.097887,45.0654492 C163.565641,41.5556396 160.548498,38.9615385 156.998561,38.9615385 L21.9244107,38.9615385 Z" id="Rectangle"></path>
                            <path d="M67.0469273,38.9005161 C61.602213,73.3005597 60.5690464,106.894774 63.9474275,139.683158 C68.8280018,139.776646 71.4969797,139.776646 71.9543615,139.683158 C69.3078524,118.280494 70.0114113,84.5880054 74.0650382,38.6056932 C72.0896916,38.7824223 69.7503213,38.8806966 67.0469273,38.9005161 Z" id="Path-56"></path>
                            <path d="M104.258341,38.6056932 C105.511792,99.0131202 105.870868,132.728981 105.335569,139.753274 C107.171807,139.789013 109.940029,139.789013 113.640237,139.753274 C113.215856,76.8245387 112.669504,43.1086783 112.001181,38.6056932 C109.814941,38.6102926 107.233995,38.6102926 104.258341,38.6056932 Z" id="Path-57"></path>
                            <ellipse id="Oval" cx="108.237258" cy="42.8723665" rx="1.73225806" ry="1"></ellipse>
                            <ellipse id="Oval-Copy-18" cx="67.9622581" cy="135.61122" rx="1.73225806" ry="1"></ellipse>
                            <ellipse id="Oval-Copy-16" cx="69.81" cy="43.6942675" rx="1.79" ry="1"></ellipse>
                            <ellipse id="Oval-Copy-17" cx="110.085" cy="135.541401" rx="1.79" ry="1"></ellipse>
                            <path d="M64.3465887,38.5730329 C63.9990358,35.0423153 64.5072593,33.0577292 65.8712591,32.6192748" id="Path-58"></path>
                            <path d="M74.0622238,38.5730329 C73.5510245,33.8601566 74.324638,31.5037184 76.3830641,31.5037184" id="Path-58-Copy" transform="translate(75.146371, 35.038376) scale(-1, 1) translate(-75.146371, -35.038376) "></path>
                            <path d="M66.1825018,38.5730329 C65.7841012,36.5262713 65.7841012,35.2943969 66.1825018,34.8774099" id="Path-59"></path>
                            <path d="M73.8666045,38.5730329 C73.4682039,36.5262713 73.4682039,35.2943969 73.8666045,34.8774099" id="Path-59-Copy" transform="translate(73.717204, 36.725221) scale(-1, 1) translate(-73.717204, -36.725221) "></path>
                            <path d="M66.1825018,34.8774099 C69.5611985,35.5281599 72.0229659,35.5281599 73.5678041,34.8774099 C74.1202071,33.4449727 74.1135308,28.9612723 72.9854345,25.5292372 C71.8573382,22.097202 81.3809577,1.81163133 90.4737433,3.33357548 C97.893892,4.83467394 104.355148,9.89830159 105.335569,24.3666728 C103.577561,29.0611232 103.484795,33.2842524 105.335569,34.4205512 C107.477599,34.9187633 112.336737,34.6902945 112.336737,34.1318384 C112.336737,33.5733822 114.858941,28.43742 110.800757,23.4127738 C110.34447,16.8520084 103.043244,0.383284342 91.3458429,0.0174424038 C79.6484422,-0.348399535 75.6571859,4.94661532 68.1613246,24.8198582 C66.0717777,27.7495121 65.4121701,31.1020293 66.1825018,34.8774099 Z" id="Path-60"></path>
                            <path d="M104.258341,32.935087 C102.839915,33.2712876 102.549296,35.1506029 103.386484,38.5730329" id="Path-61"></path>
                            <path d="M114.127197,32.935087 C112.708771,33.2712876 112.418152,35.1506029 113.25534,38.5730329" id="Path-61-Copy" transform="translate(113.458222, 35.754060) scale(-1, 1) translate(-113.458222, -35.754060) "></path>
                            <path d="M105.335569,34.4205512 C104.357508,36.1725389 104.357508,37.5566995 105.335569,38.5730329" id="Path-62"></path>
                            <path d="M112.367954,34.4205512 C111.389893,36.1725389 111.389893,37.5566995 112.367954,38.5730329" id="Path-62-Copy" transform="translate(112.001181, 36.496792) scale(-1, 1) translate(-112.001181, -36.496792) "></path>
                        </g>
                    </g>
                </g>
            </g>
        </g>
    </g>
</svg>