<?xml version="1.0" encoding="UTF-8"?>
<svg width="1440px" height="904px" viewBox="0 0 1440 904" version="1.1" xmlns="http://www.w3.org/2000/svg" xmlns:xlink="http://www.w3.org/1999/xlink">
    <!-- Generator: Sketch 53.2 (72643) - https://sketchapp.com -->
    <title>Bitmap</title>
    <desc>Created with Sketch.</desc>
    <defs>
        <rect id="path-1" x="0" y="0" width="1440" height="904"></rect>
        <rect id="path-3" x="0" y="0" width="1440" height="868"></rect>
        <circle id="path-5" cx="129.5" cy="129.5" r="129.5"></circle>
        <circle id="path-7" cx="88" cy="88" r="88"></circle>
        <circle id="path-9" cx="138.5" cy="138.5" r="138.5"></circle>
        <circle id="path-11" cx="237" cy="237" r="237"></circle>
        <circle id="path-13" cx="171" cy="171" r="171"></circle>
    </defs>
    <g id="Homepage" stroke="none" stroke-width="1" fill="none" fill-rule="evenodd">
        <g id="🖥--Homepage---Image-placeholder" transform="translate(0.000000, -160.000000)">
            <g id="Header" transform="translate(0.000000, 160.000000)">
                <g id="Bitmap">
                    <mask id="mask-2" fill="white">
                        <use xlink:href="#path-1"></use>
                    </mask>
                    <use id="Mask" fill="#BFBFBF" xlink:href="#path-1"></use>
                    <g id="img" mask="url(#mask-2)">
                        <g transform="translate(0.000000, 18.000000)">
                            <mask id="mask-4" fill="white">
                                <use xlink:href="#path-3"></use>
                            </mask>
                            <g id="bg" stroke="none" fill="none"></g>
                            <g id="Group-16" stroke="none" stroke-width="1" fill="none" fill-rule="evenodd" mask="url(#mask-4)">
                                <g transform="translate(124.000000, 149.000000)">
                                    <mask id="mask-6" fill="white">
                                        <use xlink:href="#path-5"></use>
                                    </mask>
                                    <circle stroke="#777777" stroke-width="2" cx="129.5" cy="129.5" r="130.5"></circle>
                                    <g id="Group-16" stroke="none" stroke-width="1" fill="none" fill-rule="evenodd" mask="url(#mask-6)">
                                        <g transform="translate(-51.000000, 21.000000)" stroke="#777777" stroke-width="2">
                                            <path d="M30.6461427,54.8461538 C25.82031,54.8461538 21.7201023,58.3755478 21.0020259,63.1476572 L5.63574439,165.26712 C5.44392772,166.541873 5.34761732,167.829176 5.34761732,169.11828 C5.34761732,183.412359 16.9352583,195 31.2293378,195 L218.745676,195 C220.041612,195 221.335718,194.902666 222.617074,194.708819 C236.750339,192.570705 246.47433,179.380146 244.336216,165.246881 L228.889245,63.1400309 C228.167833,58.3713827 224.069187,54.8461538 219.246279,54.8461538 L30.6461427,54.8461538 Z" id="Rectangle"></path>
                                            <path d="M93.6409599,54.4607226 C86.0366103,102.620784 84.5936402,149.652683 89.3120496,195.556422 C96.1284941,195.687305 99.856117,195.687305 100.494918,195.556422 C96.7986765,165.592691 97.7813007,118.423208 103.442791,54.0479705 C100.683927,54.2953912 97.4166499,54.4329752 93.6409599,54.4607226 Z" id="Path-56"></path>
                                            <path d="M145.612208,54.0479705 C147.362838,138.618368 147.864341,185.820573 147.116716,195.654584 C149.681294,195.704618 153.547527,195.704618 158.715414,195.654584 C158.122703,107.554354 157.359642,60.3521497 156.426231,54.0479705 C153.372823,54.0544097 149.768149,54.0544097 145.612208,54.0479705 Z" id="Path-57"></path>
                                            <ellipse id="Oval" cx="151.169355" cy="60.0213131" rx="2.41935484" ry="1.34615385"></ellipse>
                                            <ellipse id="Oval-Copy-18" cx="94.9193548" cy="189.855708" rx="2.41935484" ry="1.34615385"></ellipse>
                                            <ellipse id="Oval-Copy-16" cx="97.5" cy="61.1719745" rx="2.5" ry="1.24840764"></ellipse>
                                            <ellipse id="Oval-Copy-17" cx="153.75" cy="189.757962" rx="2.5" ry="1.24840764"></ellipse>
                                            <path d="M89.8695373,54.0022461 C89.3841282,49.0592414 90.0939375,46.2808209 91.9989652,45.6669847" id="Path-58"></path>
                                            <path d="M103.43886,54.0022461 C102.724895,47.4042192 103.80536,44.1052057 106.680257,44.1052057" id="Path-58-Copy" transform="translate(104.953032, 49.053726) scale(-1, 1) translate(-104.953032, -49.053726) "></path>
                                            <path d="M92.4336617,54.0022461 C91.8772363,51.1367798 91.8772363,49.4121557 92.4336617,48.8283739" id="Path-59"></path>
                                            <path d="M103.165649,54.0022461 C102.609223,51.1367798 102.609223,49.4121557 103.165649,48.8283739" id="Path-59-Copy" transform="translate(102.956989, 51.415310) scale(-1, 1) translate(-102.956989, -51.415310) "></path>
                                            <path d="M92.4336617,48.8283739 C97.1525119,49.7394239 100.590735,49.7394239 102.74833,48.8283739 C103.519842,46.8229618 103.510518,40.5457812 101.934964,35.740932 C100.359411,30.9360828 113.660555,2.53628386 126.359977,4.66700568 C136.723313,6.76854352 145.747414,13.8576222 147.116716,34.1133419 C144.661398,40.6855724 144.531837,46.5979534 147.116716,48.1887717 C150.108378,48.8862687 156.894884,48.5664123 156.894884,47.7845737 C156.894884,47.0027351 160.417515,39.812388 154.749661,32.7778833 C154.112388,23.5928117 143.915145,0.536598079 127.577993,0.0244193653 C111.240841,-0.487759348 105.666461,6.92526145 95.1973807,34.7478014 C92.2790191,38.8493169 91.3577795,43.5428411 92.4336617,48.8283739 Z" id="Path-60"></path>
                                            <path d="M145.612208,46.1091218 C143.631167,46.5798026 143.225274,49.2108441 144.394531,54.0022461" id="Path-61"></path>
                                            <path d="M159.395527,46.1091218 C157.414485,46.5798026 157.008593,49.2108441 158.177849,54.0022461" id="Path-61-Copy" transform="translate(158.461204, 50.055684) scale(-1, 1) translate(-158.461204, -50.055684) "></path>
                                            <path d="M147.116716,48.1887717 C145.750709,50.6415545 145.750709,52.5793793 147.116716,54.0022461" id="Path-62"></path>
                                            <path d="M156.938484,48.1887717 C155.572477,50.6415545 155.572477,52.5793793 156.938484,54.0022461" id="Path-62-Copy" transform="translate(156.426231, 51.095509) scale(-1, 1) translate(-156.426231, -51.095509) "></path>
                                        </g>
                                    </g>
                                </g>
                            </g>
                            <g id="Group-12" stroke="none" stroke-width="1" fill="none" fill-rule="evenodd" mask="url(#mask-4)">
                                <g transform="translate(368.000000, 360.000000)">
                                    <mask id="mask-8" fill="white">
                                        <use xlink:href="#path-7"></use>
                                    </mask>
                                    <use id="Mask" stroke="#777777" stroke-width="2" fill="none" xlink:href="#path-7"></use>
                                    <g id="Group-12" stroke="none" stroke-width="1" fill="none" fill-rule="evenodd" mask="url(#mask-8)">
                                        <g transform="translate(71.381397, 128.937477) rotate(-330.000000) translate(-71.381397, -128.937477) translate(16.381397, 31.437477)">
                                            <g id="Group-11" stroke="none" stroke-width="1" fill-rule="evenodd" transform="translate(26.897810, 144.945861)">
                                                <rect id="Rectangle" stroke="#777777" stroke-width="2" x="13.8467153" y="11.3663226" width="28.5109489" height="9.96114147" rx="1.59767611"></rect>
                                                <rect id="Rectangle-Copy-8" stroke="#777777" stroke-width="2" x="13.8467153" y="22.5300546" width="28.5109489" height="9.96114147" rx="1.59767611"></rect>
                                                <rect id="Rectangle-Copy-12" stroke="#777777" stroke-width="2" x="13.8467153" y="33.6937867" width="28.5109489" height="9.96114147" rx="1.59767611"></rect>
                                                <rect id="Rectangle-Copy-13" stroke="#777777" stroke-width="2" x="13.8467153" y="44.8575187" width="28.5109489" height="3.58186602" rx="1.59767611"></rect>
                                                <path d="M1.81190201,1.76683835 C1.74352965,1.74058733 1.67091473,1.72712639 1.59767611,1.72712639 C1.26758871,1.72712639 1,1.9947151 1,2.3248025 L1,14.3505125 C1,14.6805999 1.26758871,14.9481886 1.59767611,14.9481886 L12.0519589,14.9481886 C12.3820463,14.9481886 12.649635,14.6805999 12.649635,14.3505125 L12.649635,6.33864138 C12.649635,6.09121175 12.4971743,5.86936379 12.2661848,5.78067724 L1.81190201,1.76683835 Z" id="Rectangle" stroke="#777777" stroke-width="2"></path>
                                                <path d="M44.3666465,1.76683835 C44.2982742,1.74058733 44.2256593,1.72712639 44.1524206,1.72712639 C43.8223332,1.72712639 43.5547445,1.9947151 43.5547445,2.3248025 L43.5547445,14.3505125 C43.5547445,14.6805999 43.8223332,14.9481886 44.1524206,14.9481886 L54.6067035,14.9481886 C54.9367909,14.9481886 55.2043796,14.6805999 55.2043796,14.3505125 L55.2043796,6.33864138 C55.2043796,6.09121175 55.0519188,5.86936379 54.8209294,5.78067724 L44.3666465,1.76683835 Z" id="Rectangle-Copy-2" stroke="#777777" stroke-width="2" transform="translate(49.379562, 7.974094) scale(-1, 1) translate(-49.379562, -7.974094) "></path>
                                                <path d="M1.94674196,16.1507792 C1.90759592,16.1507792 1.86854457,16.1546251 1.83015059,16.1622615 C1.50640469,16.2266531 1.29615652,16.5413008 1.36054815,16.8650467 L3.3509701,26.8724169 C3.40659356,27.1520785 3.65202438,27.3535017 3.93716391,27.3535017 L12.0519589,27.3535017 C12.3820463,27.3535017 12.649635,27.085913 12.649635,26.7558256 L12.649635,16.7484553 C12.649635,16.4183679 12.3820463,16.1507792 12.0519589,16.1507792 L1.94674196,16.1507792 Z" id="Rectangle-Copy-3" stroke="#777777" stroke-width="2"></path>
                                                <path d="M4.27261093,28.9093301 C4.23149961,28.9093301 4.190498,28.9135718 4.15025736,28.921988 C3.82716071,28.989562 3.62001868,29.3062631 3.68759269,29.6293598 L5.6452646,38.9897223 C5.7031848,39.2666605 5.94735264,39.4650449 6.23028283,39.4650449 L12.0519589,39.4650449 C12.3820463,39.4650449 12.649635,39.1974562 12.649635,38.8673688 L12.649635,29.5070062 C12.649635,29.1769188 12.3820463,28.9093301 12.0519589,28.9093301 L4.27261093,28.9093301 Z" id="Rectangle-Copy-5" stroke="#777777" stroke-width="2"></path>
                                                <path d="M5.72025702,40.8704716 C5.67310587,40.8704716 5.62612036,40.8760512 5.58028057,40.887094 C5.25937351,40.9644009 5.06189653,41.2872171 5.13920339,41.6081241 L6.67460112,47.9816851 C6.73927996,48.2501722 6.97948689,48.4393847 7.25565475,48.4393847 L12.0519589,48.4393847 C12.3820463,48.4393847 12.649635,48.171796 12.649635,47.8417086 L12.649635,41.4681477 C12.649635,41.1380603 12.3820463,40.8704716 12.0519589,40.8704716 L5.72025702,40.8704716 Z" id="Rectangle-Copy-9" stroke="#777777" stroke-width="2"></path>
                                                <path d="M44.260403,40.8704716 C44.2132519,40.8704716 44.1662663,40.8760512 44.1204266,40.887094 C43.7995195,40.9644009 43.6020425,41.2872171 43.6793494,41.6081241 L45.2147471,47.9816851 C45.2794259,48.2501722 45.5196329,48.4393847 45.7958007,48.4393847 L50.5921049,48.4393847 C50.9221923,48.4393847 51.189781,48.171796 51.189781,47.8417086 L51.189781,41.4681477 C51.189781,41.1380603 50.9221923,40.8704716 50.5921049,40.8704716 L44.260403,40.8704716 Z" id="Rectangle-Copy-11" stroke="#777777" stroke-width="2" transform="translate(47.372263, 44.654928) scale(-1, 1) translate(-47.372263, -44.654928) "></path>
                                                <path d="M44.153634,28.9093301 C44.1125227,28.9093301 44.071521,28.9135718 44.0312804,28.921988 C43.7081838,28.989562 43.5010417,29.3062631 43.5686157,29.6293598 L45.5262876,38.9897223 C45.5842078,39.2666605 45.8283757,39.4650449 46.1113059,39.4650449 L51.932982,39.4650449 C52.2630694,39.4650449 52.5306581,39.1974562 52.5306581,38.8673688 L52.5306581,29.5070062 C52.5306581,29.1769188 52.2630694,28.9093301 51.932982,28.9093301 L44.153634,28.9093301 Z" id="Rectangle-Copy-7" stroke="#777777" stroke-width="2" transform="translate(48.042701, 34.187187) scale(-1, 1) translate(-48.042701, -34.187187) "></path>
                                                <path d="M44.5014865,16.1507792 C44.4623404,16.1507792 44.4232891,16.1546251 44.3848951,16.1622615 C44.0611492,16.2266531 43.850901,16.5413008 43.9152927,16.8650467 L45.9057146,26.8724169 C45.9613381,27.1520785 46.2067689,27.3535017 46.4919084,27.3535017 L54.6067035,27.3535017 C54.9367909,27.3535017 55.2043796,27.085913 55.2043796,26.7558256 L55.2043796,16.7484553 C55.2043796,16.4183679 54.9367909,16.1507792 54.6067035,16.1507792 L44.5014865,16.1507792 Z" id="Rectangle-Copy-4" stroke="#777777" stroke-width="2" transform="translate(49.379562, 21.752140) scale(-1, 1) translate(-49.379562, -21.752140) "></path>
                                            </g>
                                            <g id="Group-11-Copy" stroke="none" stroke-width="1" fill-rule="evenodd" transform="translate(55.397810, 25.054139) scale(1, -1) translate(-55.397810, -25.054139) translate(26.897810, 0.054139)">
                                                <rect id="Rectangle" stroke="#777777" stroke-width="2" x="13.8467153" y="11.3663226" width="28.5109489" height="9.96114147" rx="1.59767611"></rect>
                                                <rect id="Rectangle-Copy-8" stroke="#777777" stroke-width="2" x="13.8467153" y="22.5300546" width="28.5109489" height="9.96114147" rx="1.59767611"></rect>
                                                <rect id="Rectangle-Copy-12" stroke="#777777" stroke-width="2" x="13.8467153" y="33.6937867" width="28.5109489" height="9.96114147" rx="1.59767611"></rect>
                                                <rect id="Rectangle-Copy-13" stroke="#777777" stroke-width="2" x="13.8467153" y="44.8575187" width="28.5109489" height="3.58186602" rx="1.59767611"></rect>
                                                <path d="M1.81190201,1.76683835 C1.74352965,1.74058733 1.67091473,1.72712639 1.59767611,1.72712639 C1.26758871,1.72712639 1,1.9947151 1,2.3248025 L1,14.3505125 C1,14.6805999 1.26758871,14.9481886 1.59767611,14.9481886 L12.0519589,14.9481886 C12.3820463,14.9481886 12.649635,14.6805999 12.649635,14.3505125 L12.649635,6.33864138 C12.649635,6.09121175 12.4971743,5.86936379 12.2661848,5.78067724 L1.81190201,1.76683835 Z" id="Rectangle" stroke="#777777" stroke-width="2"></path>
                                                <path d="M44.3666465,1.76683835 C44.2982742,1.74058733 44.2256593,1.72712639 44.1524206,1.72712639 C43.8223332,1.72712639 43.5547445,1.9947151 43.5547445,2.3248025 L43.5547445,14.3505125 C43.5547445,14.6805999 43.8223332,14.9481886 44.1524206,14.9481886 L54.6067035,14.9481886 C54.9367909,14.9481886 55.2043796,14.6805999 55.2043796,14.3505125 L55.2043796,6.33864138 C55.2043796,6.09121175 55.0519188,5.86936379 54.8209294,5.78067724 L44.3666465,1.76683835 Z" id="Rectangle-Copy-2" stroke="#777777" stroke-width="2" transform="translate(49.379562, 7.974094) scale(-1, 1) translate(-49.379562, -7.974094) "></path>
                                                <path d="M1.94674196,16.1507792 C1.90759592,16.1507792 1.86854457,16.1546251 1.83015059,16.1622615 C1.50640469,16.2266531 1.29615652,16.5413008 1.36054815,16.8650467 L3.3509701,26.8724169 C3.40659356,27.1520785 3.65202438,27.3535017 3.93716391,27.3535017 L12.0519589,27.3535017 C12.3820463,27.3535017 12.649635,27.085913 12.649635,26.7558256 L12.649635,16.7484553 C12.649635,16.4183679 12.3820463,16.1507792 12.0519589,16.1507792 L1.94674196,16.1507792 Z" id="Rectangle-Copy-3" stroke="#777777" stroke-width="2"></path>
                                                <path d="M4.27261093,28.9093301 C4.23149961,28.9093301 4.190498,28.9135718 4.15025736,28.921988 C3.82716071,28.989562 3.62001868,29.3062631 3.68759269,29.6293598 L5.6452646,38.9897223 C5.7031848,39.2666605 5.94735264,39.4650449 6.23028283,39.4650449 L12.0519589,39.4650449 C12.3820463,39.4650449 12.649635,39.1974562 12.649635,38.8673688 L12.649635,29.5070062 C12.649635,29.1769188 12.3820463,28.9093301 12.0519589,28.9093301 L4.27261093,28.9093301 Z" id="Rectangle-Copy-5" stroke="#777777" stroke-width="2"></path>
                                                <path d="M5.72025702,40.8704716 C5.67310587,40.8704716 5.62612036,40.8760512 5.58028057,40.887094 C5.25937351,40.9644009 5.06189653,41.2872171 5.13920339,41.6081241 L6.67460112,47.9816851 C6.73927996,48.2501722 6.97948689,48.4393847 7.25565475,48.4393847 L12.0519589,48.4393847 C12.3820463,48.4393847 12.649635,48.171796 12.649635,47.8417086 L12.649635,41.4681477 C12.649635,41.1380603 12.3820463,40.8704716 12.0519589,40.8704716 L5.72025702,40.8704716 Z" id="Rectangle-Copy-9" stroke="#777777" stroke-width="2"></path>
                                                <path d="M44.260403,40.8704716 C44.2132519,40.8704716 44.1662663,40.8760512 44.1204266,40.887094 C43.7995195,40.9644009 43.6020425,41.2872171 43.6793494,41.6081241 L45.2147471,47.9816851 C45.2794259,48.2501722 45.5196329,48.4393847 45.7958007,48.4393847 L50.5921049,48.4393847 C50.9221923,48.4393847 51.189781,48.171796 51.189781,47.8417086 L51.189781,41.4681477 C51.189781,41.1380603 50.9221923,40.8704716 50.5921049,40.8704716 L44.260403,40.8704716 Z" id="Rectangle-Copy-11" stroke="#777777" stroke-width="2" transform="translate(47.372263, 44.654928) scale(-1, 1) translate(-47.372263, -44.654928) "></path>
                                                <path d="M44.153634,28.9093301 C44.1125227,28.9093301 44.071521,28.9135718 44.0312804,28.921988 C43.7081838,28.989562 43.5010417,29.3062631 43.5686157,29.6293598 L45.5262876,38.9897223 C45.5842078,39.2666605 45.8283757,39.4650449 46.1113059,39.4650449 L51.932982,39.4650449 C52.2630694,39.4650449 52.5306581,39.1974562 52.5306581,38.8673688 L52.5306581,29.5070062 C52.5306581,29.1769188 52.2630694,28.9093301 51.932982,28.9093301 L44.153634,28.9093301 Z" id="Rectangle-Copy-7" stroke="#777777" stroke-width="2" transform="translate(48.042701, 34.187187) scale(-1, 1) translate(-48.042701, -34.187187) "></path>
                                                <path d="M44.5014865,16.1507792 C44.4623404,16.1507792 44.4232891,16.1546251 44.3848951,16.1622615 C44.0611492,16.2266531 43.850901,16.5413008 43.9152927,16.8650467 L45.9057146,26.8724169 C45.9613381,27.1520785 46.2067689,27.3535017 46.4919084,27.3535017 L54.6067035,27.3535017 C54.9367909,27.3535017 55.2043796,27.085913 55.2043796,26.7558256 L55.2043796,16.7484553 C55.2043796,16.4183679 54.9367909,16.1507792 54.6067035,16.1507792 L44.5014865,16.1507792 Z" id="Rectangle-Copy-4" stroke="#777777" stroke-width="2" transform="translate(49.379562, 21.752140) scale(-1, 1) translate(-49.379562, -21.752140) "></path>
                                            </g>
                                            <ellipse id="Oval" stroke="#777777" stroke-width="2" cx="55" cy="97.5" rx="55" ry="54.622546"></ellipse>
                                            <ellipse id="Oval-Copy-12" stroke="#777777" stroke-width="2" cx="55" cy="97.5" rx="52.189781" ry="51.831613"></ellipse>
                                            <ellipse id="Oval-Copy-13" stroke="#777777" stroke-width="2" cx="55" cy="97.5" rx="40.1459854" ry="39.8704716"></ellipse>
                                            <g id="Group-10" stroke="none" stroke-width="1" fill-rule="evenodd" transform="translate(10.036496, 35.700769)">
                                                <path d="M72.6617812,14.9774472 L72.6617812,0 C76.8700558,1.61281086 79.2086763,2.85480545 79.6776427,3.72598378 C80.1466091,4.5971621 83.5717202,13.4575118 89.9529759,30.3070328" id="Path-35" stroke="#777777" stroke-width="2"></path>
                                                <path d="M0,14.9774472 L0,0 C4.2082746,1.61281086 6.54689509,2.85480545 7.01586149,3.72598378 C7.48482788,4.5971621 10.909939,13.4575118 17.2911947,30.3070328" id="Path-35-Copy" stroke="#777777" stroke-width="2" transform="translate(8.645597, 15.153516) scale(-1, 1) translate(-8.645597, -15.153516) "></path>
                                            </g>
                                            <g id="Group-10-Copy" stroke="none" stroke-width="1" fill-rule="evenodd" transform="translate(55.036496, 143.799231) scale(1, -1) translate(-55.036496, -143.799231) translate(10.036496, 128.299231)">
                                                <path d="M72.6617812,14.9774472 L72.6617812,0 C76.8700558,1.61281086 79.2086763,2.85480545 79.6776427,3.72598378 C80.1466091,4.5971621 83.5717202,13.4575118 89.9529759,30.3070328" id="Path-35" stroke="#777777" stroke-width="2"></path>
                                                <path d="M0,14.9774472 L0,0 C4.2082746,1.61281086 6.54689509,2.85480545 7.01586149,3.72598378 C7.48482788,4.5971621 10.909939,13.4575118 17.2911947,30.3070328" id="Path-35-Copy" stroke="#777777" stroke-width="2" transform="translate(8.645597, 15.153516) scale(-1, 1) translate(-8.645597, -15.153516) "></path>
                                            </g>
                                            <polygon id="Triangle" stroke="#777777" stroke-width="2" transform="translate(55.000000, 51.250253) scale(1, -1) translate(-55.000000, -51.250253) " points="55 48.45932 57.810219 54.041186 52.189781 54.041186"></polygon>
                                            <polygon id="Path-36" stroke="#777777" stroke-width="2" points="48.8180782 99.898634 76.2773723 80.2689976 79.7208661 80.2689976 78.8321825 82.6614106 51.0594445 103.085183"></polygon>
                                            <polygon id="Path-37" stroke="#777777" stroke-width="2" points="37.5903273 86.6145959 38.713572 89.2166655 60.0507388 102.037911 61.9168364 99.0601799 40.7920657 86.6145959"></polygon>
                                            <ellipse id="Oval-Copy-14" stroke="#777777" stroke-width="2" cx="55" cy="97.5" rx="4.01459854" ry="3.98704716"></ellipse>
                                        </g>
                                    </g>
                                </g>
                            </g>
                            <g id="Group-2" stroke="none" stroke-width="1" fill="none" fill-rule="evenodd" mask="url(#mask-4)">
                                <g transform="translate(556.000000, 83.000000)">
                                    <mask id="mask-10" fill="white">
                                        <use xlink:href="#path-9"></use>
                                    </mask>
                                    <use id="Mask" stroke="#777777" stroke-width="2" fill="none" xlink:href="#path-9"></use>
                                    <g id="Group-2" stroke="none" stroke-width="1" fill="none" fill-rule="evenodd" mask="url(#mask-10)">
                                        <g transform="translate(121.528814, 111.327607) scale(-1, 1) rotate(-26.000000) translate(-121.528814, -111.327607) translate(-3.471186, 12.827607)" stroke="#777777" stroke-width="2">
                                            <path d="" id="Path-2"></path>
                                            <path d="M7.51138393,165.161912 C3.43985532,165.983845 0.645753849,166.635818 0.645753849,173.208368 C0.645753849,179.780917 34.2121871,195.536811 84.766076,195.536811 C149.253284,195.629383 134.203555,143.333931 201.974578,109.28367 C202.277908,120.82806 202.277908,149.579107 201.974578,195.536811 C224.177761,197.620626 235.931076,195.833328 237.234523,190.174918 C238.537971,184.516509 242.540165,148.698149 249.241108,82.71984 C252.463853,56.1582284 242.052092,28.654722 218.005824,0.209320939 C207.835165,9.48084388 145.15701,29.708311 125.229087,33.9698067 C125.909639,39.4476286 126.705263,43.2557418 127.615961,45.3941461 L205.550275,20.3773379 C211.202753,33.8833337 207.983629,57.8372451 195.892902,92.2390719 C133.712924,127.809185 131.095802,163.194641 103.489727,166.339195 C92.5303599,143.486158 82.4987667,138.500301 80.5313584,137.824776 C77.9751087,136.419948 67.7065332,140.398485 49.7256319,149.760388 C46.8137815,153.411042 45.3578563,158.544883 45.3578563,165.161912 C35.3319936,164.708344 14.1848995,163.675046 7.51138393,165.161912 Z" id="Path-3"></path>
                                            <path d="M81.8259901,190.559532 C71.4868584,154.288337 72.0455715,137.272107 83.5021295,139.510843" id="Path-4"></path>
                                            <path d="M79.8124205,184.52122 C109.306781,186.570047 119.524515,173.378292 135.330579,151.93186 C149.652146,131.822156 168.814629,110.849004 194.812421,99.9561564" id="Path-5"></path>
                                            <path d="M211.805657,16.8337935 C218.130076,31.472873 218.035504,47.7078013 211.52194,65.5385784 C200.583236,92.8474525 193.63893,96.3211369 191.479087,114.086958" id="Path-6"></path>
                                            <path d="M201.479087,190.098059 C221.148263,192.156808 233.092708,191.756484 237.312421,188.897085" id="Path-7"></path>
                                            <path d="" id="Path-9"></path>
                                            <path d="M205.645754,20.158688 C218.787541,14.0175601 224.864059,9.58436738 223.875309,6.85910997" id="Path-10"></path>
                                            <path d="M5.84036593,165.622823 C2.30394857,169.202047 3.80690848,172.185353 10.3492457,174.572741 C16.8915829,176.960129 29.2126411,179.518314 47.3124205,182.247296" id="Path-11"></path>
                                            <path d="M49.1666667,189.518987 C46.9769309,181.58344 45.6950263,173.389637 45.320953,164.937578" id="Path-12"></path>
                                            <path d="M76.1662693,166.373807 L103.350652,166.356313" id="Path-13"></path>
                                        </g>
                                    </g>
                                </g>
                            </g>
                            <circle id="Oval-Copy-32" stroke="#777777" stroke-width="2" fill="none" mask="url(#mask-4)" cx="924" cy="238" r="40"></circle>
                            <circle id="Oval-Copy-33" stroke="#777777" stroke-width="2" fill="none" mask="url(#mask-4)" cx="287.5" cy="489.5" r="20.5"></circle>
                            <circle id="Oval-Copy-34" stroke="#777777" stroke-width="2" fill="none" mask="url(#mask-4)" cx="470" cy="252" r="14"></circle>
                            <circle id="Oval-Copy-35" stroke="#777777" stroke-width="2" fill="none" mask="url(#mask-4)" cx="1288.5" cy="116.5" r="20.5"></circle>
                            <circle id="Oval-Copy-37" stroke="#777777" stroke-width="2" fill="none" mask="url(#mask-4)" cx="148.5" cy="585.5" r="5.5"></circle>
                            <g id="Group-19" stroke="none" stroke-width="1" fill="none" fill-rule="evenodd" mask="url(#mask-4)">
                                <g transform="translate(863.000000, 253.000000)">
                                    <mask id="mask-12" fill="white">
                                        <use xlink:href="#path-11"></use>
                                    </mask>
                                    <use id="Mask" stroke="#777777" stroke-width="2" fill="none" xlink:href="#path-11"></use>
                                    <g id="Group-19" stroke="none" stroke-width="1" fill="none" fill-rule="evenodd" mask="url(#mask-12)">
                                        <g transform="translate(265.781667, 189.061419) rotate(26.000000) translate(-265.781667, -189.061419) translate(115.781667, -54.938581)" stroke="#777777" stroke-width="2">
                                            <path d="M86.4842807,413.5506 C86.4839169,413.5506 86.4839169,413.5506 86.4835531,413.5506 C86.1595459,413.550801 85.8970492,413.813624 85.8972502,414.137631 L85.9051324,426.842999 C85.9053332,427.166722 86.1677125,427.429101 86.4914355,427.429301 L94.4411545,427.43423 C94.4415183,427.43423 94.4415183,427.43423 94.4418821,427.43423 C94.7658893,427.434029 95.028386,427.171206 95.028185,426.847199 L95.0203028,414.141831 C95.020102,413.818108 94.7577227,413.555729 94.4339997,413.555529 L86.4842807,413.5506 Z" id="Rectangle" transform="translate(90.462718, 420.492415) rotate(-300.000000) translate(-90.462718, -420.492415) "></path>
                                            <path d="M103.742839,295.171274 C103.419158,295.171504 103.15682,295.433842 103.15659,295.757523 L103.147537,308.469766 C103.147537,308.470184 103.147537,308.470184 103.147537,308.470602 C103.147768,308.794609 103.410614,309.057081 103.734622,309.056851 L111.679526,309.051192 C112.003207,309.050961 112.265545,308.788624 112.265775,308.464943 L112.274828,295.7527 C112.274828,295.752282 112.274828,295.752282 112.274828,295.751864 C112.274597,295.427857 112.011751,295.165384 111.687743,295.165615 L103.742839,295.171274 Z" id="Rectangle-Copy-21" transform="translate(107.711183, 302.111233) rotate(-222.000000) translate(-107.711183, -302.111233) "></path>
                                            <path d="M232.442849,430.180062 C232.119169,430.180294 231.856833,430.44263 231.856602,430.766309 L231.847505,443.476966 C231.847505,443.477386 231.847505,443.477386 231.847505,443.477806 C231.847737,443.801813 232.110584,444.064285 232.434591,444.064053 L240.380607,444.058367 C240.704286,444.058135 240.966622,443.795799 240.966853,443.47212 L240.97595,430.761462 C240.97595,430.761042 240.97595,430.761042 240.97595,430.760623 C240.975718,430.436615 240.712871,430.174144 240.388864,430.174376 L232.442849,430.180062 Z" id="Rectangle-Copy-19" transform="translate(236.411728, 437.119214) rotate(-226.000000) translate(-236.411728, -437.119214) "></path>
                                            <path d="M246.731381,403.775631 L246.73987,419.256503 L255.265112,419.261182 C255.267175,419.261183 255.267175,419.261183 255.269237,419.261182 C257.345828,419.260043 259.028315,417.575711 259.027176,415.49912 L259.022811,407.538253 C259.021673,405.463273 257.339854,403.781454 255.264874,403.780315 L246.731381,403.775631 Z" id="Rectangle-Copy-20" transform="translate(252.879005, 411.518132) rotate(-335.000000) translate(-252.879005, -411.518132) "></path>
                                            <ellipse id="Oval" cx="252.240294" cy="411.700326" rx="3.17460317" ry="3.17915309"></ellipse>
                                            <path d="M77.0498176,126.166124 L256.002199,126.166124 L256.002199,6.34666768 C256.002199,3.39378466 253.608414,1 250.655531,1 L82.3964853,1 C79.4436022,1 77.0498176,3.39378466 77.0498176,6.34666768 L77.0498176,126.166124 Z" id="Rectangle"></path>
                                            <path d="M50.0656906,208.076774 L50.0656906,472.133331 C50.0656906,480.343965 56.7217251,487 64.9323598,487 L271.294259,487 C279.504894,487 286.160929,480.343965 286.160929,472.133331 L286.160929,208.099211 L272.532074,130.992599 C272.080597,128.438322 269.860888,126.576547 267.267019,126.576547 L66.3384891,126.576547 C63.6775309,126.576547 61.4215621,128.533321 61.0454885,131.16757 L50.0656906,208.076774 Z" id="Rectangle-Copy-18"></path>
                                            <ellipse id="Oval" cx="169.700611" cy="232.078176" rx="53.968254" ry="54.0456026"></ellipse>
                                            <ellipse id="Oval-Copy-26" cx="169.700611" cy="232.078176" rx="33.3333333" ry="33.3811075"></ellipse>
                                            <ellipse id="Oval-Copy-28" cx="169.700611" cy="232.078176" rx="6.34920635" ry="6.35830619"></ellipse>
                                            <ellipse id="Oval-Copy-24" cx="169.700611" cy="371.960912" rx="85.7142857" ry="85.8371336"></ellipse>
                                            <ellipse id="Oval-Copy-25" cx="169.700611" cy="371.960912" rx="44.4444444" ry="44.5081433"></ellipse>
                                            <ellipse id="Oval-Copy-27" cx="169.700611" cy="371.960912" rx="7.93650794" ry="7.94788274"></ellipse>
                                            <rect id="Rectangle" x="42.1291826" y="349.117264" width="7.52380952" height="82.247557"></rect>
                                            <polyline id="Path-63" points="41.1291826 394.118996 34.865973 394.118996 26.0248544 444.455527 6.40202192 467.372458 2.27373675e-13 462.011559 19.2721116 439.2914 26.0248544 444.455527"></polyline>
                                            <rect id="Rectangle" x="286.573627" y="372.960912" width="12.2857143" height="34.5602606"></rect>
                                            <rect id="Rectangle" x="108.795849" y="16.8957655" width="117.047619" height="93.3745928" rx="6.34666768"></rect>
                                            <rect id="Rectangle-Copy-22" x="121.494262" y="49.6410423" width="91.6507937" height="23.4332248" rx="6.34666768"></rect>
                                            <path d="M50.6529922,208.018481 L121.316875,208.018481" id="Path-64"></path>
                                            <path d="M218.063101,208.018481 L286.252025,208.018481" id="Path-65"></path>
                                            <path d="M20.5645913,235.25151 L20.5645913,295.697067 C20.5645913,297.44965 21.9853413,298.8704 23.7379252,298.8704 L39.6727655,298.8704 C40.5973468,298.8704 41.4759499,298.467161 42.0787947,297.766141 L49.0656906,289.641411 L49.0656906,241.055021 L42.0764535,233.149617 C41.4741119,232.468319 40.6084255,232.078176 39.6990398,232.078176 L23.7379252,232.078176 C21.9853413,232.078176 20.5645913,233.498926 20.5645913,235.25151 Z" id="Path-66"></path>
                                            <path d="M41.1291826,232.078176 L41.1291826,298.8704" id="Path-67"></path>
                                        </g>
                                    </g>
                                </g>
                            </g>
                            <circle id="Oval-Copy-36" stroke="#777777" stroke-width="2" fill="none" mask="url(#mask-4)" cx="899.5" cy="697.5" r="13.5"></circle>
                            <g id="Group-4" stroke="none" stroke-width="1" fill="none" fill-rule="evenodd" mask="url(#mask-4)">
                                <g transform="translate(499.000000, 505.000000)">
                                    <mask id="mask-14" fill="white">
                                        <use xlink:href="#path-13"></use>
                                    </mask>
                                    <use id="Mask" stroke="#777777" stroke-width="2" fill="none" xlink:href="#path-13"></use>
                                    <g id="Group-4" stroke="none" stroke-width="1" fill="none" fill-rule="evenodd" mask="url(#mask-14)">
                                        <g transform="translate(204.787827, 127.513513) scale(-1, 1) rotate(20.000000) translate(-204.787827, -127.513513) translate(54.787827, 31.513513)" stroke="#777777" stroke-width="2">
                                            <path d="M15.2556233,5.54223334e-13 C18.6599384,42.875954 16.146415,78.6626592 7.7150532,107.360116 C3.15723008,124.478178 3.41297026,138.784507 5.38482031,148.874223 C7.7150532,154.847104 69.3785837,165.648738 104.783364,163.083739 C152.459086,160.477612 172.29093,200.103184 289.467537,153.196907 C291.481725,136.02636 276.587851,123.119122 267.03589,123.119122 C253.788384,121.035964 220.457912,137.142772 199.276666,118.156882" id="Path-8"></path>
                                            <path d="M15.2556233,1.13686838e-13 C77.5438491,3.08918065 111.363366,11.8931622 116.714173,26.4119446 C124.740383,48.1901183 128.13094,74.2967408 191.166908,99.3445884 C205.49485,102.782127 198.166218,130.124396 191.166908,136.83079 C169.232925,136.086454 143.424947,118.061895 123.567478,164.202538" id="Path-21"></path>
                                            <path d="M18.5453843,1.02318154e-12 C25.4854811,80.9482713 18.4253359,93.8255295 56.9446575,101.47524 C111.301449,116.919597 105.387717,142.014493 101.16331,163.182622" id="Path-22"></path>
                                            <path d="M5.38482031,148.874223 C4.4868564,148.874223 2.69191629,148.874223 1.42108547e-13,148.874223 L1.42108547e-13,176.251369 C12.2339707,184.09793 37.3152534,188.780897 75.2438482,190.300269 C75.2119033,187.298381 75.2119033,182.615414 75.2438482,176.251369 C104.242484,172.325793 133.888688,176.642508 164.18246,189.201511 C190.941533,196.939112 261.914581,187.03695 299.328407,163.182622 C297.502758,155.215358 296.469532,151.441746 295.242398,151.007188 C294.015265,150.572631 291.674739,150.090985 289.652496,149.712281" id="Path-23"></path>
                                            <path d="M214.905488,126.23802 C232.2734,129.834949 233.745098,145.772919 219.320582,174.051932" id="Path-24"></path>
                                            <ellipse id="Oval" cx="109.792168" cy="29.5919296" rx="4.3062201" ry="4.34716981"></ellipse>
                                            <ellipse id="Oval-Copy-3" transform="translate(115.892647, 47.705137) rotate(-26.000000) translate(-115.892647, -47.705137) " cx="115.892647" cy="47.7051371" rx="3.95461555" ry="4.33932628"></ellipse>
                                            <ellipse id="Oval-Copy-4" transform="translate(125.959608, 63.399547) rotate(-34.000000) translate(-125.959608, -63.399547) " cx="125.959608" cy="63.3995474" rx="3.23930817" ry="3.61199948"></ellipse>
                                            <ellipse id="Oval-Copy-5" transform="translate(135.344016, 78.854095) rotate(-29.000000) translate(-135.344016, -78.854095) " cx="135.344016" cy="78.8540953" rx="3.23692368" ry="3.97610468"></ellipse>
                                            <ellipse id="Oval-Copy-6" transform="translate(150.729645, 89.546391) rotate(-29.000000) translate(-150.729645, -89.546391) " cx="150.729645" cy="89.5463907" rx="3.59657342" ry="3.97610979"></ellipse>
                                            <ellipse id="Oval-Copy-7" transform="translate(167.466692, 99.548573) rotate(-29.000000) translate(-167.466692, -99.548573) " cx="167.466692" cy="99.5485727" rx="3.23691674" ry="3.61464478"></ellipse>
                                            <ellipse id="Oval-Copy-8" transform="translate(185.148020, 108.717822) rotate(-29.000000) translate(-185.148020, -108.717822) " cx="185.14802" cy="108.717822" rx="3.56060841" ry="3.97610926"></ellipse>
                                        </g>
                                    </g>
                                </g>
                            </g>
                        </g>
                    </g>
                    <rect id="Rectangle" mask="url(#mask-2)" x="0" y="0" width="1440" height="904"></rect>
                </g>
            </g>
        </g>
    </g>
</svg>