<?xml version="1.0" encoding="UTF-8"?>
<svg width="360px" height="360px" viewBox="0 0 360 360" version="1.1" xmlns="http://www.w3.org/2000/svg" xmlns:xlink="http://www.w3.org/1999/xlink">
    <!-- Generator: Sketch 53.2 (72643) - https://sketchapp.com -->
    <title>Bitmap</title>
    <desc>Created with Sketch.</desc>
    <defs>
        <rect id="path-1" x="0" y="0" width="360" height="360"></rect>
    </defs>
    <g id="Homepage" stroke="none" stroke-width="1" fill="none" fill-rule="evenodd">
        <g id="🖥--Homepage---Image-placeholder" transform="translate(-930.000000, -4184.000000)">
            <g id="Collection-list" transform="translate(150.000000, 4112.000000)">
                <g id="Bitmap" transform="translate(780.000000, 72.000000)">
                    <mask id="mask-2" fill="white">
                        <use xlink:href="#path-1"></use>
                    </mask>
                    <use id="Mask" fill="#BFBFBF" xlink:href="#path-1"></use>
                    <g id="Camera" mask="url(#mask-2)">
                        <g transform="translate(41.000000, 80.000000)">
                            <g id="Group-19">
                                <path d="M35.4457346,169.577412 C35.368762,169.584112 35.3083911,169.64873 35.3084263,169.727328 L35.3119182,174.93599 C35.3119554,175.019074 35.3792996,175.086419 35.4625629,175.086456 L38.7204014,175.089075 C38.7204687,175.089075 38.7204687,175.089075 38.720536,175.089075 C38.8036733,175.089038 38.8710393,175.021611 38.8710022,174.938586 L38.8675102,169.729924 C38.8674731,169.64684 38.8001288,169.579495 38.7169548,169.579458 L35.4457346,169.577412 Z" id="Rectangle" stroke="#777777" transform="translate(37.089714, 172.332957) rotate(-300.000000) translate(-37.089714, -172.332957) "></path>
                                <path d="M42.5345474,121.061091 C42.4514705,121.061134 42.3841339,121.12847 42.3840913,121.211547 L42.3814168,126.422128 C42.3814167,126.422205 42.3814167,126.422205 42.3814168,126.422283 C42.3814595,126.50542 42.4488902,126.572782 42.5320275,126.572739 L45.7886222,126.571067 C45.8716992,126.571024 45.9390357,126.503688 45.9390784,126.420611 L45.9417529,121.21003 C45.9417529,121.209953 45.9417529,121.209953 45.9417529,121.209875 C45.9417102,121.126738 45.8742795,121.059376 45.7911422,121.059419 L42.5345474,121.061091 Z" id="Rectangle-Copy-21" stroke="#777777" transform="translate(44.161585, 123.816079) rotate(-222.000000) translate(-44.161585, -123.816079) "></path>
                                <path d="M95.301613,176.392469 C95.2185364,176.392512 95.1512001,176.459848 95.1511573,176.542925 L95.1484697,181.753038 C95.1484697,181.753115 95.1484697,181.753115 95.1484697,181.753193 C95.1485126,181.83633 95.2159435,181.903692 95.2990808,181.903649 L98.5560036,181.901969 C98.6390802,181.901926 98.7064165,181.83459 98.7064593,181.751513 L98.7091469,176.5414 C98.7091469,176.541323 98.7091469,176.541323 98.7091469,176.541245 C98.709104,176.458108 98.6416731,176.390746 98.5585358,176.390789 L95.301613,176.392469 Z" id="Rectangle-Copy-19" stroke="#777777" transform="translate(96.928808, 179.147219) rotate(-226.000000) translate(-96.928808, -179.147219) "></path>
                                <path d="M101.250122,165.572646 L101.252559,171.737449 L104.659576,171.740142 C104.66015,171.740142 104.66015,171.740142 104.660724,171.740142 C105.462421,171.739825 106.112067,171.089665 106.111751,170.288441 L106.107375,167.026366 C106.107058,166.225118 105.457597,165.575657 104.656151,165.57534 L101.250122,165.572646 Z" id="Rectangle-Copy-20" stroke="#777777" transform="translate(103.680837, 168.656196) rotate(-335.000000) translate(-103.680837, -168.656196) "></path>
                                <ellipse id="Oval" stroke="#777777" cx="103.41852" cy="168.729642" rx="1.3015873" ry="1.3029316"></ellipse>
                                <path d="M31.6804252,51.6172638 L104.870901,51.6172638 L104.870901,2.60213375 C104.870901,1.44115734 103.929744,0.5 102.768768,0.5 L33.782559,0.5 C32.6215825,0.5 31.6804252,1.44115734 31.6804252,2.60213375 L31.6804252,51.6172638 Z" id="Rectangle" stroke="#777777"></path>
                                <path d="M27.198653,51.965798 C26.1524964,51.965798 25.2655474,52.735073 25.117636,53.7707205 L20.6169331,85.2482593 L20.6169331,193.494666 C20.6169331,196.81132 23.3056129,199.5 26.6222675,199.5 L111.230646,199.5 C114.547301,199.5 117.235981,196.81132 117.235981,193.494666 L117.243619,85.3376821 L111.649651,53.7019022 C111.472086,52.6977106 110.599399,51.965798 109.57963,51.965798 L27.198653,51.965798 Z" id="Rectangle-Copy-18" stroke="#777777"></path>
                                <ellipse id="Oval" stroke="#777777" cx="69.5772506" cy="95.1140065" rx="22.1269841" ry="22.1498371"></ellipse>
                                <ellipse id="Oval-Copy-26" stroke="#777777" cx="69.5772506" cy="95.1140065" rx="13.6666667" ry="13.6807818"></ellipse>
                                <ellipse id="Oval-Copy-28" stroke="#777777" cx="69.5772506" cy="95.1140065" rx="2.6031746" ry="2.60586319"></ellipse>
                                <ellipse id="Oval-Copy-24" stroke="#777777" cx="69.5772506" cy="152.442997" rx="35.1428571" ry="35.1791531"></ellipse>
                                <ellipse id="Oval-Copy-25" stroke="#777777" cx="69.5772506" cy="152.442997" rx="18.2222222" ry="18.2410423"></ellipse>
                                <ellipse id="Oval-Copy-27" stroke="#777777" cx="69.5772506" cy="152.442997" rx="3.25396825" ry="3.25732899"></ellipse>
                                <rect id="Rectangle" stroke="#777777" x="17.3629649" y="143.17101" width="2.9047619" height="33.5276873"></rect>
                                <polyline id="Path-63" stroke="#777777" points="16.8629649 161.524179 14.2950489 161.524179 10.6701903 182.153904 2.62482899 191.546089 2.27373675e-13 189.349 7.90156576 180.037459 10.6701903 182.153904"></polyline>
                                <rect id="Rectangle" stroke="#777777" x="117.585187" y="152.942997" width="4.85714286" height="13.9837134"></rect>
                                <rect id="Rectangle" stroke="#777777" x="44.6962982" y="7.01465798" width="47.8095238" height="38.0879479" rx="2.60213375"></rect>
                                <rect id="Rectangle-Copy-22" stroke="#777777" x="49.9026474" y="20.4348534" width="37.3968254" height="9.42345277" rx="2.60213375"></rect>
                                <path d="M20.7677268,85.253476 L49.7399186,85.253476" id="Path-64" stroke="#777777"></path>
                                <path d="M89.4058715,85.253476 L117.36333,85.253476" id="Path-65" stroke="#777777"></path>
                                <path d="M8.43148244,96.4150734 L8.43148244,121.186802 C8.43148244,121.905362 9.01398992,122.487869 9.73254932,122.487869 L16.2659895,122.487869 C16.6449781,122.487869 17.0051292,122.322619 17.2522938,122.035318 L20.1169331,118.705496 L20.1169331,98.7930413 L17.2513302,95.5531041 C17.0043744,95.2738883 16.6495197,95.1140065 16.2767616,95.1140065 L9.73254932,95.1140065 C9.01398992,95.1140065 8.43148244,95.696514 8.43148244,96.4150734 Z" id="Path-66" stroke="#777777"></path>
                                <path d="M16.8629649,95.1140065 L16.8629649,122.487869" id="Path-67" stroke="#777777"></path>
                            </g>
                            <g id="Group-18" transform="translate(128.000000, 120.000000)">
                                <path d="M66.3357997,6.98387097 L68.579932,4.72782018 L68.579932,1.03225806 C68.579932,0.738300053 68.3416319,0.5 68.0476739,0.5 L47.2567479,0.5 C46.9627898,0.5 46.7244898,0.738300053 46.7244898,1.03225806 L46.7244898,6.4516129 C46.7244898,6.74557092 46.9627898,6.98387097 47.2567479,6.98387097 L66.3357997,6.98387097 Z" id="Rectangle-Copy-17" stroke="#777777"></path>
                                <path d="M8.22778144,7.6131813 C7.36372304,7.6131813 6.66326531,8.31363903 6.66326531,9.17769743 L6.66326531,77.9354839 C6.66326531,78.7995423 7.36372304,79.5 8.22778144,79.5 L142.772219,79.5 C143.636277,79.5 144.336735,78.7995423 144.336735,77.9354839 L144.336735,3.35483871 C144.336735,2.49078031 143.636277,1.79032258 142.772219,1.79032258 L72.1742732,1.79032258 C71.7563506,1.79032258 71.3557998,1.95753007 71.0619162,2.25466929 L66.5149208,6.85203566 C66.0331941,7.33909892 65.3766212,7.6131813 64.6915729,7.6131813 L8.22778144,7.6131813 Z" id="Rectangle" stroke="#777777"></path>
                                <path d="M6.42006803,18.9677419 L60.0918367,18.9677419" id="Path-55" stroke="#777777"></path>
                                <path d="M114,18.9677419 L144,18.9677419" id="Path-55-Copy" stroke="#777777"></path>
                                <g id="Rectangle-2" transform="translate(0.000000, 15.225806)" stroke="#777777">
                                    <path d="M5.92006803,6.98387097 L5.92006803,0.5 L2.58064516,0.5 C1.43153657,0.5 0.5,1.43153657 0.5,2.58064516 L0.5,4.90322581 C0.5,6.0523344 1.43153657,6.98387097 2.58064516,6.98387097 L5.92006803,6.98387097 Z" id="Rectangle"></path>
                                </g>
                                <g id="Rectangle-2-Copy" transform="translate(147.500000, 19.225806) scale(-1, 1) translate(-147.500000, -19.225806) translate(144.000000, 15.225806)" stroke="#777777">
                                    <path d="M5.92006803,6.98387097 L5.92006803,0.5 L2.58064516,0.5 C1.43153657,0.5 0.5,1.43153657 0.5,2.58064516 L0.5,4.90322581 C0.5,6.0523344 1.43153657,6.98387097 2.58064516,6.98387097 L5.92006803,6.98387097 Z" id="Rectangle"></path>
                                    <ellipse id="Oval-Copy-23" cx="3.21003401" cy="3.74193548" rx="1.92602041" ry="1.93548387"></ellipse>
                                </g>
                                <ellipse id="Oval" stroke="#777777" cx="3.21003401" cy="18.9677419" rx="1.92602041" ry="1.93548387"></ellipse>
                                <ellipse id="Oval" stroke="#777777" cx="87.1845238" cy="43.2258065" rx="36.0943878" ry="36.2741935"></ellipse>
                                <ellipse id="Oval-Copy-20" stroke="#777777" cx="87.0561224" cy="43.2258065" rx="28.2619048" ry="28.4032258"></ellipse>
                                <ellipse id="Oval-Copy-21" stroke="#777777" cx="87.0561224" cy="43.2258065" rx="26.4642857" ry="26.5967742"></ellipse>
                                <ellipse id="Oval-Copy-22" stroke="#777777" cx="87.0561224" cy="43.2258065" rx="4.63605442" ry="4.66129032"></ellipse>
                                <rect id="Rectangle" stroke="#777777" x="29.2619048" y="1.79032258" width="15.4353741" height="5.19354839" rx="1.03225806"></rect>
                                <rect id="Rectangle-Copy-16" stroke="#777777" x="33.1139456" y="1.27419355" width="7.98809524" height="1" rx="0.5"></rect>
                                <rect id="Rectangle-Copy-15" stroke="#777777" x="10.0017007" y="4.62903226" width="17.7465986" height="2.35483871" rx="1.03225806"></rect>
                                <ellipse id="Oval" stroke="#777777" cx="49.3061224" cy="13.1612903" rx="2.56802721" ry="2.58064516"></ellipse>
                            </g>
                            <g id="Group-20" transform="translate(143.000000, 34.000000)">
                                <path d="M114.588737,18.745112 L114.588737,41.254888 L119.541984,38.6461355 C120.746167,38.0119218 121.5,36.7629029 121.5,35.4019162 L121.5,24.5980838 C121.5,23.2370971 120.746167,21.9880782 119.541984,21.3538645 L114.588737,18.745112 Z" id="Rectangle" stroke="#777777"></path>
                                <rect id="Rectangle" stroke="#777777" x="5.08020478" y="0.5" width="52.7133106" height="59" rx="2.5"></rect>
                                <path d="M58.3771331,4.25 L58.3771331,56.1666667 L77.4453925,56.1666667 C78.549962,56.1666667 79.4453925,55.2712362 79.4453925,54.1666667 L79.4453925,6.25 C79.4453925,5.1454305 78.549962,4.25 77.4453925,4.25 L58.3771331,4.25 Z" id="Rectangle" stroke="#777777"></path>
                                <path d="M80.0290102,8.83333333 L80.0290102,51.5833333 L110.338453,51.5833333 C112.363497,51.5833333 114.005119,49.9417107 114.005119,47.9166667 L114.005119,12.5 C114.005119,10.4749559 112.363497,8.83333333 110.338453,8.83333333 L80.0290102,8.83333333 Z" id="Rectangle-Copy-24" stroke="#777777"></path>
                                <path d="M4.49658703,55.3333333 L4.49658703,5.08333333 L2.5,5.08333333 C1.3954305,5.08333333 0.5,5.97876383 0.5,7.08333333 L0.5,53.3333333 C0.5,54.4379028 1.3954305,55.3333333 2.5,55.3333333 L4.49658703,55.3333333 Z" id="Rectangle-Copy-23" stroke="#777777"></path>
                                <path d="M14.78157,0.5 L14.78157,59.5" id="Path-68" stroke="#777777" stroke-linecap="round"></path>
                                <path d="M43.8677986,0.5 L43.9283276,59.5" id="Path-68-Copy" stroke="#777777" stroke-linecap="round"></path>
                                <path d="M40.5666244,10.8461426 L47.1689727,10.8461426" id="Path-69" stroke="#777777" stroke-linecap="round"></path>
                                <path d="M43.9283276,21.313597 L47.1689727,21.313597" id="Path-70" stroke="#777777" stroke-linecap="round"></path>
                                <path d="M43.9283276,26.875 L47.1689727,26.875" id="Path-70-Copy" stroke="#777777" stroke-linecap="round"></path>
                                <path d="M66.1753543,4.58333333 L66.1753543,55.8333333" id="Path-71" stroke="#777777" stroke-linecap="round"></path>
                                <path d="M66.1753543,7.12336283 L68.9112628,7.12336283" id="Path-72" stroke="#777777" stroke-linecap="round"></path>
                                <path d="M66.1753543,10.2083333 L68.9112628,10.2083333" id="Path-72-Copy" stroke="#777777" stroke-linecap="round"></path>
                                <path d="M66.1753543,13.125 L68.9112628,13.125" id="Path-72-Copy-2" stroke="#777777" stroke-linecap="round"></path>
                                <path d="M66.1753543,16.0416667 L68.9112628,16.0416667" id="Path-72-Copy-3" stroke="#777777" stroke-linecap="round"></path>
                                <path d="M66.1753543,18.9583333 L68.9112628,18.9583333" id="Path-72-Copy-4" stroke="#777777" stroke-linecap="round"></path>
                                <path d="M66.1753543,21.875 L68.9112628,21.875" id="Path-72-Copy-5" stroke="#777777" stroke-linecap="round"></path>
                                <path d="M66.1753543,24.7916667 L68.9112628,24.7916667" id="Path-72-Copy-6" stroke="#777777" stroke-linecap="round"></path>
                                <path d="M66.1753543,27.7083333 L68.9112628,27.7083333" id="Path-72-Copy-7" stroke="#777777" stroke-linecap="round"></path>
                                <path d="M66.1753543,30.625 L68.9112628,30.625" id="Path-72-Copy-8" stroke="#777777" stroke-linecap="round"></path>
                                <path d="M66.1753543,33.5416667 L68.9112628,33.5416667" id="Path-72-Copy-9" stroke="#777777" stroke-linecap="round"></path>
                                <path d="M66.1753543,36.4583333 L68.9112628,36.4583333" id="Path-72-Copy-10" stroke="#777777" stroke-linecap="round"></path>
                                <path d="M66.1753543,39.375 L68.9112628,39.375" id="Path-72-Copy-11" stroke="#777777" stroke-linecap="round"></path>
                                <path d="M66.1753543,42.2916667 L68.9112628,42.2916667" id="Path-72-Copy-12" stroke="#777777" stroke-linecap="round"></path>
                                <path d="M66.1753543,45.2083333 L68.9112628,45.2083333" id="Path-72-Copy-13" stroke="#777777" stroke-linecap="round"></path>
                                <path d="M66.1753543,48.125 L68.9112628,48.125" id="Path-72-Copy-14" stroke="#777777" stroke-linecap="round"></path>
                                <path d="M66.1753543,51.0416667 L68.9112628,51.0416667" id="Path-72-Copy-15" stroke="#777777" stroke-linecap="round"></path>
                                <path d="M66.1753543,53.9583333 L68.9112628,53.9583333" id="Path-72-Copy-16" stroke="#777777" stroke-linecap="round"></path>
                                <path d="M85.4487697,9.5 L85.4487697,51.0416667" id="Path-73" stroke="#777777" stroke-linecap="round"></path>
                                <path d="M94.7269625,9.5 L94.7269625,51.0416667" id="Path-73-Copy" stroke="#777777" stroke-linecap="round"></path>
                                <path d="M107.634812,9.5 L107.634812,51.0416667" id="Path-73-Copy-2" stroke="#777777" stroke-linecap="round"></path>
                                <path d="M94.7269625,12.1817292 L97.0170648,12.1817292" id="Path-74" stroke="#777777" stroke-linecap="round"></path>
                                <path d="M94.7269625,15.2083333 L97.0170648,15.2083333" id="Path-74-Copy" stroke="#777777" stroke-linecap="round"></path>
                                <path d="M94.7269625,18.125 L97.0170648,18.125" id="Path-74-Copy-2" stroke="#777777" stroke-linecap="round"></path>
                                <path d="M94.7269625,21.0416667 L97.0170648,21.0416667" id="Path-74-Copy-3" stroke="#777777" stroke-linecap="round"></path>
                                <path d="M94.7269625,23.9583333 L97.0170648,23.9583333" id="Path-74-Copy-4" stroke="#777777" stroke-linecap="round"></path>
                                <path d="M94.7269625,26.875 L97.0170648,26.875" id="Path-74-Copy-5" stroke="#777777" stroke-linecap="round"></path>
                                <path d="M94.7269625,29.7916667 L97.0170648,29.7916667" id="Path-74-Copy-6" stroke="#777777" stroke-linecap="round"></path>
                                <path d="M94.7269625,32.7083333 L97.0170648,32.7083333" id="Path-74-Copy-7" stroke="#777777" stroke-linecap="round"></path>
                                <path d="M94.7269625,35.625 L97.0170648,35.625" id="Path-74-Copy-8" stroke="#777777" stroke-linecap="round"></path>
                                <path d="M94.7269625,38.5416667 L97.0170648,38.5416667" id="Path-74-Copy-9" stroke="#777777" stroke-linecap="round"></path>
                                <path d="M94.7269625,41.4583333 L97.0170648,41.4583333" id="Path-74-Copy-10" stroke="#777777" stroke-linecap="round"></path>
                                <path d="M94.7269625,44.375 L97.0170648,44.375" id="Path-74-Copy-11" stroke="#777777" stroke-linecap="round"></path>
                                <path d="M94.7269625,47.2916667 L97.0170648,47.2916667" id="Path-74-Copy-12" stroke="#777777" stroke-linecap="round"></path>
                                <path d="M94.7269625,50.2083333 L97.0170648,50.2083333" id="Path-74-Copy-13" stroke="#777777" stroke-linecap="round"></path>
                            </g>
                        </g>
                    </g>
                </g>
            </g>
        </g>
    </g>
</svg>