<?xml version="1.0" encoding="UTF-8"?>
<svg width="262px" height="262px" viewBox="0 0 262 262" version="1.1" xmlns="http://www.w3.org/2000/svg" xmlns:xlink="http://www.w3.org/1999/xlink">
    <!-- Generator: Sketch 53.2 (72643) - https://sketchapp.com -->
    <title>img</title>
    <desc>Created with Sketch.</desc>
    <defs>
        <rect id="path-1" x="0" y="0" width="262" height="262"></rect>
    </defs>
    <g id="Collection-page" stroke="none" stroke-width="1" fill="none" fill-rule="evenodd">
        <g id="🖥--Collection-page---Image-placeholder" transform="translate(-444.000000, -658.000000)">
            <g id="Product-Copy-5" transform="translate(444.000000, 658.000000)">
                <g id="img">
                    <mask id="mask-2" fill="white">
                        <use xlink:href="#path-1"></use>
                    </mask>
                    <use id="Rectangle" fill="#BFBFBF" xlink:href="#path-1"></use>
                    <g id="High-heels" mask="url(#mask-2)" stroke="#777777">
                        <g transform="translate(55.000000, 71.000000)">
                            <path d="" id="Path-2"></path>
                            <path d="M4.59696697,100.606241 C2.10519145,101.106911 0.395201356,101.504052 0.395201356,105.507635 C0.395201356,109.511219 20.9378585,119.108718 51.8768385,119.108718 C91.3430096,119.165106 82.1325757,87.3100089 123.608442,66.5687327 C123.79408,73.6008486 123.79408,91.1141769 123.608442,119.108718 C137.19679,120.378046 144.389819,119.289337 145.187528,115.84259 C145.985238,112.395843 148.434581,90.5775528 152.535558,50.3877198 C154.507878,34.2080579 148.13588,17.454653 133.419564,0.127505141 C127.195121,5.77513333 88.8360904,18.0964331 76.6402014,20.692268 C77.056699,24.0290124 77.5436212,26.3486752 78.1009679,27.6512565 L125.796768,12.4125916 C129.256085,20.6395941 127.285981,35.2308092 119.886456,56.1862367 C81.8323097,77.8533104 80.2306305,99.4079034 63.3357132,101.323367 C56.6285802,87.4027358 50.4892452,84.3656656 49.2851914,83.9541785 C47.7207665,83.0984455 41.4363983,85.52192 30.4320867,91.224602 C28.6500343,93.4483504 27.7590081,96.5755635 27.7590081,100.606241 C21.6231801,100.329956 8.68115847,99.7005356 4.59696697,100.606241 Z" id="Path-3"></path>
                            <path d="M50.077506,116.076872 C43.7499573,93.9827431 44.0918898,83.6175272 51.1033032,84.9812244" id="Path-4"></path>
                            <path d="M48.8452014,112.398713 C66.89575,113.646729 73.1490033,105.611143 82.822314,92.547326 C91.5871135,80.29776 103.314553,67.5222361 119.225201,60.8869988" id="Path-5"></path>
                            <path d="M129.625062,10.2540874 C133.495607,19.1712932 133.437728,29.0605896 129.451427,39.9219767 C122.75694,56.5568239 118.507025,58.6727737 117.185201,69.4945937" id="Path-6"></path>
                            <path d="M123.305201,115.795772 C135.342737,117.049833 142.652737,116.80598 145.235201,115.064214" id="Path-7"></path>
                            <path d="" id="Path-9"></path>
                            <path d="M125.855201,12.2794039 C133.897975,8.53861527 137.616804,5.83819333 137.011689,4.17813805" id="Path-10"></path>
                            <path d="M3.57430395,100.886999 C1.41001652,103.067237 2.32982799,104.884479 6.33373835,106.338725 C10.3376487,107.792972 17.8781364,109.351257 28.9552014,111.013581" id="Path-11"></path>
                            <path d="M30.09,115.443038 C28.7498817,110.609202 27.9653561,105.618053 27.7364232,100.46959" id="Path-12"></path>
                            <path d="M46.6137568,101.344451 L63.2505992,101.333794" id="Path-13"></path>
                        </g>
                    </g>
                </g>
            </g>
        </g>
    </g>
</svg>