<?xml version="1.0" encoding="UTF-8"?>
<svg width="262px" height="262px" viewBox="0 0 262 262" version="1.1" xmlns="http://www.w3.org/2000/svg" xmlns:xlink="http://www.w3.org/1999/xlink">
    <!-- Generator: Sketch 53.2 (72643) - https://sketchapp.com -->
    <title>img</title>
    <desc>Created with Sketch.</desc>
    <defs>
        <rect id="path-1" x="0" y="0" width="262" height="262"></rect>
    </defs>
    <g id="Collection-page" stroke="none" stroke-width="1" fill="none" fill-rule="evenodd">
        <g id="🖥--Collection-page---Image-placeholder" transform="translate(-736.000000, -658.000000)">
            <g id="Product-Copy-6" transform="translate(736.000000, 658.000000)">
                <g id="img">
                    <mask id="mask-2" fill="white">
                        <use xlink:href="#path-1"></use>
                    </mask>
                    <use id="Rectangle" fill="#BFBFBF" xlink:href="#path-1"></use>
                    <g id="Lens" mask="url(#mask-2)" stroke="#777777">
                        <g transform="translate(41.000000, 87.000000)">
                            <path d="M168.827645,27.1039371 L168.827645,60.8960629 L176.471955,56.8938517 C178.333466,55.9192498 179.5,53.9917643 179.5,51.890557 L179.5,36.109443 C179.5,34.0082357 178.333466,32.0807502 176.471955,31.1061483 L168.827645,27.1039371 Z" id="Rectangle"></path>
                            <rect id="Rectangle" x="7.25767918" y="0.5" width="78.2491468" height="87" rx="3.68852459"></rect>
                            <path d="M85.8924915,6 L85.8924915,82.6111111 L114.263694,82.6111111 C116.024667,82.6111111 117.452218,81.18356 117.452218,79.4225865 L117.452218,9.18852459 C117.452218,7.42755108 116.024667,6 114.263694,6 L85.8924915,6 Z" id="Rectangle"></path>
                            <path d="M117.837884,12.7222222 L117.837884,75.8888889 L162.794439,75.8888889 C165.913489,75.8888889 168.44198,73.3603987 168.44198,70.2413479 L168.44198,18.3697632 C168.44198,15.2507124 165.913489,12.7222222 162.794439,12.7222222 L117.837884,12.7222222 Z" id="Rectangle-Copy-24"></path>
                            <path d="M6.87201365,81.3888889 L6.87201365,7.22222222 L3.68852459,7.22222222 C1.92755108,7.22222222 0.5,8.64977331 0.5,10.4107468 L0.5,78.2003643 C0.5,79.9613378 1.92755108,81.3888889 3.68852459,81.3888889 L6.87201365,81.3888889 Z" id="Rectangle-Copy-23"></path>
                            <path d="M21.8088737,0.733333333 L21.8088737,87.2666667" id="Path-68" stroke-linecap="round"></path>
                            <path d="M64.7229815,0.733333333 L64.8122867,87.2666667" id="Path-68-Copy" stroke-linecap="round"></path>
                            <path d="M59.8523967,15.9076759 L69.5935662,15.9076759" id="Path-69" stroke-linecap="round"></path>
                            <path d="M64.8122867,31.2599422 L69.5935662,31.2599422" id="Path-70" stroke-linecap="round"></path>
                            <path d="M64.8122867,39.4166667 L69.5935662,39.4166667" id="Path-70-Copy" stroke-linecap="round"></path>
                            <path d="M97.6357686,6.72222222 L97.6357686,81.8888889" id="Path-71" stroke-linecap="round"></path>
                            <path d="M97.6357686,10.4475988 L101.672355,10.4475988" id="Path-72" stroke-linecap="round"></path>
                            <path d="M97.6357686,14.9722222 L101.672355,14.9722222" id="Path-72-Copy" stroke-linecap="round"></path>
                            <path d="M97.6357686,19.25 L101.672355,19.25" id="Path-72-Copy-2" stroke-linecap="round"></path>
                            <path d="M97.6357686,23.5277778 L101.672355,23.5277778" id="Path-72-Copy-3" stroke-linecap="round"></path>
                            <path d="M97.6357686,27.8055556 L101.672355,27.8055556" id="Path-72-Copy-4" stroke-linecap="round"></path>
                            <path d="M97.6357686,32.0833333 L101.672355,32.0833333" id="Path-72-Copy-5" stroke-linecap="round"></path>
                            <path d="M97.6357686,36.3611111 L101.672355,36.3611111" id="Path-72-Copy-6" stroke-linecap="round"></path>
                            <path d="M97.6357686,40.6388889 L101.672355,40.6388889" id="Path-72-Copy-7" stroke-linecap="round"></path>
                            <path d="M97.6357686,44.9166667 L101.672355,44.9166667" id="Path-72-Copy-8" stroke-linecap="round"></path>
                            <path d="M97.6357686,49.1944444 L101.672355,49.1944444" id="Path-72-Copy-9" stroke-linecap="round"></path>
                            <path d="M97.6357686,53.4722222 L101.672355,53.4722222" id="Path-72-Copy-10" stroke-linecap="round"></path>
                            <path d="M97.6357686,57.75 L101.672355,57.75" id="Path-72-Copy-11" stroke-linecap="round"></path>
                            <path d="M97.6357686,62.0277778 L101.672355,62.0277778" id="Path-72-Copy-12" stroke-linecap="round"></path>
                            <path d="M97.6357686,66.3055556 L101.672355,66.3055556" id="Path-72-Copy-13" stroke-linecap="round"></path>
                            <path d="M97.6357686,70.5833333 L101.672355,70.5833333" id="Path-72-Copy-14" stroke-linecap="round"></path>
                            <path d="M97.6357686,74.8611111 L101.672355,74.8611111" id="Path-72-Copy-15" stroke-linecap="round"></path>
                            <path d="M97.6357686,79.1388889 L101.672355,79.1388889" id="Path-72-Copy-16" stroke-linecap="round"></path>
                            <path d="M126.071955,13.9333333 L126.071955,74.8611111" id="Path-73" stroke-linecap="round"></path>
                            <path d="M139.761092,13.9333333 L139.761092,74.8611111" id="Path-73-Copy" stroke-linecap="round"></path>
                            <path d="M158.805461,13.9333333 L158.805461,74.8611111" id="Path-73-Copy-2" stroke-linecap="round"></path>
                            <path d="M139.761092,17.8665362 L143.139932,17.8665362" id="Path-74" stroke-linecap="round"></path>
                            <path d="M139.761092,22.3055556 L143.139932,22.3055556" id="Path-74-Copy" stroke-linecap="round"></path>
                            <path d="M139.761092,26.5833333 L143.139932,26.5833333" id="Path-74-Copy-2" stroke-linecap="round"></path>
                            <path d="M139.761092,30.8611111 L143.139932,30.8611111" id="Path-74-Copy-3" stroke-linecap="round"></path>
                            <path d="M139.761092,35.1388889 L143.139932,35.1388889" id="Path-74-Copy-4" stroke-linecap="round"></path>
                            <path d="M139.761092,39.4166667 L143.139932,39.4166667" id="Path-74-Copy-5" stroke-linecap="round"></path>
                            <path d="M139.761092,43.6944444 L143.139932,43.6944444" id="Path-74-Copy-6" stroke-linecap="round"></path>
                            <path d="M139.761092,47.9722222 L143.139932,47.9722222" id="Path-74-Copy-7" stroke-linecap="round"></path>
                            <path d="M139.761092,52.25 L143.139932,52.25" id="Path-74-Copy-8" stroke-linecap="round"></path>
                            <path d="M139.761092,56.5277778 L143.139932,56.5277778" id="Path-74-Copy-9" stroke-linecap="round"></path>
                            <path d="M139.761092,60.8055556 L143.139932,60.8055556" id="Path-74-Copy-10" stroke-linecap="round"></path>
                            <path d="M139.761092,65.0833333 L143.139932,65.0833333" id="Path-74-Copy-11" stroke-linecap="round"></path>
                            <path d="M139.761092,69.3611111 L143.139932,69.3611111" id="Path-74-Copy-12" stroke-linecap="round"></path>
                            <path d="M139.761092,73.6388889 L143.139932,73.6388889" id="Path-74-Copy-13" stroke-linecap="round"></path>
                        </g>
                    </g>
                </g>
            </g>
        </g>
    </g>
</svg>