<?xml version="1.0" encoding="UTF-8"?>
<svg width="555px" height="555px" viewBox="0 0 555 555" version="1.1" xmlns="http://www.w3.org/2000/svg" xmlns:xlink="http://www.w3.org/1999/xlink">
    <!-- Generator: Sketch 53.2 (72643) - https://sketchapp.com -->
    <title>Bitmap</title>
    <desc>Created with Sketch.</desc>
    <defs>
        <rect id="path-1" x="0" y="0" width="555" height="555"></rect>
    </defs>
    <g id="Product-page" stroke="none" stroke-width="1" fill="none" fill-rule="evenodd">
        <g id="🖥--Product-detail---Product-detail---image-displaying-when-there-are-nothing-to-show" transform="translate(-150.000000, -188.000000)">
            <g id="Bitmap" transform="translate(150.000000, 188.000000)">
                <mask id="mask-2" fill="white">
                    <use xlink:href="#path-1"></use>
                </mask>
                <use id="Mask" fill="#F4F4F4" xlink:href="#path-1"></use>
                <g id="camera-ban" mask="url(#mask-2)" fill="#DFDFDF" fill-rule="nonzero">
                    <g transform="translate(246.000000, 246.000000)" id="Path">
                        <path d="M5.32916992,53.3333333 L6.13707208,53.3333333 L20.9660203,38.4928 C19.8415654,36.5877333 19.1850117,34.3733333 19.1850117,32 C19.1850117,24.9312 24.9117377,19.2 31.9750195,19.2 C34.3465001,19.2 36.5591715,19.8570667 38.462751,20.9824 L46.3637783,12.8 L40.2885246,4.69333333 C40.087082,4.42453333 39.7705293,4.26666667 39.4358574,4.26666667 L24.5141816,4.26666667 C24.1795098,4.26666667 23.8629571,4.42453333 23.6615144,4.69333333 L17.5862607,12.8 L5.32916992,12.8 C2.97794015,12.8 1.06583398,14.7136 1.06583398,17.0666667 L1.06583398,49.0666667 C1.06583398,51.4197333 2.97794015,53.3333333 5.32916992,53.3333333 Z"></path>
                        <path d="M58.6208691,12.8 L55.681299,12.8 L42.9840187,25.5072 C44.1084736,27.4122667 44.7650273,29.6266667 44.7650273,32 C44.7650273,39.0688 39.0383013,44.8 31.9750195,44.8 C29.6035389,44.8 27.3908676,44.1429333 25.4872881,43.0176 L15.1796076,53.3333333 L58.6208691,53.3333333 C60.9720989,53.3333333 62.884205,51.4197333 62.884205,49.0666667 L62.884205,17.0666667 C62.884205,14.7136 60.9720989,12.8 58.6208691,12.8 Z"></path>
                        <path d="M1.06583398,64 C0.792980484,64 0.520126984,63.8954667 0.312289357,63.6874667 C-0.10445173,63.2704 -0.10445173,62.5962667 0.312289357,62.1792 L62.1306604,0.312533333 C62.5474015,-0.104533333 63.2210086,-0.104533333 63.6377497,0.312533333 C64.0544908,0.7296 64.0544908,1.40373333 63.6377497,1.8208 L1.81937861,63.6874667 C1.61154098,63.8954667 1.33868748,64 1.06583398,64 Z"></path>
                    </g>
                </g>
            </g>
        </g>
    </g>
</svg>