<?xml version="1.0" encoding="UTF-8"?>
<svg width="262px" height="262px" viewBox="0 0 262 262" version="1.1" xmlns="http://www.w3.org/2000/svg" xmlns:xlink="http://www.w3.org/1999/xlink">
    <!-- Generator: Sketch 53.2 (72643) - https://sketchapp.com -->
    <title>img</title>
    <desc>Created with Sketch.</desc>
    <defs>
        <rect id="path-1" x="0" y="0" width="262" height="262"></rect>
    </defs>
    <g id="Homepage" stroke="none" stroke-width="1" fill="none" fill-rule="evenodd">
        <g id="🖥--Homepage---Image-placeholder" transform="translate(-1027.000000, -3162.000000)">
            <g id="Feature-collection" transform="translate(150.000000, 3090.000000)">
                <g id="Product-Copy-3" transform="translate(877.000000, 72.000000)">
                    <g id="img">
                        <mask id="mask-2" fill="white">
                            <use xlink:href="#path-1"></use>
                        </mask>
                        <use id="Rectangle" fill="#BFBFBF" xlink:href="#path-1"></use>
                        <g id="Group-19" mask="url(#mask-2)" stroke="#777777">
                            <g transform="translate(82.000000, 51.000000)">
                                <path d="M28.5512442,135.753475 C28.5399977,135.7535 28.5308868,135.762611 28.5308622,135.773858 L28.5217159,139.9645 C28.5217159,139.964544 28.5217159,139.964544 28.5217159,139.964589 C28.5217406,139.97587 28.530906,139.984996 28.5421873,139.984971 L31.1541494,139.979256 C31.1653959,139.979231 31.1745068,139.97012 31.1745314,139.958874 L31.1836777,135.768232 C31.1836778,135.768187 31.1836778,135.768187 31.1836777,135.768142 C31.183653,135.756861 31.1744877,135.747736 31.1632063,135.74776 L28.5512442,135.753475 Z" id="Rectangle" transform="translate(29.852697, 137.866366) rotate(-300.000000) translate(-29.852697, -137.866366) "></path>
                                <path d="M34.2307223,96.9378183 C34.230671,96.9378182 34.230671,96.9378182 34.2306198,96.9378183 C34.2193384,96.9378466 34.2102161,96.9470149 34.2102444,96.9582962 L34.2207438,101.140966 C34.220772,101.152207 34.2298779,101.161313 34.2411192,101.161341 L36.8586582,101.167908 C36.8587094,101.167908 36.8587094,101.167908 36.8587607,101.167908 C36.870042,101.16788 36.8791644,101.158711 36.8791361,101.14743 L36.8686367,96.9647608 C36.8686085,96.9535195 36.8595026,96.9444136 36.8482612,96.9443854 L34.2307223,96.9378183 Z" id="Rectangle-Copy-21" transform="translate(35.544690, 99.052863) rotate(-222.000000) translate(-35.544690, -99.052863) "></path>
                                <path d="M76.7025197,141.201796 C76.7024682,141.201795 76.7024682,141.201795 76.7024167,141.201796 C76.6911354,141.201824 76.6820131,141.210992 76.6820415,141.222274 L76.6925933,145.406781 C76.6926216,145.418022 76.7017273,145.427128 76.7129684,145.427156 L79.3292205,145.433755 C79.329272,145.433755 79.329272,145.433755 79.3293235,145.433755 C79.3406048,145.433726 79.3497271,145.424558 79.3496987,145.413277 L79.3391469,141.228769 C79.3391186,141.217528 79.3300129,141.208422 79.3187718,141.208394 L76.7025197,141.201796 Z" id="Rectangle-Copy-19" transform="translate(78.015870, 143.317775) rotate(-226.000000) translate(-78.015870, -143.317775) "></path>
                                <path d="M81.5993494,132.558308 L81.5901758,137.296382 L84.2430339,137.291262 C84.8275601,137.290134 85.3011323,136.816565 85.3022641,136.232039 L85.3073281,133.616537 C85.3073307,133.614486 85.3073307,133.614486 85.3073281,133.612434 C85.3061969,133.026306 84.8301295,132.552073 84.2440017,132.553204 L81.5993494,132.558308 Z" id="Rectangle-Copy-20" transform="translate(83.448267, 134.925276) rotate(-335.000000) translate(-83.448267, -134.925276) "></path>
                                <ellipse id="Oval" cx="83.2392969" cy="134.983713" rx="1.04761905" ry="1.04234528"></ellipse>
                                <path d="M25.5964398,41.1938111 L84.3107255,41.1938111 L84.3107255,2.081707 C84.3107255,1.20815435 83.6025712,0.5 82.7290185,0.5 L27.1781468,0.5 C26.3045941,0.5 25.5964398,1.20815435 25.5964398,2.081707 L25.5964398,41.1938111 Z" id="Rectangle"></path>
                                <path d="M21.8790337,41.6726384 C21.0923874,41.6726384 20.4252918,42.2507299 20.3134069,43.0293788 L16.6916779,68.1986074 L16.6916779,154.795733 C16.6916779,157.393828 18.7978502,159.5 21.3959454,159.5 L89.558839,159.5 C92.1569342,159.5 94.2631065,157.393828 94.2631065,154.795733 L94.2708358,68.2880726 L89.7679927,42.977306 C89.6337069,42.2224774 88.9774172,41.6726384 88.2107367,41.6726384 L21.8790337,41.6726384 Z" id="Rectangle-Copy-18"></path>
                                <ellipse id="Oval" cx="56.0012017" cy="76.0912052" rx="17.8095238" ry="17.7198697"></ellipse>
                                <ellipse id="Oval-Copy-26" cx="56.0012017" cy="76.0912052" rx="11" ry="10.9446254"></ellipse>
                                <ellipse id="Oval-Copy-28" cx="56.0012017" cy="76.0912052" rx="2.0952381" ry="2.08469055"></ellipse>
                                <ellipse id="Oval-Copy-24" cx="56.0012017" cy="121.954397" rx="28.2857143" ry="28.1433225"></ellipse>
                                <ellipse id="Oval-Copy-25" cx="56.0012017" cy="121.954397" rx="14.6666667" ry="14.5928339"></ellipse>
                                <ellipse id="Oval-Copy-27" cx="56.0012017" cy="121.954397" rx="2.61904762" ry="2.60586319"></ellipse>
                                <rect id="Rectangle" x="14.0726303" y="114.636808" width="2.14285714" height="26.6221498"></rect>
                                <polyline id="Path-63" points="13.5726303 129.219343 11.5057711 129.219343 8.58820194 145.723123 2.11266723 153.236871 2.27373675e-13 151.4792 6.35979683 144.029967 8.58820194 145.723123"></polyline>
                                <rect id="Rectangle" x="94.7392969" y="122.454397" width="3.71428571" height="10.9869707"></rect>
                                <rect id="Rectangle" x="36.0726303" y="5.71172638" width="38.2857143" height="30.2703583" rx="2.081707"></rect>
                                <rect id="Rectangle-Copy-22" x="40.2631065" y="16.4478827" width="29.9047619" height="7.33876221" rx="2.081707"></rect>
                                <path d="M16.7154874,68.2027808 L40.0345686,68.2027808" id="Path-64"></path>
                                <path d="M71.9608234,68.2027808 L94.4631681,68.2027808" id="Path-65"></path>
                                <path d="M6.78631514,77.1320587 L6.78631514,96.9494417 C6.78631514,97.5242892 7.25232112,97.9902952 7.82716864,97.9902952 L13.0969429,97.9902952 C13.3990409,97.9902952 13.6862351,97.8590427 13.8839417,97.6306237 L16.1916779,94.964397 L16.1916779,79.034433 L13.883126,76.4401335 C13.6856162,76.2181763 13.4026671,76.0912052 13.1055558,76.0912052 L7.82716864,76.0912052 C7.25232112,76.0912052 6.78631514,76.5572112 6.78631514,77.1320587 Z" id="Path-66"></path>
                                <path d="M13.5726303,76.0912052 L13.5726303,97.9902952" id="Path-67"></path>
                            </g>
                        </g>
                    </g>
                </g>
            </g>
        </g>
    </g>
</svg>