<?xml version="1.0" encoding="UTF-8"?>
<svg width="262px" height="262px" viewBox="0 0 262 262" version="1.1" xmlns="http://www.w3.org/2000/svg" xmlns:xlink="http://www.w3.org/1999/xlink">
    <!-- Generator: Sketch 53.2 (72643) - https://sketchapp.com -->
    <title>img</title>
    <desc>Created with Sketch.</desc>
    <defs>
        <rect id="path-1" x="0" y="0" width="262" height="262"></rect>
    </defs>
    <g id="Homepage" stroke="none" stroke-width="1" fill="none" fill-rule="evenodd">
        <g id="🖥--Homepage---Image-placeholder" transform="translate(-150.000000, -3162.000000)">
            <g id="Feature-collection" transform="translate(150.000000, 3090.000000)">
                <g id="Product" transform="translate(0.000000, 72.000000)">
                    <g id="img">
                        <mask id="mask-2" fill="white">
                            <use xlink:href="#path-1"></use>
                        </mask>
                        <use id="Rectangle" fill="#BFBFBF" xlink:href="#path-1"></use>
                        <g id="Shoe" mask="url(#mask-2)" stroke="#777777">
                            <g transform="translate(131.500000, 131.000000) scale(-1, 1) translate(-131.500000, -131.000000) translate(38.000000, 71.000000)">
                                <path d="M9.52970113,5.54223334e-13 C11.6562681,26.7974712 10.0861503,49.164162 4.81934758,67.1000723 C1.9722209,77.7988613 2.13197363,86.7403169 3.36372544,93.0463896 C4.81934758,96.7794397 43.3385877,103.530461 65.4548244,101.927337 C95.2363266,100.298507 107.624647,125.06449 180.821135,95.7480667 C182.079333,85.0164752 172.775606,76.9494512 166.8088,76.9494512 C158.533506,75.6474774 137.713024,85.7142326 124.481775,73.8480513" id="Path-8"></path>
                                <path d="M9.52970113,1.13686838e-13 C48.4391684,1.9307379 69.5651413,7.43322637 72.9076197,16.5074654 C77.9213374,30.1188239 80.0393101,46.435463 119.415868,62.0903677 C128.366076,64.2388293 123.788114,81.3277476 119.415868,85.5192436 C105.714409,85.0540336 89.5929883,73.7886845 77.1886607,102.626586" id="Path-21"></path>
                                <path d="M11.5847099,1.02318154e-12 C15.9199669,50.5926696 11.5097195,58.6409559 35.5715107,63.4220249 C69.5264638,73.0747484 65.8323443,88.7590579 63.1934922,101.989139" id="Path-22"></path>
                                <path d="M3.36372544,93.0463896 C2.80279603,93.0463896 1.68155422,93.0463896 1.42108547e-13,93.0463896 L1.42108547e-13,110.157105 C7.64217113,115.061206 23.3096482,117.98806 47.0024312,118.937668 C46.9824763,117.061488 46.9824763,114.134634 47.0024312,110.157105 C65.1169539,107.703621 83.6359916,110.401567 102.559544,118.250945 C119.275083,123.086945 163.609682,116.898094 186.980905,101.989139 C185.840481,97.0095985 185.195057,94.6510913 184.428506,94.3794927 C183.661955,94.1078941 182.199904,93.8068658 180.936673,93.5701759" id="Path-23"></path>
                                <path d="M134.244602,78.8987628 C145.093782,81.1468428 146.013105,91.1080744 137.00257,108.782458" id="Path-24"></path>
                                <ellipse id="Oval" cx="68.5836644" cy="18.494956" rx="2.6899583" ry="2.71698113"></ellipse>
                                <ellipse id="Oval-Copy-3" transform="translate(72.394439, 29.815711) rotate(-26.000000) translate(-72.394439, -29.815711) " cx="72.3944387" cy="29.8157107" rx="2.47057876" ry="2.71180612"></ellipse>
                                <ellipse id="Oval-Copy-4" transform="translate(78.682949, 39.624717) rotate(-34.000000) translate(-78.682949, -39.624717) " cx="78.6829486" cy="39.6247172" rx="2.02383369" ry="2.2571293"></ellipse>
                                <ellipse id="Oval-Copy-5" transform="translate(84.545089, 49.283810) rotate(-29.000000) translate(-84.545089, -49.283810) " cx="84.5450886" cy="49.2838096" rx="2.02226018" ry="2.48475905"></ellipse>
                                <ellipse id="Oval-Copy-6" transform="translate(94.156000, 55.966494) rotate(-29.000000) translate(-94.156000, -55.966494) " cx="94.1560002" cy="55.9664942" rx="2.24694988" ry="2.48476261"></ellipse>
                                <ellipse id="Oval-Copy-7" transform="translate(104.611099, 62.217858) rotate(-29.000000) translate(-104.611099, -62.217858) " cx="104.611099" cy="62.2178579" rx="2.02225535" ry="2.25887476"></ellipse>
                                <ellipse id="Oval-Copy-8" transform="translate(115.656061, 67.948639) rotate(-29.000000) translate(-115.656061, -67.948639) " cx="115.656061" cy="67.9486387" rx="2.22448088" ry="2.48476224"></ellipse>
                            </g>
                        </g>
                    </g>
                </g>
            </g>
        </g>
    </g>
</svg>