<?xml version="1.0" encoding="UTF-8"?>
<svg width="360px" height="360px" viewBox="0 0 360 360" version="1.1" xmlns="http://www.w3.org/2000/svg" xmlns:xlink="http://www.w3.org/1999/xlink">
    <!-- Generator: Sketch 53.2 (72643) - https://sketchapp.com -->
    <title>Bitmap</title>
    <desc>Created with Sketch.</desc>
    <defs>
        <rect id="path-1" x="0" y="0" width="360" height="360"></rect>
    </defs>
    <g id="Homepage" stroke="none" stroke-width="1" fill="none" fill-rule="evenodd">
        <g id="🖥--Homepage---Image-placeholder" transform="translate(-150.000000, -4184.000000)">
            <g id="Collection-list" transform="translate(150.000000, 4112.000000)">
                <g id="Bitmap" transform="translate(0.000000, 72.000000)">
                    <mask id="mask-2" fill="white">
                        <use xlink:href="#path-1"></use>
                    </mask>
                    <use id="Mask" fill="#BFBFBF" xlink:href="#path-1"></use>
                    <g id="Footwear" mask="url(#mask-2)">
                        <g transform="translate(68.000000, 72.000000)">
                            <g id="Group-3" stroke="none" fill-rule="evenodd" transform="translate(6.000000, 70.500000)">
                                <path d="" id="Path-14" stroke="#777777"></path>
                                <path d="M120.522221,82.9778552 C121.010365,79.2683607 119.09792,76.8785199 114.784885,75.8083328 C109.376187,74.3212846 94.2312169,68.7009739 86.9827625,65.8786296 C73.3697966,66.7580601 63.1961609,64.3928003 56.9520474,56.0702061 C50.707934,47.7476119 32.0013932,15.5243751 15.3213483,0.564914314 C12.4840084,-1.58521107 -4.19910796,17.8597721 0.995822439,31.9251756 C9.17920458,41.8457372 15.8913962,36.556965 37.486876,69.2872609 C46.0148669,86.798472 44.0153992,98.8130899 88.7027347,90.0827763 C100.910442,87.8501726 111.516938,85.4818655 120.522221,82.9778552 Z" id="Path-15" stroke="#777777"></path>
                                <path d="" id="Path-16" stroke="#777777"></path>
                                <path d="M14.9233333,0.400862069 C58.1959735,62.3064304 49.7893137,74.1500143 79.1764244,71.9021666 C84.4217096,71.4220227 87.5233333,67.0996989 87.5233333,66.1399712" id="Path-17" stroke="#777777"></path>
                                <path d="M0.806666667,32.0689655 C0.806666667,32.0689655 5.34733661,39.6737512 6.31151251,45.2095652 C7.19322293,51.0552621 7.86437563,58.6531887 7.75119203,66.763461 C7.75119203,83.6693487 6.8692715,91.2362729 7.75119203,92.2407827 C8.63311256,93.2452925 11.5391168,93.2608227 12.0445942,92.2407827 C12.5500717,91.2207427 12.0445942,60.6111974 12.0445942,60.2444016 C12.0445942,59.8776058 11.9185222,44.0130839 19.36,46.8687765" id="Path-18" stroke="#777777"></path>
                                <path d="M7.66333333,88.9913793 C9.28000256,90.0603448 10.8933359,90.0603448 12.5033333,88.9913793" id="Path-19" stroke="#777777"></path>
                            </g>
                            <g id="Group-2" stroke="none" fill-rule="evenodd" transform="translate(84.000000, 0.500000)">
                                <path d="" id="Path-2" stroke="#777777"></path>
                                <path d="M3.63550982,79.6466075 C1.66488997,80.0429711 0.312544863,80.3573742 0.312544863,83.5268779 C0.312544863,86.6963815 16.5586986,94.2944014 41.0267808,94.2944014 C72.2385893,94.3390423 64.9545206,69.1204238 97.7556956,52.7002467 C97.9025074,58.2673385 97.9025074,72.1320567 97.7556956,94.2944014 C108.502036,95.2992866 114.190641,94.4373918 114.821509,91.708717 C115.452378,88.9800423 117.38944,71.7072293 120.632696,39.8902782 C122.192505,27.0813792 117.153213,13.818267 105.514819,0.10094157 C100.59222,4.57198055 70.2559931,14.3263429 60.6108782,16.3813789 C60.9402653,19.0229681 61.3253475,20.8593679 61.7661249,21.8905781 L99.486333,9.82663503 C102.222133,16.3396787 100.664076,27.8910573 94.8121644,44.4807707 C64.7170554,61.6338707 63.4503679,78.6979235 50.0890281,80.2143324 C44.7846942,69.1938325 39.9294031,66.7894853 38.9771775,66.4637246 C37.7399526,65.7862694 32.769962,67.7048534 24.0672059,72.2194766 C22.6578703,73.9799441 21.9532025,76.4556544 21.9532025,79.6466075 C17.1006849,79.4278815 6.86549134,78.9295907 3.63550982,79.6466075 Z" id="Path-3" stroke="#777777"></path>
                                <path d="M39.6037792,91.8941905 C34.5996395,74.403005 34.8700566,66.197209 40.4150307,67.2768027" id="Path-4" stroke="#777777"></path>
                                <path d="M38.6292115,88.9823144 C52.904482,89.970327 57.8498654,83.6088212 65.5,73.2666331 C72.4316388,63.56906 81.7062804,53.4551036 94.2892115,48.2022074" id="Path-5" stroke="#777777"></path>
                                <path d="M102.513938,8.11781921 C105.574957,15.1772738 105.529184,23.0063001 102.376619,31.6048982 C97.0822861,44.7741522 93.7212422,46.4492792 92.6758782,55.0165534" id="Path-6" stroke="#777777"></path>
                                <path d="M97.5158782,91.6716526 C107.035759,92.6644507 112.81687,92.4714008 114.859212,91.0925028" id="Path-7" stroke="#777777"></path>
                                <path d="" id="Path-9" stroke="#777777"></path>
                                <path d="M99.5325449,9.72119473 C105.89317,6.75973709 108.834205,4.62190305 108.35565,3.30769262" id="Path-10" stroke="#777777"></path>
                                <path d="M2.82673711,79.8688741 C1.11511111,81.5948959 1.84254371,83.033546 5.0090349,84.1848243 C8.1755261,85.3361027 14.1389183,86.5697451 22.8992115,87.8857517" id="Path-11" stroke="#777777"></path>
                                <path d="M23.7966667,91.3924051 C22.7368346,87.5656182 22.1163928,83.6142918 21.9353412,79.5384258" id="Path-12" stroke="#777777"></path>
                                <path d="M36.8644743,80.2310237 L50.0217157,80.2225873" id="Path-13" stroke="#777777"></path>
                            </g>
                            <polyline id="Path-25" stroke="#777777" points="114.007146 215.3815 0.584376544 214.5 0.584376544 163.97759 114.007146 163.97759 114.007146 166.612781"></polyline>
                            <g id="Group-4" stroke="none" fill-rule="evenodd" transform="translate(141.500000, 162.000000) scale(-1, 1) translate(-141.500000, -162.000000) translate(58.000000, 108.500000)">
                                <path d="M8.49229697,5.54223334e-13 C10.3873657,23.8944118 8.98817102,43.8380445 4.29471295,59.8308978 C1.75752474,69.3706514 1.89988678,77.3434492 2.99754997,82.9663641 C4.29471295,86.2950004 38.6207449,92.3146612 58.3294061,90.8852087 C84.8688911,89.4328357 95.9086177,111.515837 161.136929,85.3753595 C162.25816,75.8063571 153.967237,68.6132607 148.649979,68.6132607 C141.275534,67.452334 122.721571,76.4285241 110.930677,65.8478457" id="Path-8" stroke="#777777"></path>
                                <path d="M8.49229697,1.13686838e-13 C43.166076,1.72157463 61.9922735,6.62796018 64.9708894,14.7191566 C69.4388133,26.8559513 71.3262233,41.4049545 106.416245,55.3639112 C114.392133,57.2796228 110.312528,72.5172416 106.416245,76.2546589 C94.2063282,75.8398466 79.8398872,65.7949104 68.7858958,91.508706" id="Path-21" stroke="#777777"></path>
                                <path d="M10.3235973,1.02318154e-12 C14.1869178,45.111797 10.2567703,52.2881857 31.6991927,56.5513056 C61.9578064,65.1583173 58.6658291,79.1434933 56.3142427,90.9403154" id="Path-22" stroke="#777777"></path>
                                <path d="M2.99754997,82.9663641 C2.49768339,82.9663641 1.49850007,82.9663641 1.42108547e-13,82.9663641 L1.42108547e-13,98.223419 C6.81024367,102.596242 20.7721577,105.206021 41.8857422,106.052754 C41.8679595,104.379827 41.8679595,101.770048 41.8857422,98.223419 C58.0283161,96.0357287 74.5313697,98.4413975 91.3949028,105.440426 C106.290787,109.752526 145.799117,104.234134 166.626146,90.9403154 C165.609868,86.5002254 165.034706,84.3972231 164.351602,84.1550477 C163.668498,83.9128723 162.365605,83.6444554 161.239889,83.4334068" id="Path-23" stroke="#777777"></path>
                                <path d="M119.630722,70.3513968 C129.298859,72.3559348 130.118104,81.238033 122.088458,96.9976913" id="Path-24" stroke="#777777"></path>
                                <ellipse id="Oval" stroke="#777777" cx="61.1176402" cy="16.4913357" rx="2.39712919" ry="2.42264151"></ellipse>
                                <ellipse id="Oval-Copy-3" stroke="#777777" transform="translate(64.513573, 26.585675) rotate(-26.000000) translate(-64.513573, -26.585675) " cx="64.5135733" cy="26.5856754" rx="2.20188599" ry="2.41775676"></ellipse>
                                <ellipse id="Oval-Copy-4" stroke="#777777" transform="translate(70.117515, 35.332039) rotate(-34.000000) translate(-70.117515, -35.332039) " cx="70.1175154" cy="35.3320395" rx="1.80385761" ry="2.01223988"></ellipse>
                                <ellipse id="Oval-Copy-5" stroke="#777777" transform="translate(75.341502, 43.944730) rotate(-29.000000) translate(-75.341502, -43.944730) " cx="75.3415023" cy="43.9447302" rx="1.80237207" ry="2.21527317"></ellipse>
                                <ellipse id="Oval-Copy-6" stroke="#777777" transform="translate(83.906169, 49.903457) rotate(-29.000000) translate(-83.906169, -49.903457) " cx="83.9061692" cy="49.9034573" rx="2.00262976" ry="2.21527673"></ellipse>
                                <ellipse id="Oval-Copy-7" stroke="#777777" transform="translate(93.223125, 55.477590) rotate(-29.000000) translate(-93.223125, -55.477590) " cx="93.2231253" cy="55.47759" rx="1.80236724" ry="2.0138876"></ellipse>
                                <ellipse id="Oval-Copy-8" stroke="#777777" transform="translate(103.065731, 60.587536) rotate(-29.000000) translate(-103.065731, -60.587536) " cx="103.065731" cy="60.5875362" rx="1.98260396" ry="2.21527636"></ellipse>
                            </g>
                            <polyline id="Path" stroke="#777777" points="211 108.5 211 95.5 78 95.5 78 135.085675"></polyline>
                        </g>
                    </g>
                </g>
            </g>
        </g>
    </g>
</svg>