<?xml version="1.0" encoding="UTF-8"?>
<svg width="262px" height="262px" viewBox="0 0 262 262" version="1.1" xmlns="http://www.w3.org/2000/svg" xmlns:xlink="http://www.w3.org/1999/xlink">
    <!-- Generator: Sketch 53.2 (72643) - https://sketchapp.com -->
    <title>img</title>
    <desc>Created with Sketch.</desc>
    <defs>
        <rect id="path-1" x="0" y="0" width="262" height="262"></rect>
    </defs>
    <g id="Collection-page" stroke="none" stroke-width="1" fill="none" fill-rule="evenodd">
        <g id="🖥--Collection-page---Image-placeholder" transform="translate(-151.000000, -658.000000)">
            <g id="Product-Copy-4" transform="translate(151.000000, 658.000000)">
                <g id="img">
                    <mask id="mask-2" fill="white">
                        <use xlink:href="#path-1"></use>
                    </mask>
                    <use id="Rectangle" fill="#BFBFBF" xlink:href="#path-1"></use>
                    <g id="Watch" mask="url(#mask-2)">
                        <g transform="translate(87.000000, 51.000000)">
                            <g id="Group-11" stroke="none" fill="none" fill-rule="evenodd" transform="translate(21.762774, 118.534710)">
                                <rect id="Rectangle" stroke="#777777" x="10.8941606" y="8.91934831" width="23.6861314" height="8.71463267" rx="1.29528436"></rect>
                                <rect id="Rectangle-Copy-8" stroke="#777777" x="10.8941606" y="17.9863388" width="23.6861314" height="8.71463267" rx="1.29528436"></rect>
                                <rect id="Rectangle-Copy-12" stroke="#777777" x="10.8941606" y="27.0533293" width="23.6861314" height="8.71463267" rx="1.29528436"></rect>
                                <rect id="Rectangle-Copy-13" stroke="#777777" x="10.8941606" y="36.1203198" width="23.6861314" height="3.53349524" rx="1.29528436"></rect>
                                <path d="M1.58128792,1.14529284 C1.49003567,1.11012338 1.39307937,1.09208609 1.29528436,1.09208609 C0.856060934,1.09208609 0.5,1.44814702 0.5,1.88737044 L0.5,11.6575592 C0.5,12.0967826 0.856060934,12.4528436 1.29528436,12.4528436 L9.74851127,12.4528436 C10.1877347,12.4528436 10.5437956,12.0967826 10.5437956,11.6575592 L10.5437956,5.14532223 C10.5437956,4.81645695 10.3413781,4.52151257 10.0345148,4.40324463 L1.58128792,1.14529284 Z" id="Rectangle" stroke="#777777"></path>
                                <path d="M36.0119449,1.14529284 C35.9206926,1.11012338 35.8237363,1.09208609 35.7259413,1.09208609 C35.2867179,1.09208609 34.9306569,1.44814702 34.9306569,1.88737044 L34.9306569,11.6575592 C34.9306569,12.0967826 35.2867179,12.4528436 35.7259413,12.4528436 L44.1791682,12.4528436 C44.6183916,12.4528436 44.9744526,12.0967826 44.9744526,11.6575592 L44.9744526,5.14532223 C44.9744526,4.81645695 44.772035,4.52151257 44.4651718,4.40324463 L36.0119449,1.14529284 Z" id="Rectangle-Copy-2" stroke="#777777" transform="translate(39.952555, 6.476422) scale(-1, 1) translate(-39.952555, -6.476422) "></path>
                                <path d="M1.5771109,12.8052014 C1.52521567,12.8052014 1.47344504,12.8102809 1.42253944,12.8203672 C0.991691887,12.9057347 0.711624942,13.3242096 0.796992405,13.7550572 L2.40834431,21.8875118 C2.48212966,22.2599047 2.80883042,22.5282247 3.18846281,22.5282247 L9.74851127,22.5282247 C10.1877347,22.5282247 10.5437956,22.1721638 10.5437956,21.7329404 L10.5437956,13.6004857 C10.5437956,13.1612623 10.1877347,12.8052014 9.74851127,12.8052014 L1.5771109,12.8052014 Z" id="Rectangle-Copy-3" stroke="#777777"></path>
                                <path d="M3.45891224,23.1674762 C3.40441117,23.1674762 3.35005446,23.1730786 3.29669915,23.1841952 C2.86670934,23.273783 2.590759,23.6949839 2.68034682,24.1249737 L4.26524835,31.7319398 C4.34208386,32.100723 4.66711128,32.3650111 5.04381377,32.3650111 L9.74851127,32.3650111 C10.1877347,32.3650111 10.5437956,32.0089501 10.5437956,31.5697267 L10.5437956,23.9627606 C10.5437956,23.5235372 10.1877347,23.1674762 9.74851127,23.1674762 L3.45891224,23.1674762 Z" id="Rectangle-Copy-5" stroke="#777777"></path>
                                <path d="M4.63006742,32.8821089 C4.56755742,32.8821089 4.5052654,32.8894788 4.44448125,32.904066 C4.01738442,33.0065624 3.75424379,33.4358826 3.8567402,33.8629794 L5.10013037,39.0441168 C5.18594414,39.401698 5.50572354,39.653815 5.87345758,39.653815 L9.74851127,39.653815 C10.1877347,39.653815 10.5437956,39.2977541 10.5437956,38.8585307 L10.5437956,33.6773932 C10.5437956,33.2381698 10.1877347,32.8821089 9.74851127,32.8821089 L4.63006742,32.8821089 Z" id="Rectangle-Copy-9" stroke="#777777"></path>
                                <path d="M35.8125492,32.8821089 C35.7500392,32.8821089 35.6877471,32.8894788 35.626963,32.904066 C35.1998662,33.0065624 34.9367255,33.4358826 35.039222,33.8629794 L36.2826121,39.0441168 C36.3684259,39.401698 36.6882053,39.653815 37.0559393,39.653815 L40.930993,39.653815 C41.3702164,39.653815 41.7262774,39.2977541 41.7262774,38.8585307 L41.7262774,33.6773932 C41.7262774,33.2381698 41.3702164,32.8821089 40.930993,32.8821089 L35.8125492,32.8821089 Z" id="Rectangle-Copy-11" stroke="#777777" transform="translate(38.328467, 36.267962) scale(-1, 1) translate(-38.328467, -36.267962) "></path>
                                <path d="M35.7262854,23.1674762 C35.6717844,23.1674762 35.6174277,23.1730786 35.5640723,23.1841952 C35.1340825,23.273783 34.8581322,23.6949839 34.94772,24.1249737 L36.5326215,31.7319398 C36.6094571,32.100723 36.9344845,32.3650111 37.311187,32.3650111 L42.0158845,32.3650111 C42.4551079,32.3650111 42.8111688,32.0089501 42.8111688,31.5697267 L42.8111688,23.9627606 C42.8111688,23.5235372 42.4551079,23.1674762 42.0158845,23.1674762 L35.7262854,23.1674762 Z" id="Rectangle-Copy-7" stroke="#777777" transform="translate(38.870913, 27.766244) scale(-1, 1) translate(-38.870913, -27.766244) "></path>
                                <path d="M36.0077678,12.8052014 C35.9558726,12.8052014 35.904102,12.8102809 35.8531964,12.8203672 C35.4223488,12.9057347 35.1422819,13.3242096 35.2276493,13.7550572 L36.8390012,21.8875118 C36.9127866,22.2599047 37.2394874,22.5282247 37.6191197,22.5282247 L44.1791682,22.5282247 C44.6183916,22.5282247 44.9744526,22.1721638 44.9744526,21.7329404 L44.9744526,13.6004857 C44.9744526,13.1612623 44.6183916,12.8052014 44.1791682,12.8052014 L36.0077678,12.8052014 Z" id="Rectangle-Copy-4" stroke="#777777" transform="translate(39.952555, 17.666713) scale(-1, 1) translate(-39.952555, -17.666713) "></path>
                            </g>
                            <g id="Group-11-Copy" stroke="none" fill="none" fill-rule="evenodd" transform="translate(44.762774, 20.965290) scale(1, -1) translate(-44.762774, -20.965290) translate(21.762774, 0.465290)">
                                <rect id="Rectangle" stroke="#777777" x="10.8941606" y="8.91934831" width="23.6861314" height="8.71463267" rx="1.29528436"></rect>
                                <rect id="Rectangle-Copy-8" stroke="#777777" x="10.8941606" y="17.9863388" width="23.6861314" height="8.71463267" rx="1.29528436"></rect>
                                <rect id="Rectangle-Copy-12" stroke="#777777" x="10.8941606" y="27.0533293" width="23.6861314" height="8.71463267" rx="1.29528436"></rect>
                                <rect id="Rectangle-Copy-13" stroke="#777777" x="10.8941606" y="36.1203198" width="23.6861314" height="3.53349524" rx="1.29528436"></rect>
                                <path d="M1.58128792,1.14529284 C1.49003567,1.11012338 1.39307937,1.09208609 1.29528436,1.09208609 C0.856060934,1.09208609 0.5,1.44814702 0.5,1.88737044 L0.5,11.6575592 C0.5,12.0967826 0.856060934,12.4528436 1.29528436,12.4528436 L9.74851127,12.4528436 C10.1877347,12.4528436 10.5437956,12.0967826 10.5437956,11.6575592 L10.5437956,5.14532223 C10.5437956,4.81645695 10.3413781,4.52151257 10.0345148,4.40324463 L1.58128792,1.14529284 Z" id="Rectangle" stroke="#777777"></path>
                                <path d="M36.0119449,1.14529284 C35.9206926,1.11012338 35.8237363,1.09208609 35.7259413,1.09208609 C35.2867179,1.09208609 34.9306569,1.44814702 34.9306569,1.88737044 L34.9306569,11.6575592 C34.9306569,12.0967826 35.2867179,12.4528436 35.7259413,12.4528436 L44.1791682,12.4528436 C44.6183916,12.4528436 44.9744526,12.0967826 44.9744526,11.6575592 L44.9744526,5.14532223 C44.9744526,4.81645695 44.772035,4.52151257 44.4651718,4.40324463 L36.0119449,1.14529284 Z" id="Rectangle-Copy-2" stroke="#777777" transform="translate(39.952555, 6.476422) scale(-1, 1) translate(-39.952555, -6.476422) "></path>
                                <path d="M1.5771109,12.8052014 C1.52521567,12.8052014 1.47344504,12.8102809 1.42253944,12.8203672 C0.991691887,12.9057347 0.711624942,13.3242096 0.796992405,13.7550572 L2.40834431,21.8875118 C2.48212966,22.2599047 2.80883042,22.5282247 3.18846281,22.5282247 L9.74851127,22.5282247 C10.1877347,22.5282247 10.5437956,22.1721638 10.5437956,21.7329404 L10.5437956,13.6004857 C10.5437956,13.1612623 10.1877347,12.8052014 9.74851127,12.8052014 L1.5771109,12.8052014 Z" id="Rectangle-Copy-3" stroke="#777777"></path>
                                <path d="M3.45891224,23.1674762 C3.40441117,23.1674762 3.35005446,23.1730786 3.29669915,23.1841952 C2.86670934,23.273783 2.590759,23.6949839 2.68034682,24.1249737 L4.26524835,31.7319398 C4.34208386,32.100723 4.66711128,32.3650111 5.04381377,32.3650111 L9.74851127,32.3650111 C10.1877347,32.3650111 10.5437956,32.0089501 10.5437956,31.5697267 L10.5437956,23.9627606 C10.5437956,23.5235372 10.1877347,23.1674762 9.74851127,23.1674762 L3.45891224,23.1674762 Z" id="Rectangle-Copy-5" stroke="#777777"></path>
                                <path d="M4.63006742,32.8821089 C4.56755742,32.8821089 4.5052654,32.8894788 4.44448125,32.904066 C4.01738442,33.0065624 3.75424379,33.4358826 3.8567402,33.8629794 L5.10013037,39.0441168 C5.18594414,39.401698 5.50572354,39.653815 5.87345758,39.653815 L9.74851127,39.653815 C10.1877347,39.653815 10.5437956,39.2977541 10.5437956,38.8585307 L10.5437956,33.6773932 C10.5437956,33.2381698 10.1877347,32.8821089 9.74851127,32.8821089 L4.63006742,32.8821089 Z" id="Rectangle-Copy-9" stroke="#777777"></path>
                                <path d="M35.8125492,32.8821089 C35.7500392,32.8821089 35.6877471,32.8894788 35.626963,32.904066 C35.1998662,33.0065624 34.9367255,33.4358826 35.039222,33.8629794 L36.2826121,39.0441168 C36.3684259,39.401698 36.6882053,39.653815 37.0559393,39.653815 L40.930993,39.653815 C41.3702164,39.653815 41.7262774,39.2977541 41.7262774,38.8585307 L41.7262774,33.6773932 C41.7262774,33.2381698 41.3702164,32.8821089 40.930993,32.8821089 L35.8125492,32.8821089 Z" id="Rectangle-Copy-11" stroke="#777777" transform="translate(38.328467, 36.267962) scale(-1, 1) translate(-38.328467, -36.267962) "></path>
                                <path d="M35.7262854,23.1674762 C35.6717844,23.1674762 35.6174277,23.1730786 35.5640723,23.1841952 C35.1340825,23.273783 34.8581322,23.6949839 34.94772,24.1249737 L36.5326215,31.7319398 C36.6094571,32.100723 36.9344845,32.3650111 37.311187,32.3650111 L42.0158845,32.3650111 C42.4551079,32.3650111 42.8111688,32.0089501 42.8111688,31.5697267 L42.8111688,23.9627606 C42.8111688,23.5235372 42.4551079,23.1674762 42.0158845,23.1674762 L35.7262854,23.1674762 Z" id="Rectangle-Copy-7" stroke="#777777" transform="translate(38.870913, 27.766244) scale(-1, 1) translate(-38.870913, -27.766244) "></path>
                                <path d="M36.0077678,12.8052014 C35.9558726,12.8052014 35.904102,12.8102809 35.8531964,12.8203672 C35.4223488,12.9057347 35.1422819,13.3242096 35.2276493,13.7550572 L36.8390012,21.8875118 C36.9127866,22.2599047 37.2394874,22.5282247 37.6191197,22.5282247 L44.1791682,22.5282247 C44.6183916,22.5282247 44.9744526,22.1721638 44.9744526,21.7329404 L44.9744526,13.6004857 C44.9744526,13.1612623 44.6183916,12.8052014 44.1791682,12.8052014 L36.0077678,12.8052014 Z" id="Rectangle-Copy-4" stroke="#777777" transform="translate(39.952555, 17.666713) scale(-1, 1) translate(-39.952555, -17.666713) "></path>
                            </g>
                            <ellipse id="Oval" stroke="#777777" fill="none" cx="44.5" cy="80" rx="44.5" ry="44.3634892"></ellipse>
                            <ellipse id="Oval-Copy-12" stroke="#777777" fill="none" cx="44.5" cy="80" rx="42.2262774" ry="42.0967416"></ellipse>
                            <ellipse id="Oval-Copy-13" stroke="#777777" fill="none" cx="44.5" cy="80" rx="32.4817518" ry="32.3821089"></ellipse>
                            <g id="Group-10" stroke="none" fill="none" fill-rule="evenodd" transform="translate(8.120438, 29.807731)">
                                <path d="M58.7899866,12.1644241 L58.7899866,0 C62.1948633,1.30989714 64.0870199,2.31862372 64.4664564,3.02617972 C64.8458928,3.73373572 67.617119,10.9299588 72.780135,24.614849" id="Path-35" stroke="#777777"></path>
                                <path d="M0,12.1644241 L0,0 C3.40487672,1.30989714 5.2970333,2.31862372 5.67646975,3.02617972 C6.0559062,3.73373572 8.82713243,10.9299588 13.9901484,24.614849" id="Path-35-Copy" stroke="#777777" transform="translate(6.995074, 12.307424) scale(-1, 1) translate(-6.995074, -12.307424) "></path>
                            </g>
                            <g id="Group-10-Copy" stroke="none" fill="none" fill-rule="evenodd" transform="translate(44.620438, 117.692269) scale(1, -1) translate(-44.620438, -117.692269) translate(8.120438, 105.192269)">
                                <path d="M58.7899866,12.1644241 L58.7899866,0 C62.1948633,1.30989714 64.0870199,2.31862372 64.4664564,3.02617972 C64.8458928,3.73373572 67.617119,10.9299588 72.780135,24.614849" id="Path-35" stroke="#777777"></path>
                                <path d="M0,12.1644241 L0,0 C3.40487672,1.30989714 5.2970333,2.31862372 5.67646975,3.02617972 C6.0559062,3.73373572 8.82713243,10.9299588 13.9901484,24.614849" id="Path-35-Copy" stroke="#777777" transform="translate(6.995074, 12.307424) scale(-1, 1) translate(-6.995074, -12.307424) "></path>
                            </g>
                            <polygon id="Triangle" stroke="#777777" fill="none" transform="translate(44.500000, 42.436754) scale(1, -1) translate(-44.500000, -42.436754) " points="44.5 40.1700061 46.7737226 44.7035013 42.2262774 44.7035013"></polygon>
                            <polygon id="Path-36" stroke="#777777" fill="none" points="39.4982633 81.9481291 61.7153285 66.0052773 64.501428 66.0052773 63.7824022 67.9483538 41.3117324 84.5361896"></polygon>
                            <polygon id="Path-37" stroke="#777777" fill="none" points="30.4139921 71.1590627 31.3227992 73.2724187 48.5865069 83.6856129 50.0963494 81.2671512 33.0044895 71.1590627"></polygon>
                            <ellipse id="Oval-Copy-14" stroke="#777777" fill="#D8D8D8" fill-rule="evenodd" cx="44.5" cy="80" rx="3.24817518" ry="3.23821089"></ellipse>
                        </g>
                    </g>
                </g>
            </g>
        </g>
    </g>
</svg>