<?xml version="1.0" encoding="UTF-8"?>
<svg width="360px" height="360px" viewBox="0 0 360 360" version="1.1" xmlns="http://www.w3.org/2000/svg" xmlns:xlink="http://www.w3.org/1999/xlink">
    <!-- Generator: Sketch 53.2 (72643) - https://sketchapp.com -->
    <title>Bitmap</title>
    <desc>Created with Sketch.</desc>
    <defs>
        <rect id="path-1" x="0" y="0" width="360" height="360"></rect>
    </defs>
    <g id="Homepage" stroke="none" stroke-width="1" fill="none" fill-rule="evenodd">
        <g id="🖥--Homepage---Image-placeholder" transform="translate(-540.000000, -4184.000000)">
            <g id="Collection-list" transform="translate(150.000000, 4112.000000)">
                <g id="Bitmap" transform="translate(390.000000, 72.000000)">
                    <mask id="mask-2" fill="white">
                        <use xlink:href="#path-1"></use>
                    </mask>
                    <use id="Mask" fill="#BFBFBF" xlink:href="#path-1"></use>
                    <g id="Watch" mask="url(#mask-2)">
                        <g transform="translate(61.000000, 98.000000)">
                            <g id="Group-8" transform="translate(74.000000, 0.000000)">
                                <circle id="Oval" stroke="#777777" cx="45.25" cy="80.5" r="42.5"></circle>
                                <polyline id="Path-31" stroke="#777777" points="87 75 90.2938796 75 90.2938796 88.4322639 87 88.4322639"></polyline>
                                <polyline id="Path-31-Copy" stroke="#777777" transform="translate(1.646940, 81.716132) scale(-1, 1) translate(-1.646940, -81.716132) " points="0 75 3.29387956 75 3.29387956 88.4322639 0 88.4322639"></polyline>
                                <circle id="Oval-Copy-9" stroke="#777777" cx="45.5" cy="80.5" r="39.5"></circle>
                                <path d="M45.25,45 L45.25,48" id="Line" stroke="#777777" stroke-linecap="square"></path>
                                <path d="M45.25,114 L45.25,117" id="Line-Copy" stroke="#777777" stroke-linecap="square"></path>
                                <path d="M45.25,45 L45.25,48" id="Line-Copy-5" stroke="#777777" stroke-linecap="square"></path>
                                <path d="M45.25,114 L45.25,117" id="Line-Copy-4" stroke="#777777" stroke-linecap="square"></path>
                                <g id="Group-7" transform="translate(44.750000, 45.000000)" stroke="#777777" stroke-linecap="square">
                                    <path d="M0.5,-2.13162821e-14 L0.5,2.51748252" id="Line-Copy-7"></path>
                                    <path d="M0.5,69.2307692 L0.5,71.7482517" id="Line-Copy-6"></path>
                                </g>
                                <g id="Group-7-Copy" transform="translate(44.750000, 45.000000)" stroke="#777777" stroke-linecap="square">
                                    <path d="M0.5,-2.13162821e-14 L0.5,2.51748252" id="Line-Copy-7"></path>
                                    <path d="M0.5,69.2307692 L0.5,71.7482517" id="Line-Copy-6"></path>
                                </g>
                                <g id="Group-7-Copy-2" transform="translate(44.750000, 45.000000)" stroke="#777777" stroke-linecap="square">
                                    <path d="M0.5,-2.13162821e-14 L0.5,2.51748252" id="Line-Copy-7"></path>
                                    <path d="M0.5,69.2307692 L0.5,71.7482517" id="Line-Copy-6"></path>
                                </g>
                                <g id="Group-7-Copy-3" transform="translate(45.237323, 81.216506) rotate(-330.000000) translate(-45.237323, -81.216506) translate(44.737323, 45.216506)" stroke="#777777" stroke-linecap="square">
                                    <path d="M0.5,-2.13162821e-14 L0.5,2.5" id="Line-Copy-7"></path>
                                    <path d="M0.5,68.75 L0.5,71.25" id="Line-Copy-6"></path>
                                </g>
                                <g id="Group-7-Copy-4" transform="translate(45.145817, 81.125000) rotate(-300.000000) translate(-45.145817, -81.125000) translate(44.645817, 45.125000)" stroke="#777777" stroke-linecap="square">
                                    <path d="M0.5,-2.13162821e-14 L0.5,2.5" id="Line-Copy-7"></path>
                                    <path d="M0.5,68.75 L0.5,71.25" id="Line-Copy-6"></path>
                                </g>
                                <g id="Group-7-Copy-5" transform="translate(45.145817, 80.875000) rotate(-240.000000) translate(-45.145817, -80.875000) translate(44.645817, 44.875000)" stroke="#777777" stroke-linecap="square">
                                    <path d="M0.5,-2.13162821e-14 L0.5,2.5" id="Line-Copy-7"></path>
                                    <path d="M0.5,68.75 L0.5,71.25" id="Line-Copy-6"></path>
                                </g>
                                <g id="Group-7-Copy-6" transform="translate(45.237323, 80.783494) rotate(-210.000000) translate(-45.237323, -80.783494) translate(44.737323, 44.783494)" stroke="#777777" stroke-linecap="square">
                                    <path d="M0.5,-2.13162821e-14 L0.5,2.5" id="Line-Copy-7"></path>
                                    <path d="M0.5,68.75 L0.5,71.25" id="Line-Copy-6"></path>
                                </g>
                                <g id="Group-6" transform="translate(45.250000, 81.000000) rotate(-270.000000) translate(-45.250000, -81.000000) translate(44.750000, 45.000000)" stroke="#777777" stroke-linecap="square">
                                    <path d="M0.5,-2.13162821e-14 L0.5,2.51748252" id="Line-Copy-3"></path>
                                    <path d="M0.5,69.2307692 L0.5,71.7482517" id="Line-Copy-2"></path>
                                </g>
                                <polyline id="Path-20" stroke="#777777" points="17.75 49 18.6478837 39.5894438 22.75 37 22.75 45.1275563"></polyline>
                                <polyline id="Path-20-Copy-2" stroke="#777777" transform="translate(20.250000, 119.000000) scale(1, -1) translate(-20.250000, -119.000000) " points="17.75 125 18.6478837 115.589444 22.75 113 22.75 121.127556"></polyline>
                                <polyline id="Path-20-Copy" stroke="#777777" transform="translate(69.250000, 43.000000) scale(-1, 1) translate(-69.250000, -43.000000) " points="66.75 49 67.6478837 39.5894438 71.75 37 71.75 45.1275563"></polyline>
                                <polyline id="Path-20-Copy-3" stroke="#777777" transform="translate(69.250000, 119.000000) scale(-1, -1) translate(-69.250000, -119.000000) " points="66.75 125 67.6478837 115.589444 71.75 113 71.75 121.127556"></polyline>
                                <path d="M22.75,125 C23.365032,139.61894 24.18737,152.100955 25.217014,162.446045 C25.5430568,163.971212 26.7539876,164.047878 28.3718505,163.58699 C36.1638533,163.948532 50.8889281,164.448576 60.9285744,163.214192 C62.7525053,163.618806 63.9004884,163.940401 64.8881618,162.446045 C65.3382151,160.236179 65.9588279,147.754164 66.75,125" id="Path-26" stroke="#777777"></path>
                                <path d="M27.75,126 C28.3225659,147.203309 28.9892325,159.536642 29.75,163" id="Path-27" stroke="#777777" stroke-linecap="round"></path>
                                <path d="M60.75,126 C61.3225659,147.203309 61.9892325,159.536642 62.75,163" id="Path-27-Copy" stroke="#777777" stroke-linecap="round" transform="translate(61.750000, 144.500000) scale(-1, 1) translate(-61.750000, -144.500000) "></path>
                                <path d="M22.75,0 C23.365032,14.61894 24.18737,27.1009551 25.217014,37.4460452 C25.5430568,38.9712124 26.7539876,39.0478781 28.3718505,38.5869899 C36.1638533,38.9485318 50.8889281,39.4485761 60.9285744,38.214192 C62.7525053,38.6188064 63.9004884,38.940401 64.8881618,37.4460452 C65.3382151,35.2361789 65.9588279,22.7541638 66.75,0" id="Path-26-Copy" stroke="#777777" transform="translate(44.750000, 19.500000) scale(1, -1) translate(-44.750000, -19.500000) "></path>
                                <path d="M27.75,2 C28.3225659,23.203309 28.9892325,35.5366423 29.75,39" id="Path-27-Copy-3" stroke="#777777" stroke-linecap="round" transform="translate(28.750000, 20.500000) scale(1, -1) translate(-28.750000, -20.500000) "></path>
                                <path d="M60.75,2 C61.3225659,23.203309 61.9892325,35.5366423 62.75,39" id="Path-27-Copy-2" stroke="#777777" stroke-linecap="round" transform="translate(61.750000, 20.500000) scale(-1, -1) translate(-61.750000, -20.500000) "></path>
                                <path d="M38.75,111.652947 L47.3633652,71.25" id="Path-28" stroke="#777777" stroke-linecap="round"></path>
                                <polygon id="Path-29" stroke="#777777" transform="translate(35.497468, 74.612101) rotate(-2.000000) translate(-35.497468, -74.612101) " points="43.507861 80.7242024 28.7768804 70.5384112 27 68.5 29.5850145 69.6591323 43.9949363 79.9705095"></polygon>
                                <polygon id="Path-30" stroke="#777777" transform="translate(59.363529, 86.845307) rotate(-300.000000) translate(-59.363529, -86.845307) " points="47.1482054 95.4193593 69.0955493 78.429873 71.578852 77.3122533 69.6706049 79.3890409 47.5082072 96.3783615"></polygon>
                                <circle id="Oval-Copy-10" stroke="#777777" fill="#777777" cx="45.75" cy="81" r="2"></circle>
                            </g>
                            <g id="Group-12" transform="translate(0.000000, 22.000000)">
                                <g id="Group-11" transform="translate(16.627737, 90.382716)" stroke="#777777">
                                    <rect id="Rectangle" x="8.44160584" y="6.91975309" width="17.8613139" height="6.40740741" rx="0.987654321"></rect>
                                    <rect id="Rectangle-Copy-8" x="8.44160584" y="13.8333333" width="17.8613139" height="6.40740741" rx="0.987654321"></rect>
                                    <rect id="Rectangle-Copy-12" x="8.44160584" y="20.7469136" width="17.8613139" height="6.40740741" rx="0.987654321"></rect>
                                    <rect id="Rectangle-Copy-13" x="8.44160584" y="27.6604938" width="17.8613139" height="2.45679012" rx="0.987654321"></rect>
                                    <path d="M1.16271778,0.982925903 C1.10685274,0.961438534 1.04750923,0.950419383 0.987654321,0.950419383 C0.718330276,0.950419383 0.5,1.16874966 0.5,1.4380737 L0.5,8.88888889 C0.5,9.15821293 0.718330276,9.37654321 0.987654321,9.37654321 L7.45030188,9.37654321 C7.71962593,9.37654321 7.9379562,9.15821293 7.9379562,8.88888889 L7.9379562,3.92380134 C7.9379562,3.72202602 7.81369054,3.54108904 7.62536535,3.46865354 L1.16271778,0.982925903 Z" id="Rectangle"></path>
                                    <path d="M27.4692871,0.982925903 C27.4134221,0.961438534 27.3540786,0.950419383 27.2942237,0.950419383 C27.0248996,0.950419383 26.8065693,1.16874966 26.8065693,1.4380737 L26.8065693,8.88888889 C26.8065693,9.15821293 27.0248996,9.37654321 27.2942237,9.37654321 L33.7568712,9.37654321 C34.0261953,9.37654321 34.2445255,9.15821293 34.2445255,8.88888889 L34.2445255,3.92380134 C34.2445255,3.72202602 34.1202599,3.54108904 33.9319347,3.46865354 L27.4692871,0.982925903 Z" id="Rectangle-Copy-2" transform="translate(30.525547, 4.938272) scale(-1, 1) translate(-30.525547, -4.938272) "></path>
                                    <path d="M1.2030207,9.88271605 C1.17113653,9.88271605 1.13932921,9.88584304 1.10805545,9.89205213 C0.843887579,9.9445 0.672254603,10.2011678 0.724702467,10.4653356 L1.95584774,16.6663323 C2.00116602,16.8945901 2.20145294,17.0590213 2.43416598,17.0590213 L7.45030188,17.0590213 C7.71962593,17.0590213 7.9379562,16.8406911 7.9379562,16.571367 L7.9379562,10.3703704 C7.9379562,10.1010463 7.71962593,9.88271605 7.45030188,9.88271605 L1.2030207,9.88271605 Z" id="Rectangle-Copy-3"></path>
                                    <path d="M2.64080542,17.7839506 C2.60732039,17.7839506 2.57392441,17.7873995 2.54114609,17.7942426 C2.27750618,17.849283 2.1084028,18.1076244 2.16344313,18.3712643 L3.37437913,24.1715759 C3.42156965,24.3976157 3.62082816,24.5595709 3.85174142,24.5595709 L7.45030188,24.5595709 C7.71962593,24.5595709 7.9379562,24.3412407 7.9379562,24.0719166 L7.9379562,18.2716049 C7.9379562,18.0022809 7.71962593,17.7839506 7.45030188,17.7839506 L2.64080542,17.7839506 Z" id="Rectangle-Copy-5"></path>
                                    <path d="M3.53563382,25.191358 C3.4972288,25.191358 3.45895823,25.1958948 3.42161767,25.2048741 C3.15975836,25.2678435 2.99852621,25.5311692 3.06149559,25.7930285 L4.01150156,29.7436458 C4.06420227,29.9628026 4.26023548,30.117284 4.48563978,30.117284 L7.45030188,30.117284 C7.71962593,30.117284 7.9379562,29.8989537 7.9379562,29.6296296 L7.9379562,25.6790123 C7.9379562,25.4096883 7.71962593,25.191358 7.45030188,25.191358 L3.53563382,25.191358 Z" id="Rectangle-Copy-9"></path>
                                    <path d="M27.3604513,25.191358 C27.3220463,25.191358 27.2837758,25.1958948 27.2464352,25.2048741 C26.9845759,25.2678435 26.8233437,25.5311692 26.8863131,25.7930285 L27.8363191,29.7436458 C27.8890198,29.9628026 28.085053,30.117284 28.3104573,30.117284 L31.2751194,30.117284 C31.5444434,30.117284 31.7627737,29.8989537 31.7627737,29.6296296 L31.7627737,25.6790123 C31.7627737,25.4096883 31.5444434,25.191358 31.2751194,25.191358 L27.3604513,25.191358 Z" id="Rectangle-Copy-11" transform="translate(29.284672, 27.654321) scale(-1, 1) translate(-29.284672, -27.654321) "></path>
                                    <path d="M27.2945288,17.7839506 C27.2610437,17.7839506 27.2276477,17.7873995 27.1948694,17.7942426 C26.9312295,17.849283 26.7621261,18.1076244 26.8171665,18.3712643 L28.0281025,24.1715759 C28.075293,24.3976157 28.2745515,24.5595709 28.5054648,24.5595709 L32.1040252,24.5595709 C32.3733493,24.5595709 32.5916795,24.3412407 32.5916795,24.0719166 L32.5916795,18.2716049 C32.5916795,18.0022809 32.3733493,17.7839506 32.1040252,17.7839506 L27.2945288,17.7839506 Z" id="Rectangle-Copy-7" transform="translate(29.699124, 21.171761) scale(-1, 1) translate(-29.699124, -21.171761) "></path>
                                    <path d="M27.50959,9.88271605 C27.4777059,9.88271605 27.4458985,9.88584304 27.4146248,9.89205213 C27.1504569,9.9445 26.9788239,10.2011678 27.0312718,10.4653356 L28.2624171,16.6663323 C28.3077354,16.8945901 28.5080223,17.0590213 28.7407353,17.0590213 L33.7568712,17.0590213 C34.0261953,17.0590213 34.2445255,16.8406911 34.2445255,16.571367 L34.2445255,10.3703704 C34.2445255,10.1010463 34.0261953,9.88271605 33.7568712,9.88271605 L27.50959,9.88271605 Z" id="Rectangle-Copy-4" transform="translate(30.525547, 13.470869) scale(-1, 1) translate(-30.525547, -13.470869) "></path>
                                </g>
                                <g id="Group-11-Copy" transform="translate(34.127737, 16.117284) scale(1, -1) translate(-34.127737, -16.117284) translate(16.627737, 0.617284)" stroke="#777777">
                                    <rect id="Rectangle" x="8.44160584" y="6.91975309" width="17.8613139" height="6.40740741" rx="0.987654321"></rect>
                                    <rect id="Rectangle-Copy-8" x="8.44160584" y="13.8333333" width="17.8613139" height="6.40740741" rx="0.987654321"></rect>
                                    <rect id="Rectangle-Copy-12" x="8.44160584" y="20.7469136" width="17.8613139" height="6.40740741" rx="0.987654321"></rect>
                                    <rect id="Rectangle-Copy-13" x="8.44160584" y="27.6604938" width="17.8613139" height="2.45679012" rx="0.987654321"></rect>
                                    <path d="M1.16271778,0.982925903 C1.10685274,0.961438534 1.04750923,0.950419383 0.987654321,0.950419383 C0.718330276,0.950419383 0.5,1.16874966 0.5,1.4380737 L0.5,8.88888889 C0.5,9.15821293 0.718330276,9.37654321 0.987654321,9.37654321 L7.45030188,9.37654321 C7.71962593,9.37654321 7.9379562,9.15821293 7.9379562,8.88888889 L7.9379562,3.92380134 C7.9379562,3.72202602 7.81369054,3.54108904 7.62536535,3.46865354 L1.16271778,0.982925903 Z" id="Rectangle"></path>
                                    <path d="M27.4692871,0.982925903 C27.4134221,0.961438534 27.3540786,0.950419383 27.2942237,0.950419383 C27.0248996,0.950419383 26.8065693,1.16874966 26.8065693,1.4380737 L26.8065693,8.88888889 C26.8065693,9.15821293 27.0248996,9.37654321 27.2942237,9.37654321 L33.7568712,9.37654321 C34.0261953,9.37654321 34.2445255,9.15821293 34.2445255,8.88888889 L34.2445255,3.92380134 C34.2445255,3.72202602 34.1202599,3.54108904 33.9319347,3.46865354 L27.4692871,0.982925903 Z" id="Rectangle-Copy-2" transform="translate(30.525547, 4.938272) scale(-1, 1) translate(-30.525547, -4.938272) "></path>
                                    <path d="M1.2030207,9.88271605 C1.17113653,9.88271605 1.13932921,9.88584304 1.10805545,9.89205213 C0.843887579,9.9445 0.672254603,10.2011678 0.724702467,10.4653356 L1.95584774,16.6663323 C2.00116602,16.8945901 2.20145294,17.0590213 2.43416598,17.0590213 L7.45030188,17.0590213 C7.71962593,17.0590213 7.9379562,16.8406911 7.9379562,16.571367 L7.9379562,10.3703704 C7.9379562,10.1010463 7.71962593,9.88271605 7.45030188,9.88271605 L1.2030207,9.88271605 Z" id="Rectangle-Copy-3"></path>
                                    <path d="M2.64080542,17.7839506 C2.60732039,17.7839506 2.57392441,17.7873995 2.54114609,17.7942426 C2.27750618,17.849283 2.1084028,18.1076244 2.16344313,18.3712643 L3.37437913,24.1715759 C3.42156965,24.3976157 3.62082816,24.5595709 3.85174142,24.5595709 L7.45030188,24.5595709 C7.71962593,24.5595709 7.9379562,24.3412407 7.9379562,24.0719166 L7.9379562,18.2716049 C7.9379562,18.0022809 7.71962593,17.7839506 7.45030188,17.7839506 L2.64080542,17.7839506 Z" id="Rectangle-Copy-5"></path>
                                    <path d="M3.53563382,25.191358 C3.4972288,25.191358 3.45895823,25.1958948 3.42161767,25.2048741 C3.15975836,25.2678435 2.99852621,25.5311692 3.06149559,25.7930285 L4.01150156,29.7436458 C4.06420227,29.9628026 4.26023548,30.117284 4.48563978,30.117284 L7.45030188,30.117284 C7.71962593,30.117284 7.9379562,29.8989537 7.9379562,29.6296296 L7.9379562,25.6790123 C7.9379562,25.4096883 7.71962593,25.191358 7.45030188,25.191358 L3.53563382,25.191358 Z" id="Rectangle-Copy-9"></path>
                                    <path d="M27.3604513,25.191358 C27.3220463,25.191358 27.2837758,25.1958948 27.2464352,25.2048741 C26.9845759,25.2678435 26.8233437,25.5311692 26.8863131,25.7930285 L27.8363191,29.7436458 C27.8890198,29.9628026 28.085053,30.117284 28.3104573,30.117284 L31.2751194,30.117284 C31.5444434,30.117284 31.7627737,29.8989537 31.7627737,29.6296296 L31.7627737,25.6790123 C31.7627737,25.4096883 31.5444434,25.191358 31.2751194,25.191358 L27.3604513,25.191358 Z" id="Rectangle-Copy-11" transform="translate(29.284672, 27.654321) scale(-1, 1) translate(-29.284672, -27.654321) "></path>
                                    <path d="M27.2945288,17.7839506 C27.2610437,17.7839506 27.2276477,17.7873995 27.1948694,17.7942426 C26.9312295,17.849283 26.7621261,18.1076244 26.8171665,18.3712643 L28.0281025,24.1715759 C28.075293,24.3976157 28.2745515,24.5595709 28.5054648,24.5595709 L32.1040252,24.5595709 C32.3733493,24.5595709 32.5916795,24.3412407 32.5916795,24.0719166 L32.5916795,18.2716049 C32.5916795,18.0022809 32.3733493,17.7839506 32.1040252,17.7839506 L27.2945288,17.7839506 Z" id="Rectangle-Copy-7" transform="translate(29.699124, 21.171761) scale(-1, 1) translate(-29.699124, -21.171761) "></path>
                                    <path d="M27.50959,9.88271605 C27.4777059,9.88271605 27.4458985,9.88584304 27.4146248,9.89205213 C27.1504569,9.9445 26.9788239,10.2011678 27.0312718,10.4653356 L28.2624171,16.6663323 C28.3077354,16.8945901 28.5080223,17.0590213 28.7407353,17.0590213 L33.7568712,17.0590213 C34.0261953,17.0590213 34.2445255,16.8406911 34.2445255,16.571367 L34.2445255,10.3703704 C34.2445255,10.1010463 34.0261953,9.88271605 33.7568712,9.88271605 L27.50959,9.88271605 Z" id="Rectangle-Copy-4" transform="translate(30.525547, 13.470869) scale(-1, 1) translate(-30.525547, -13.470869) "></path>
                                </g>
                                <ellipse id="Oval" stroke="#777777" cx="34" cy="61" rx="34" ry="33.8271605"></ellipse>
                                <ellipse id="Oval-Copy-12" stroke="#777777" cx="34" cy="61" rx="32.2627737" ry="32.0987654"></ellipse>
                                <ellipse id="Oval-Copy-13" stroke="#777777" cx="34" cy="61" rx="24.8175182" ry="24.691358"></ellipse>
                                <g id="Group-10" transform="translate(6.204380, 22.728395)" stroke="#777777">
                                    <path d="M44.918192,9.2753734 L44.918192,0 C47.5196709,0.998796572 48.9653635,1.76795058 49.25527,2.30746203 C49.5451765,2.84697349 51.6625179,8.33409358 55.6072942,18.7688223" id="Path-35"></path>
                                    <path d="M0,9.2753734 L0,0 C2.60147884,0.998796572 4.04717151,1.76795058 4.33707801,2.30746203 C4.62698451,2.84697349 6.7443259,8.33409358 10.6891022,18.7688223" id="Path-35-Copy" transform="translate(5.344551, 9.384411) scale(-1, 1) translate(-5.344551, -9.384411) "></path>
                                </g>
                                <g id="Group-10-Copy" transform="translate(34.204380, 89.771605) scale(1, -1) translate(-34.204380, -89.771605) translate(6.204380, 80.271605)" stroke="#777777">
                                    <path d="M44.918192,9.2753734 L44.918192,0 C47.5196709,0.998796572 48.9653635,1.76795058 49.25527,2.30746203 C49.5451765,2.84697349 51.6625179,8.33409358 55.6072942,18.7688223" id="Path-35"></path>
                                    <path d="M0,9.2753734 L0,0 C2.60147884,0.998796572 4.04717151,1.76795058 4.33707801,2.30746203 C4.62698451,2.84697349 6.7443259,8.33409358 10.6891022,18.7688223" id="Path-35-Copy" transform="translate(5.344551, 9.384411) scale(-1, 1) translate(-5.344551, -9.384411) "></path>
                                </g>
                                <polygon id="Triangle" stroke="#777777" transform="translate(34.000000, 32.358025) scale(1, -1) translate(-34.000000, -32.358025) " points="34 30.6296296 35.7372263 34.0864198 32.2627737 34.0864198"></polygon>
                                <polygon id="Path-36" stroke="#777777" points="30.1784484 62.4854485 47.1532847 50.3290239 49.28199 50.3290239 48.7326219 51.8106198 31.5640203 64.4588446"></polygon>
                                <polygon id="Path-37" stroke="#777777" points="23.2376569 54.2587853 23.9320263 55.8702193 37.1222749 63.8102798 38.2758625 61.9662028 25.2169133 54.2587853"></polygon>
                                <ellipse id="Oval-Copy-14" stroke="#777777" fill="#D8D8D8" cx="34" cy="61" rx="2.48175182" ry="2.4691358"></ellipse>
                            </g>
                            <g id="Group-9" transform="translate(171.000000, 22.000000)">
                                <ellipse id="Oval" stroke="#777777" cx="32.2675159" cy="59.8915009" rx="32.2675159" ry="32.3327306"></ellipse>
                                <ellipse id="Oval-Copy-11" stroke="#777777" cx="32.3757962" cy="59.8915009" rx="29.4522293" ry="29.5117541"></ellipse>
                                <path d="M12.1028269,34.5750734 C13.334141,27.3686927 14.3305489,23.5277476 15.0920506,23.0522381 L16.7977332,22.6461096 L16.571216,30.6954732 L18.326059,30.6954732" id="Path-32" stroke="#777777"></path>
                                <path d="M46.1273885,34.5750734 C47.3587026,27.3686927 48.3551105,23.5277476 49.1166122,23.0522381 L50.8222948,22.6461096 L50.5957776,30.6954732 L52.3506206,30.6954732" id="Path-32-Copy" stroke="#777777" transform="translate(49.239005, 28.610592) scale(-1, 1) translate(-49.239005, -28.610592) "></path>
                                <path d="M12.1028269,97.2092531 C13.334141,90.0028724 14.3305489,86.1619273 15.0920506,85.6864178 L16.7977332,85.2802893 L16.571216,93.3296529 L18.326059,93.3296529" id="Path-32-Copy-3" stroke="#777777" transform="translate(15.214443, 91.244771) scale(1, -1) translate(-15.214443, -91.244771) "></path>
                                <path d="M46.1273885,97.2092531 C47.3587026,90.0028724 48.3551105,86.1619273 49.1166122,85.6864178 L50.8222948,85.2802893 L50.5957776,93.3296529 L52.3506206,93.3296529" id="Path-32-Copy-2" stroke="#777777" transform="translate(49.239005, 91.244771) scale(-1, -1) translate(-49.239005, -91.244771) "></path>
                                <rect id="Rectangle" stroke="#777777" x="65.0350318" y="57.3535262" width="2.46496815" height="4.64195298" rx="0.86746988"></rect>
                                <rect id="Rectangle" stroke="#777777" x="17.3917197" y="22.4168174" width="29.7515924" height="3.55696203" rx="1.08433735"></rect>
                                <rect id="Rectangle-Copy" stroke="#777777" x="17.3917197" y="93.8092224" width="29.7515924" height="3.55696203" rx="1.08433735"></rect>
                                <path d="M16.8917197,97.2092531 C17.1000322,108.811748 17.4485429,116.356128 17.9372518,119.842392 C23.8641678,119.797373 38.0815449,119.98367 46.5647885,119.842392 C47.0702705,116.291955 47.3853118,108.739419 47.5099125,97.1847841" id="Path-33" stroke="#777777"></path>
                                <path d="M16.8917197,0.0244690001 C17.1000322,11.626964 17.4485429,19.1713438 17.9372518,22.6576082 C23.8641678,22.6125892 38.0815449,22.7988857 46.5647885,22.6576082 C47.0702705,19.1071714 47.3853118,11.5546353 47.5099125,7.10542736e-15" id="Path-33-Copy" stroke="#777777" transform="translate(32.200816, 11.355758) scale(1, -1) translate(-32.200816, -11.355758) "></path>
                                <path d="M29.7829616,48.8314644 C35.9598129,54.7307005 40.5807288,59.2351354 43.6457093,62.344769 C44.7667934,62.0020192 46.0532029,62.1784802 46.9877509,62.9333686 C46.105044,62.1355589 45.4045338,61.1551021 45.2092372,59.4009276 C42.9965934,58.524302 37.8545015,55.0011476 29.7829616,48.8314644 Z" id="Path-34-Copy" stroke="#777777" fill="#DFDFDF" transform="translate(38.385356, 55.882417) rotate(107.000000) translate(-38.385356, -55.882417) "></path>
                                <path d="M11.4526515,44.6307765 C21.7036773,52.4206931 28.3597305,57.8742079 31.4208111,60.991321 C32.8731827,61.1298084 33.8296554,61.0826482 34.762946,61.83946 C33.8813767,61.0396768 33.4833562,60.0105913 33.3253699,58.9083099 C31.1336685,58.2634534 23.8427624,53.5042756 11.4526515,44.6307765 Z" id="Path-34" stroke="#777777" fill="#DFDFDF"></path>
                                <ellipse id="Oval" stroke="#777777" fill="#D8D8D8" cx="32.2675159" cy="59.7830018" rx="1" ry="1"></ellipse>
                            </g>
                        </g>
                    </g>
                </g>
            </g>
        </g>
    </g>
</svg>