<?xml version="1.0" encoding="UTF-8"?>
<svg width="119px" height="28px" viewBox="0 0 119 28" version="1.1" xmlns="http://www.w3.org/2000/svg" xmlns:xlink="http://www.w3.org/1999/xlink">
    <g id="Powered-By" stroke="none" stroke-width="1" fill="none" fill-rule="evenodd">
        <g id="HD-ROLLER-Powered-by" transform="translate(-150.000000, -384.000000)">
            <g id="powered-by-hover" transform="translate(150.000000, 384.000000)">
                <path d="M32.0021973,7 L32.0021973,0.0207519531 L34.6348877,0.0207519531 C35.0982689,0.0207519531 35.4521472,0.0429685278 35.6965332,0.0874023438 C36.0393084,0.144531536 36.3265369,0.253234062 36.5582275,0.413513184 C36.7899182,0.573792305 36.9763787,0.7983384 37.1176147,1.0871582 C37.2588508,1.37597801 37.3294678,1.69335765 37.3294678,2.03930664 C37.3294678,2.63281547 37.1406269,3.13506875 36.7629395,3.54608154 C36.385252,3.95709434 35.7028858,4.16259766 34.7158203,4.16259766 L32.9257812,4.16259766 L32.9257812,7 L32.0021973,7 Z M32.9257812,3.33898926 L34.7301025,3.33898926 C35.3267852,3.33898926 35.750487,3.22790638 36.0012207,3.0057373 C36.2519544,2.78356823 36.3773193,2.47094928 36.3773193,2.06787109 C36.3773193,1.77587745 36.3035286,1.52594098 36.1559448,1.3180542 C36.0083611,1.11016742 35.813966,0.972900724 35.5727539,0.90625 C35.4172356,0.864990028 35.130007,0.844360352 34.7110596,0.844360352 L32.9257812,0.844360352 L32.9257812,3.33898926 Z M38.0769043,4.4720459 C38.0769043,3.53576192 38.3371556,2.84228741 38.857666,2.39160156 C39.2924826,2.01708797 39.8225066,1.82983398 40.4477539,1.82983398 C41.1428257,1.82983398 41.7109353,2.05755388 42.1520996,2.51300049 C42.5932639,2.9684471 42.8138428,3.59765224 42.8138428,4.40063477 C42.8138428,5.05127278 42.7162485,5.56304745 42.5210571,5.93597412 C42.3258657,6.30890079 42.0418109,6.59850971 41.6688843,6.80480957 C41.2959576,7.01110943 40.8889182,7.11425781 40.4477539,7.11425781 C39.7399867,7.11425781 39.1679099,6.88733137 38.7315063,6.43347168 C38.2951028,5.97961199 38.0769043,5.32580993 38.0769043,4.4720459 Z M38.9576416,4.4720459 C38.9576416,5.11951007 39.0988755,5.60430747 39.3813477,5.92645264 C39.6638198,6.2485978 40.019285,6.40966797 40.4477539,6.40966797 C40.873049,6.40966797 41.2269273,6.24780435 41.5093994,5.92407227 C41.7918715,5.60034018 41.9331055,5.10681484 41.9331055,4.44348145 C41.9331055,3.81823418 41.7910781,3.34454507 41.507019,3.0223999 C41.22296,2.70025474 40.8698752,2.53918457 40.4477539,2.53918457 C40.019285,2.53918457 39.6638198,2.69946129 39.3813477,3.02001953 C39.0988755,3.34057777 38.9576416,3.82458172 38.9576416,4.4720459 Z M44.7514648,7 L43.2042236,1.9440918 L44.0897217,1.9440918 L44.8942871,4.86242676 L45.1942139,5.94787598 C45.2069092,5.89392063 45.2941886,5.54638992 45.4560547,4.90527344 L46.2606201,1.9440918 L47.1413574,1.9440918 L47.8983154,4.87670898 L48.1506348,5.84313965 L48.44104,4.8671875 L49.3074951,1.9440918 L50.140625,1.9440918 L48.5600586,7 L47.6697998,7 L46.8652344,3.97216797 L46.6700439,3.11047363 L45.6464844,7 L44.7514648,7 Z M54.3205566,5.37182617 L55.2060547,5.48132324 C55.0664056,5.99865981 54.8077411,6.40014506 54.4300537,6.68579102 C54.0523663,6.97143698 53.5699492,7.11425781 52.9827881,7.11425781 C52.2432824,7.11425781 51.6569236,6.88653792 51.2236938,6.43109131 C50.7904641,5.9756447 50.5738525,5.33691817 50.5738525,4.51489258 C50.5738525,3.66430239 50.7928445,3.00415274 51.230835,2.53442383 C51.6688254,2.06469492 52.236935,1.82983398 52.9351807,1.82983398 C53.6112094,1.82983398 54.16345,2.05993422 54.5919189,2.5201416 C55.0203879,2.98034898 55.2346191,3.62780344 55.2346191,4.46252441 C55.2346191,4.51330592 55.2330322,4.58947703 55.2298584,4.69104004 L51.4593506,4.69104004 C51.491089,5.24646274 51.6481919,5.67175145 51.9306641,5.96691895 C52.2131362,6.26208644 52.5654276,6.40966797 52.9875488,6.40966797 C53.3017594,6.40966797 53.5699452,6.32714926 53.7921143,6.16210938 C54.0142833,5.99706949 54.190429,5.73364439 54.3205566,5.37182617 Z M51.506958,3.9864502 L54.3300781,3.9864502 C54.291992,3.5611551 54.1840829,3.24218856 54.0063477,3.02954102 C53.7333971,2.69946124 53.3795188,2.53442383 52.9447021,2.53442383 C52.5511455,2.53442383 52.2202772,2.66613638 51.9520874,2.92956543 C51.6838976,3.19299448 51.5355226,3.54528588 51.506958,3.9864502 Z M56.2724609,7 L56.2724609,1.9440918 L57.0437012,1.9440918 L57.0437012,2.71057129 C57.2404795,2.35192692 57.4221793,2.11547909 57.5888062,2.0012207 C57.755433,1.88696232 57.9387197,1.82983398 58.1386719,1.82983398 C58.4274917,1.82983398 58.7210678,1.92187408 59.0194092,2.10595703 L58.7242432,2.90100098 C58.5147695,2.77722106 58.3052989,2.71533203 58.0958252,2.71533203 C57.9085684,2.71533203 57.7403572,2.77166692 57.5911865,2.88433838 C57.4420159,2.99700984 57.3356937,3.15331931 57.2722168,3.35327148 C57.1770015,3.65796051 57.1293945,3.99120913 57.1293945,4.35302734 L57.1293945,7 L56.2724609,7 Z M62.9898682,5.37182617 L63.8753662,5.48132324 C63.7357171,5.99865981 63.4770527,6.40014506 63.0993652,6.68579102 C62.7216778,6.97143698 62.2392607,7.11425781 61.6520996,7.11425781 C60.912594,7.11425781 60.3262351,6.88653792 59.8930054,6.43109131 C59.4597757,5.9756447 59.2431641,5.33691817 59.2431641,4.51489258 C59.2431641,3.66430239 59.462156,3.00415274 59.9001465,2.53442383 C60.338137,2.06469492 60.9062465,1.82983398 61.6044922,1.82983398 C62.280521,1.82983398 62.8327615,2.05993422 63.2612305,2.5201416 C63.6896994,2.98034898 63.9039307,3.62780344 63.9039307,4.46252441 C63.9039307,4.51330592 63.9023438,4.58947703 63.8991699,4.69104004 L60.1286621,4.69104004 C60.1604005,5.24646274 60.3175035,5.67175145 60.5999756,5.96691895 C60.8824477,6.26208644 61.2347391,6.40966797 61.6568604,6.40966797 C61.9710709,6.40966797 62.2392567,6.32714926 62.4614258,6.16210938 C62.6835949,5.99706949 62.8597406,5.73364439 62.9898682,5.37182617 Z M60.1762695,3.9864502 L62.9993896,3.9864502 C62.9613035,3.5611551 62.8533944,3.24218856 62.6756592,3.02954102 C62.4027086,2.69946124 62.0488303,2.53442383 61.6140137,2.53442383 C61.220457,2.53442383 60.8895887,2.66613638 60.6213989,2.92956543 C60.3532091,3.19299448 60.2048341,3.54528588 60.1762695,3.9864502 Z M68.2314453,7 L68.2314453,6.36206055 C67.9108871,6.8635279 67.4395783,7.11425781 66.8175049,7.11425781 C66.4144267,7.11425781 66.043886,7.00317494 65.7058716,6.78100586 C65.3678572,6.55883678 65.106019,6.24859818 64.9203491,5.85028076 C64.7346792,5.45196334 64.6418457,4.99414321 64.6418457,4.47680664 C64.6418457,3.97216545 64.7259513,3.51434532 64.894165,3.10333252 C65.0623788,2.69231972 65.3146956,2.37732043 65.651123,2.1583252 C65.9875505,1.93932996 66.3636454,1.82983398 66.7794189,1.82983398 C67.084108,1.82983398 67.3554676,1.89410336 67.5935059,2.02264404 C67.8315442,2.15118472 68.0251457,2.31860248 68.1743164,2.52490234 L68.1743164,0.0207519531 L69.0264893,0.0207519531 L69.0264893,7 L68.2314453,7 Z M65.522583,4.47680664 C65.522583,5.12427082 65.6590563,5.60827476 65.9320068,5.92883301 C66.2049574,6.24939125 66.5270978,6.40966797 66.8984375,6.40966797 C67.2729511,6.40966797 67.5911242,6.25653229 67.8529663,5.95025635 C68.1148084,5.6439804 68.2457275,5.17663888 68.2457275,4.54821777 C68.2457275,3.85631978 68.1124281,3.34851236 67.8458252,3.02478027 C67.5792223,2.70104819 67.2507344,2.53918457 66.8603516,2.53918457 C66.4794903,2.53918457 66.1613172,2.69470059 65.9058228,3.0057373 C65.6503283,3.31677402 65.522583,3.80712556 65.522583,4.47680664 Z M73.8729248,7 L73.0778809,7 L73.0778809,0.0207519531 L73.9348145,0.0207519531 L73.9348145,2.51062012 C74.2966327,2.05676043 74.75842,1.82983398 75.3201904,1.82983398 C75.6312271,1.82983398 75.9255968,1.89251646 76.2033081,2.0178833 C76.4810195,2.14325014 76.7095328,2.31939584 76.888855,2.54632568 C77.0681772,2.77325553 77.2086177,3.04699547 77.3101807,3.36755371 C77.4117437,3.68811195 77.4625244,4.03088196 77.4625244,4.39587402 C77.4625244,5.26233343 77.2482932,5.93200447 76.8198242,6.40490723 C76.3913553,6.87780998 75.8772003,7.11425781 75.2773438,7.11425781 C74.6806611,7.11425781 74.2125261,6.8651148 73.8729248,6.36682129 L73.8729248,7 Z M73.8634033,4.43395996 C73.8634033,5.04016416 73.945922,5.47814807 74.1109619,5.7479248 C74.3807387,6.18908912 74.7457252,6.40966797 75.2059326,6.40966797 C75.5804462,6.40966797 75.9041734,6.2470109 76.177124,5.92169189 C76.4500746,5.59637289 76.5865479,5.11157549 76.5865479,4.46728516 C76.5865479,3.80712561 76.4556288,3.31994786 76.1937866,3.0057373 C75.9319445,2.69152675 75.6153583,2.53442383 75.2440186,2.53442383 C74.869505,2.53442383 74.5457777,2.69708089 74.2728271,3.0223999 C73.9998766,3.34771891 73.8634033,3.81823423 73.8634033,4.43395996 Z M78.467041,8.94714355 L78.3718262,8.14257812 C78.559083,8.19335963 78.7225335,8.21875 78.8621826,8.21875 C79.0526133,8.21875 79.2049555,8.18701204 79.3192139,8.12353516 C79.4334723,8.06005828 79.5270992,7.97119198 79.6000977,7.85693359 C79.654053,7.77123981 79.7413324,7.55859545 79.8619385,7.21899414 C79.8778077,7.17138648 79.9031981,7.10156296 79.9381104,7.00952148 L78.0195312,1.9440918 L78.9431152,1.9440918 L79.9952393,4.87194824 C80.1317145,5.24328799 80.2539057,5.63366495 80.3618164,6.04309082 C80.4602056,5.64953417 80.577636,5.2655048 80.7141113,4.89099121 L81.7947998,1.9440918 L82.6517334,1.9440918 L80.7283936,7.08569336 C80.5220937,7.64111606 80.361817,8.02355852 80.2475586,8.23303223 C80.0952141,8.51550434 79.9206553,8.72259456 79.723877,8.85430908 C79.5270986,8.98602361 79.2922377,9.05187988 79.0192871,9.05187988 C78.8542472,9.05187988 78.670167,9.01696812 78.467041,8.94714355 Z" id="Poweredby" fill="#525C64" fill-rule="nonzero"></path>
                <g id="Logo/Symbol/Compact">
                    <polygon id="Logo---Body-color" fill="#0093ED" fill-rule="evenodd" points="0 0 24 0 24 24 0 24"></polygon>
                    <polygon id="Logo---Foot-color" fill="#78CBFF" fill-rule="evenodd" points="0 18 24 18 24 24 0 24"></polygon>
                    <path d="M17.4039812,6.31823182 C16.5085031,9.37092954 14.8992682,9.73267579 12.0021856,9.73267579 C9.10510305,9.73267579 7.49586814,9.37092954 6.60039007,6.31823182 L4.33,6.2895681 C5.57314374,10.5274631 8.08001076,12.7895681 12.0021856,12.7895681 C15.9243605,12.7895681 18.4312275,10.5274631 19.6743713,6.2895681 L17.4039812,6.31823182 Z" id="smile-shadow" fill-opacity="0.158517264" fill="#000000" fill-rule="nonzero"></path>
                    <path d="M17.5778144,5.31585621 C16.6531569,7.81242576 14.9914847,9 12,9 C9.00851528,9 7.34684307,7.81242576 6.42218564,5.31585621 L4.07781436,6.18414379 C5.36146624,9.6499962 7.95002012,11.5 12,11.5 C16.0499799,11.5 18.6385338,9.6499962 19.9221856,6.18414379 L17.5778144,5.31585621 Z" id="smile" fill="#FFFFFF" fill-rule="nonzero"></path>
                </g>
                <path d="M69.2757119,13.75 C71.893277,13.75 74.0512695,16.0451681 74.0512695,19.0189076 C74.0512695,21.9926471 71.893277,24.2878151 69.2757119,24.2878151 C67.9369573,24.2878151 66.957868,23.8287815 66.2984814,23.0703782 L66.2984814,28 L63.3012695,28 L63.3012695,14.0294118 L66.2984814,14.0294118 L66.2984814,14.967437 C66.957868,14.2090336 67.9369573,13.75 69.2757119,13.75 Z M35.9007092,13.75 C37.5283688,13.75 38.9751773,14.4659091 39.8191489,15.8778409 L37.2470449,17.25 C36.965721,16.7329545 36.5638298,16.375 35.9007092,16.375 C35.3782506,16.375 35.0567376,16.5738636 35.0567376,16.9318182 C35.0567376,18.0653409 40,17.3096591 40,20.9886364 C40,23.2755682 37.9905437,24.25 35.820331,24.25 C33.8108747,24.25 32.2836879,23.4943182 31.5,21.8835227 L34.1122931,20.4119318 C34.3735225,21.1676136 34.9361702,21.5852273 35.820331,21.5852273 C36.5437352,21.5852273 36.9054374,21.3664773 36.9054374,20.96875 C36.9054374,19.875 31.9621749,20.4517045 31.9621749,17.0113636 C31.9621749,14.84375 33.8108747,13.75 35.9007092,13.75 Z M78.3292431,10 L78.3292431,14.9296218 C78.9886298,14.1712185 79.967719,13.7121849 81.3064736,13.7121849 C83.9240387,13.7121849 86.0820312,16.0073529 86.0820312,18.9810924 C86.0820312,21.9548319 83.9240387,24.25 81.3064736,24.25 C79.967719,24.25 78.9886298,23.7909664 78.3292431,23.032563 L78.3292431,23.9705882 L75.3320312,23.9705882 L75.3320312,10 L78.3292431,10 Z M103.150813,13.75 C104.778472,13.75 106.225281,14.4659091 107.069253,15.8778409 L104.497149,17.25 C104.215825,16.7329545 103.813933,16.375 103.150813,16.375 C102.628354,16.375 102.306841,16.5738636 102.306841,16.9318182 C102.306841,18.0653409 107.250104,17.3096591 107.250104,20.9886364 C107.250104,23.2755682 105.240647,24.25 103.070435,24.25 C101.060978,24.25 99.5337915,23.4943182 98.7501036,21.8835227 L101.362397,20.4119318 C101.623626,21.1676136 102.186274,21.5852273 103.070435,21.5852273 C103.793839,21.5852273 104.155541,21.3664773 104.155541,20.96875 C104.155541,19.875 99.2122785,20.4517045 99.2122785,17.0113636 C99.2122785,14.84375 101.060978,13.75 103.150813,13.75 Z M56.8710938,13.75 C59.7833579,13.75 62.1210938,16.0369318 62.1210938,19 C62.1210938,21.9630682 59.7833579,24.25 56.8710938,24.25 C53.9588296,24.25 51.6210938,21.9630682 51.6210938,19 C51.6210938,16.0369318 53.9588296,13.75 56.8710938,13.75 Z M91.7064209,13.75 C93.0451755,13.75 94.0242648,14.2073864 94.6836514,14.9630682 L94.6836514,14.0284091 L97.6808633,14.0284091 L97.6808633,23.9715909 L94.6836514,23.9715909 L94.6836514,23.0369318 C94.0242648,23.7926136 93.0451755,24.25 91.7064209,24.25 C89.0888558,24.25 86.9308633,21.9630682 86.9308633,19 C86.9308633,16.0369318 89.0888558,13.75 91.7064209,13.75 Z M113.279716,13.75 C116.227793,13.75 118.408562,15.9971591 118.408562,19 C118.408562,19.4176136 118.368177,19.8153409 118.287408,20.1931818 L111.119139,20.1931818 C111.502793,21.2272727 112.431639,21.5852273 113.542216,21.5852273 C114.3701,21.5852273 115.076831,21.2670455 115.480677,20.8295455 L117.903754,22.2017045 C116.914331,23.5539773 115.4201,24.25 113.501831,24.25 C110.048946,24.25 107.908562,21.9630682 107.908562,19 C107.908562,16.0369318 110.089331,13.75 113.279716,13.75 Z M44.0275879,10 L44.0275879,14.94 C44.5619629,14.2 45.5515462,13.72 46.8577962,13.72 C48.8567546,13.72 50.5588379,15.16 50.5588379,17.86 L50.5588379,24 L47.5900879,24 L47.5900879,18.3 C47.5900879,17.06 46.8182129,16.48 45.8682129,16.48 C44.7796712,16.48 44.0275879,17.12 44.0275879,18.54 L44.0275879,24 L41.0588379,24 L41.0588379,10 L44.0275879,10 Z M68.6762695,16.5840336 C67.2975521,16.5840336 66.2984814,17.5220588 66.2984814,19.0189076 C66.2984814,20.5157563 67.2975521,21.4537815 68.6762695,21.4537815 C70.054987,21.4537815 71.0540576,20.5157563 71.0540576,19.0189076 C71.0540576,17.5220588 70.054987,16.5840336 68.6762695,16.5840336 Z M92.3058633,16.5738636 C90.9271458,16.5738636 89.9280752,17.5085227 89.9280752,19 C89.9280752,20.4914773 90.9271458,21.4261364 92.3058633,21.4261364 C93.6845807,21.4261364 94.6836514,20.4914773 94.6836514,19 C94.6836514,17.5085227 93.6845807,16.5738636 92.3058633,16.5738636 Z M80.7070313,16.5462185 C79.3283138,16.5462185 78.3292431,17.4842437 78.3292431,18.9810924 C78.3292431,20.4779412 79.3283138,21.4159664 80.7070313,21.4159664 C82.0857487,21.4159664 83.0848194,20.4779412 83.0848194,18.9810924 C83.0848194,17.4842437 82.0857487,16.5462185 80.7070313,16.5462185 Z M56.8710937,16.6534091 C55.5833579,16.6534091 54.5927919,17.5880682 54.5927919,19 C54.5927919,20.4119318 55.5833579,21.3465909 56.8710937,21.3465909 C58.1588296,21.3465909 59.1493956,20.4119318 59.1493956,19 C59.1493956,17.5880682 58.1588296,16.6534091 56.8710937,16.6534091 Z M113.259523,16.3948864 C112.108562,16.3948864 111.341254,16.9517045 111.058562,17.9659091 L115.399908,17.9659091 C115.076831,16.8125 114.168177,16.3948864 113.259523,16.3948864 Z" id="Logo---Type-color" fill="#131F37"></path>
            </g>
        </g>
    </g>
</svg>
