<svg width="368px" height="32px" viewBox="0 0 368 32" version="1.1" xmlns="http://www.w3.org/2000/svg" xmlns:xlink="http://www.w3.org/1999/xlink">
  <g id="48px-mastercard" transform="translate(48.000000, 0.000000)">
    <rect id="Rectangle" fill="#243747" x="0" y="0" width="32" height="24" rx="2.08695652"></rect>
    <ellipse id="Oval" fill="#E61C24" cx="12.5217391" cy="12" rx="5.56521739" ry="5.64705882"></ellipse>
    <ellipse id="Oval" fill="#F99F1B" cx="19.4323478" cy="12" rx="5.56521739" ry="5.64705882"></ellipse>
    <ellipse id="Oval" fill="#F26622" cx="15.9770435" cy="12" rx="2.10991304" ry="4.42164706"></ellipse>
    <path d="M16,16.4047059 C16.0646957,16.3517647 16.1231304,16.2910588 16.1857391,16.2352941 L15.8142609,16.2352941 C15.8768696,16.2910588 15.9353043,16.3517647 16,16.4047059 Z" id="Path" fill="#376BD1"></path>
  </g>
  <g id="48px-visa">
    <rect id="Rectangle" fill="#E6E6E6" x="0" y="4.94117647" width="32" height="13.4117647"></rect>
    <path d="M2.08695652,24 L29.9130435,24 C31.0657391,24 32,23.052 32,21.8823529 L32,18.3529412 L0,18.3529412 L0,21.8823529 C0,23.052 0.93426087,24 2.08695652,24 Z" id="Path" fill="#E79800"></path>
    <path d="M29.9130435,0 L2.08695652,0 C0.93426087,0 0,0.948 0,2.11764706 L0,5.64705882 L32,5.64705882 L32,2.11764706 C32,0.948 31.0657391,0 29.9130435,0 Z" id="Path" fill="#1A1876"></path>
    <polygon id="Path" fill="#1A1876" points="12.6873043 15.3882353 14.5022609 15.3882353 15.6382609 8.62870588 13.8226087 8.62870588"></polygon>
    <path d="M19.2994783,11.3428235 C18.6650435,11.0301176 18.2761739,10.8211765 18.2803478,10.5049412 C18.2803478,10.224 18.6093913,9.92329412 19.3203478,9.92329412 C19.901913,9.91411765 20.3707826,10.0341176 20.8424348,10.26 L21.0886957,8.79458824 C20.7290435,8.65764706 20.1655652,8.51082353 19.4615652,8.51082353 C17.6674783,8.51082353 16.4034783,9.42776471 16.3930435,10.7414118 C16.3826087,11.7127059 17.2953043,12.2548235 17.984,12.5781176 C18.6907826,12.9091765 18.9286957,13.1209412 18.9252174,13.4167059 C18.9210435,13.8698824 18.3610435,14.0767059 17.8386087,14.0767059 C17.0330435,14.0767059 16.6267826,13.9503529 15.8956522,13.6143529 L15.6410435,15.1277647 C16.0653913,15.3162353 16.8493913,15.48 17.664,15.4884706 C19.5728696,15.4884706 20.8118261,14.5821176 20.8257391,13.1788235 C20.8306087,12.4101176 20.3471304,11.8249412 19.2994783,11.3428235 Z" id="Path" fill="#1A1876"></path>
    <path d="M25.744,8.63505882 L24.3408696,8.63505882 C23.906087,8.63505882 23.5812174,8.75576471 23.389913,9.19552941 L20.6935652,15.3903529 L22.6003478,15.3903529 C22.6003478,15.3903529 22.912,14.5574118 22.9829565,14.3745882 C23.1916522,14.3745882 25.0434783,14.3774118 25.3085217,14.3774118 C25.3627826,14.6138824 25.5297391,15.3903529 25.5297391,15.3903529 L27.2146087,15.3903529 L25.744,8.63505882 Z M23.5053913,12.9924706 C23.5805217,12.7976471 24.3213913,10.8670588 24.4695652,10.4576471 C24.7151304,11.6230588 24.4758261,10.4922353 25.0128696,12.9924706 L23.5053913,12.9924706 Z" id="Shape" fill="#1A1876" fill-rule="nonzero"></path>
    <path d="M11.1645217,8.63364706 L9.38643478,13.2430588 L9.19721739,12.3063529 L8.56069565,9.19976471 C8.45078261,8.772 8.13217391,8.64423529 7.73773913,8.62941176 L4.80904348,8.62941176 L4.78608696,8.76988235 C5.49843478,8.94494118 6.13495652,9.19764706 6.69356522,9.51105882 L8.30817391,15.3818824 L10.2295652,15.3797647 L13.088,8.63294118 L11.1645217,8.63294118 L11.1645217,8.63364706 Z" id="Path" fill="#1A1876"></path>
  </g>
  <g id="48px-paypal" transform="translate(144.000000, 0.000000)">
    <path d="M29.9130435,0 L2.08695652,0 C0.93426087,0 0,0.948 0,2.11764706 L0,21.8823529 C0,23.052 0.93426087,24 2.08695652,24 L29.9130435,24 C31.0657391,24 32,23.052 32,21.8823529 L32,2.11764706 C32,0.948 31.0657391,0 29.9130435,0 Z" id="Path" fill="#E6E6E6"></path>
    <path d="M20.3770435,8.61388235 L18.4292174,8.61388235 C18.2963478,8.61388235 18.1829565,8.712 18.162087,8.84541176 L17.3746087,13.9136471 C17.3593043,14.0138824 17.4351304,14.1042353 17.5353043,14.1042353 L18.5349565,14.1042353 C18.6281739,14.1042353 18.7074783,14.0350588 18.722087,13.9418824 L18.9453913,12.5047059 C18.9662609,12.3712941 19.0796522,12.2731765 19.2125217,12.2731765 L19.8288696,12.2731765 C21.1116522,12.2731765 21.8525217,11.6428235 22.045913,10.3941176 C22.1328696,9.84776471 22.0493913,9.41858824 21.7975652,9.11858824 C21.52,8.78894118 21.0288696,8.61388235 20.3770435,8.61388235 Z M20.6017391,10.4654118 C20.4953043,11.1748235 19.9610435,11.1748235 19.4448696,11.1748235 L19.1513043,11.1748235 L19.3572174,9.84988235 C19.3697391,9.77011765 19.437913,9.71082353 19.517913,9.71082353 C19.9457391,9.71082353 20.3213913,9.69317647 20.5078261,9.91411765 C20.610087,10.0362353 20.6406957,10.2162353 20.6017391,10.4654118 Z" id="Shape" fill="#009EE3" fill-rule="nonzero"></path>
    <path d="M6.48347826,8.61388235 L4.53565217,8.61388235 C4.40278261,8.61388235 4.2893913,8.712 4.26852174,8.84541176 L3.48104348,13.9136471 C3.46573913,14.0138824 3.54156522,14.1042353 3.64173913,14.1042353 L4.57182609,14.1042353 C4.70469565,14.1042353 4.81808696,14.0061176 4.83895652,13.8727059 L5.05182609,12.5054118 C5.07269565,12.372 5.18608696,12.2738824 5.31895652,12.2738824 L5.93530435,12.2738824 C7.21808696,12.2738824 7.95895652,11.6435294 8.15234783,10.3948235 C8.23930435,9.84847059 8.15582609,9.41929412 7.904,9.11929412 C7.62573913,8.78894118 7.13530435,8.61388235 6.48347826,8.61388235 Z M6.70817391,10.4654118 C6.60173913,11.1748235 6.06747826,11.1748235 5.55130435,11.1748235 L5.25704348,11.1748235 L5.46295652,9.84988235 C5.47547826,9.77011765 5.54365217,9.71082353 5.62365217,9.71082353 L5.7586087,9.71082353 C6.10991304,9.71082353 6.44243478,9.71082353 6.61356522,9.91411765 C6.71582609,10.0362353 6.74713043,10.2162353 6.70817391,10.4654118 Z" id="Shape" fill="#113984" fill-rule="nonzero"></path>
    <path d="M12.306087,10.4428235 L11.3732174,10.4428235 C11.2932174,10.4428235 11.2250435,10.5021176 11.2125217,10.5818824 L11.1714783,10.8465882 C11.0810435,10.7131765 10.9008696,10.3538824 10.0041739,10.3538824 C8.97391304,10.3538824 8.09321739,11.1465882 7.92208696,12.2576471 C7.83304348,12.8117647 7.95965217,13.3418824 8.26921739,13.7117647 C8.55373913,14.0512941 8.96,14.1931765 9.44417391,14.1931765 C10.2747826,14.1931765 10.7353043,13.6517647 10.7353043,13.6517647 L10.6935652,13.9150588 C10.6782609,14.0152941 10.754087,14.1056471 10.8542609,14.1056471 L11.6946087,14.1056471 C11.8274783,14.1056471 11.9408696,14.0075294 11.9617391,13.8741176 L12.466087,10.6341176 C12.4813913,10.5331765 12.4055652,10.4428235 12.306087,10.4428235 Z M11.005913,12.2851765 C10.9161739,12.8258824 10.4925217,13.1887059 9.9533913,13.1887059 C9.68278261,13.1887059 9.46643478,13.1004706 9.32730435,12.9331765 C9.18956522,12.7672941 9.1373913,12.5315294 9.18121739,12.2682353 C9.2653913,11.7324706 9.69530435,11.3576471 10.2267826,11.3576471 C10.4918261,11.3576471 10.7067826,11.4465882 10.8486957,11.6152941 C10.9906087,11.7854118 11.0469565,12.0232941 11.005913,12.2851765 Z" id="Shape" fill="#113984" fill-rule="nonzero"></path>
    <path d="M26.1996522,10.4428235 L25.2667826,10.4428235 C25.1867826,10.4428235 25.1186087,10.5021176 25.106087,10.5818824 L25.0650435,10.8465882 C24.9746087,10.7131765 24.7944348,10.3538824 23.8977391,10.3538824 C22.8674783,10.3538824 21.9867826,11.1465882 21.8156522,12.2576471 C21.7266087,12.8117647 21.8532174,13.3418824 22.1627826,13.7117647 C22.4473043,14.0512941 22.8535652,14.1931765 23.3377391,14.1931765 C24.1683478,14.1931765 24.6288696,13.6517647 24.6288696,13.6517647 L24.5871304,13.9150588 C24.5718261,14.0152941 24.6476522,14.1056471 24.7478261,14.1056471 L25.5881739,14.1056471 C25.7210435,14.1056471 25.8344348,14.0075294 25.8553043,13.8741176 L26.3596522,10.6341176 C26.3756522,10.5331765 26.2991304,10.4428235 26.1996522,10.4428235 Z M24.8994783,12.2851765 C24.8090435,12.8258824 24.386087,13.1887059 23.8469565,13.1887059 C23.5763478,13.1887059 23.36,13.1004706 23.2208696,12.9331765 C23.0831304,12.7672941 23.0309565,12.5315294 23.0747826,12.2682353 C23.1589565,11.7324706 23.5888696,11.3576471 24.1203478,11.3576471 C24.3853913,11.3576471 24.6003478,11.4465882 24.7422609,11.6152941 C24.8841739,11.7854118 24.9405217,12.0232941 24.8994783,12.2851765 Z" id="Shape" fill="#009EE3" fill-rule="nonzero"></path>
    <path d="M17.2737391,10.4428235 L16.336,10.4428235 C16.2462609,10.4428235 16.1627826,10.488 16.112,10.5635294 L14.8187826,12.4962353 L14.2706087,10.6390588 C14.2365217,10.5225882 14.1307826,10.4428235 14.0111304,10.4428235 L13.0893913,10.4428235 C12.978087,10.4428235 12.8994783,10.5536471 12.9356522,10.6609412 L13.968,13.7357647 L12.9968696,15.1263529 C12.9203478,15.2357647 12.9975652,15.3861176 13.1290435,15.3861176 L14.0653913,15.3861176 C14.1544348,15.3861176 14.2372174,15.3416471 14.288,15.2682353 L17.405913,10.7018824 C17.4817391,10.5917647 17.4045217,10.4428235 17.2737391,10.4428235 Z" id="Path" fill="#113984"></path>
    <path d="M27.2987826,8.75364706 L26.4994783,13.9150588 C26.4841739,14.0152941 26.56,14.1056471 26.6601739,14.1056471 L27.4643478,14.1056471 C27.5972174,14.1056471 27.7106087,14.0075294 27.7314783,13.8741176 L28.5196522,8.80588235 C28.5349565,8.70564706 28.4591304,8.61529412 28.3589565,8.61529412 L27.4587826,8.61529412 C27.3794783,8.61388235 27.3113043,8.67317647 27.2987826,8.75364706 Z" id="Path" fill="#009EE3"></path>
  </g>
  <g id="48px_amazon" transform="translate(192.000000, 0.000000)">
    <path d="M29.9130435,0 L2.08695652,0 C0.93426087,0 0,0.948 0,2.11764706 L0,21.8823529 C0,23.052 0.93426087,24 2.08695652,24 L29.9130435,24 C31.0657391,24 32,23.052 32,21.8823529 L32,2.11764706 C32,0.948 31.0657391,0 29.9130435,0 Z" id="Path" fill="#002E64"></path>
    <path d="M19.0149565,14.4592941 C17.5596522,15.5491765 15.4504348,16.1287059 13.634087,16.1287059 C11.088,16.1287059 8.79582609,15.1736471 7.06086957,13.584 C6.92452174,13.4590588 7.04626087,13.2889412 7.20973913,13.3856471 C9.08173913,14.4910588 11.3961739,15.1567059 13.7871304,15.1567059 C15.3996522,15.1567059 17.1728696,14.8171765 18.8041739,14.1148235 C19.0497391,14.0089412 19.2556522,14.2792941 19.0149565,14.4592941 Z" id="Path" fill="#FE9B00"></path>
    <path d="M19.6201739,13.7583529 C19.4337391,13.5162353 18.3895652,13.644 17.9206957,13.7004706 C17.7787826,13.7174118 17.7565217,13.5917647 17.8845217,13.5007059 C18.7172174,12.9070588 20.082087,13.0785882 20.2406957,13.2769412 C20.4006957,13.4774118 20.1989565,14.8658824 19.4184348,15.5287059 C19.298087,15.6303529 19.184,15.576 19.2375652,15.4418824 C19.4135652,14.9964706 19.8066087,13.9997647 19.6201739,13.7583529 Z" id="Path" fill="#FE9B00"></path>
    <path d="M17.954087,9.30705882 L17.954087,8.73035294 C17.954087,8.64282353 18.0194783,8.58423529 18.098087,8.58423529 L20.6455652,8.58423529 C20.7269565,8.58423529 20.7923478,8.64423529 20.7923478,8.72964706 L20.7923478,9.22447059 C20.7916522,9.30776471 20.7227826,9.41576471 20.6003478,9.58729412 L19.2806957,11.4995294 C19.7704348,11.4875294 20.2886957,11.5623529 20.733913,11.8164706 C20.8347826,11.8729412 20.861913,11.9576471 20.8695652,12.0409412 L20.8695652,12.6564706 C20.8695652,12.7411765 20.7784348,12.8392941 20.6817391,12.7884706 C19.8977391,12.372 18.8570435,12.3261176 17.9895652,12.7934118 C17.9012174,12.8414118 17.808,12.7447059 17.808,12.66 L17.808,12.0748235 C17.808,11.9809412 17.8093913,11.8214118 17.9026087,11.6781176 L19.4316522,9.45247059 L18.1001739,9.45247059 C18.0201739,9.45247059 17.9547826,9.39317647 17.954087,9.30705882 Z" id="Path" fill="#FFFFFF"></path>
    <path d="M8.66086957,12.9098824 L7.88591304,12.9098824 C7.81217391,12.9049412 7.75304348,12.8484706 7.74747826,12.7771765 L7.74817391,8.74023529 C7.74817391,8.65976471 7.81495652,8.59482353 7.89773913,8.59482353 L8.61982609,8.59482353 C8.69565217,8.59905882 8.75617391,8.65694118 8.76104348,8.73035294 L8.76104348,9.25764706 L8.77565217,9.25764706 C8.96347826,8.748 9.31826087,8.51011765 9.79547826,8.51011765 C10.2803478,8.51011765 10.5843478,8.748 10.8013913,9.25764706 C10.9892174,8.748 11.4163478,8.51011765 11.872,8.51011765 C12.1975652,8.51011765 12.5523478,8.64635294 12.7693913,8.952 C13.0156522,9.29152941 12.9648696,9.78423529 12.9648696,10.2176471 L12.9641739,12.7651765 C12.9641739,12.8456471 12.8973913,12.9105882 12.8146087,12.9105882 L12.0403478,12.9105882 C11.9624348,12.9056471 11.9012174,12.8428235 11.9012174,12.7658824 L11.9012174,10.6256471 C11.9012174,10.4555294 11.9158261,10.0312941 11.8796522,9.86964706 C11.821913,9.59788235 11.648,9.52164706 11.424,9.52164706 C11.2361739,9.52164706 11.0406957,9.64941176 10.9606957,9.85270588 C10.8813913,10.0567059 10.8883478,10.3962353 10.8883478,10.6256471 L10.8883478,12.7651765 C10.8883478,12.8456471 10.8215652,12.9105882 10.7387826,12.9105882 L9.96452174,12.9105882 C9.8866087,12.9056471 9.8253913,12.8428235 9.8253913,12.7658824 L9.82469565,10.6256471 C9.82469565,10.1752941 9.89704348,9.51317647 9.34747826,9.51317647 C8.79026087,9.51317647 8.81182609,10.1590588 8.81182609,10.6256471 L8.81182609,12.7651765 C8.81043478,12.8449412 8.74295652,12.9098824 8.66086957,12.9098824 Z" id="Path" fill="#FFFFFF"></path>
    <path d="M22.9864348,8.50941176 C21.8650435,8.50941176 21.2424348,9.48635294 21.2424348,10.7435294 C21.2424348,11.9922353 21.8573913,12.9945882 22.9864348,12.9945882 C24.0716522,12.9945882 24.7589565,12.0176471 24.7589565,10.7858824 C24.7589565,9.51176471 24.1363478,8.50941176 22.9864348,8.50941176 Z M22.9864348,12.1623529 C22.3784348,12.1623529 22.386087,11.1091765 22.386087,10.6164706 C22.386087,10.1237647 22.4222609,9.33388235 22.994087,9.33388235 C23.2396522,9.33388235 23.4135652,9.444 23.5005217,9.72494118 C23.602087,10.0475294 23.616,10.4555294 23.616,10.7950588 C23.616,11.3124706 23.5867826,12.1623529 22.9864348,12.1623529 Z" id="Shape" fill="#FFFFFF" fill-rule="nonzero"></path>
    <path d="M26.2504348,12.9098824 L25.4782609,12.9098824 C25.4003478,12.9049412 25.3391304,12.8421176 25.3391304,12.7651765 L25.3377391,8.72682353 C25.344,8.65270588 25.4086957,8.59482353 25.4866087,8.59482353 L26.205913,8.59482353 C26.2733913,8.59835294 26.3290435,8.64494118 26.3436522,8.70776471 L26.3436522,9.32541176 L26.3582609,9.32541176 C26.5753043,8.77341176 26.8793043,8.51011765 27.4142609,8.51011765 C27.7613913,8.51011765 28.1015652,8.63788235 28.3186087,8.98588235 C28.5217391,9.30776471 28.5217391,9.852 28.5217391,10.2423529 L28.5217391,12.7821176 C28.5126957,12.8534118 28.450087,12.9091765 28.3728696,12.9091765 L27.5958261,12.9091765 C27.5241739,12.9042353 27.4664348,12.8512941 27.458087,12.7821176 L27.458087,10.5903529 C27.458087,10.1484706 27.5088696,9.50329412 26.9732174,9.50329412 C26.7846957,9.50329412 26.6114783,9.63105882 26.5245217,9.82588235 C26.416,10.0722353 26.4013913,10.3185882 26.4013913,10.5903529 L26.4013913,12.7637647 C26.4,12.8449412 26.3332174,12.9098824 26.2504348,12.9098824 Z" id="Path" fill="#FFFFFF"></path>
    <path d="M17.3036522,12.1701176 C17.1617391,11.9717647 17.0107826,11.8101176 17.0107826,11.4409412 L17.0107826,10.2155294 C17.0107826,9.696 17.0469565,9.21952941 16.669913,8.86164706 C16.3728696,8.57294118 15.8796522,8.47058824 15.5026087,8.47058824 C14.7652174,8.47058824 13.9422609,8.75011765 13.7690435,9.67482353 C13.7509565,9.77294118 13.8212174,9.82447059 13.8845217,9.83929412 L14.6358261,9.92188235 C14.706087,9.91835294 14.7568696,9.84847059 14.7707826,9.77717647 C14.8354783,9.45882353 15.0984348,9.30494118 15.394087,9.30494118 C15.5533913,9.30494118 15.7349565,9.36423529 15.8288696,9.50894118 C15.9373913,9.67058824 15.9227826,9.89223529 15.9227826,10.0792941 L15.9227826,10.1816471 C15.4733913,10.2324706 14.8855652,10.2670588 14.4653913,10.4541176 C13.9798261,10.6672941 13.6389565,11.1014118 13.6389565,11.7395294 C13.6389565,12.5569412 14.1467826,12.9656471 14.7993043,12.9656471 C15.3502609,12.9656471 15.6514783,12.8336471 16.0772174,12.3938824 C16.2177391,12.6007059 16.2643478,12.7009412 16.5217391,12.9176471 C16.5794783,12.9494118 16.6532174,12.9458824 16.7046957,12.8992941 L16.7067826,12.9014118 C16.861913,12.7616471 17.1429565,12.5138824 17.3008696,12.3790588 C17.3641739,12.3268235 17.3530435,12.2414118 17.3036522,12.1701176 Z M15.9234783,10.9821176 C15.9234783,11.2884706 15.9304348,11.544 15.7787826,11.8164706 C15.6556522,12.0381176 15.4594783,12.1743529 15.2424348,12.1743529 C14.9453913,12.1743529 14.7714783,11.9442353 14.7714783,11.604 C14.7714783,10.9341176 15.3634783,10.812 15.9241739,10.812 L15.9241739,10.9821176 L15.9234783,10.9821176 Z" id="Shape" fill="#FFFFFF" fill-rule="nonzero"></path>
    <path d="M7.14226087,12.1701176 C7.00034783,11.9717647 6.8493913,11.8101176 6.8493913,11.4409412 L6.8493913,10.2155294 C6.8493913,9.696 6.88556522,9.21952941 6.50852174,8.86164706 C6.21147826,8.57294118 5.71895652,8.47058824 5.34191304,8.47058824 C4.60452174,8.47058824 3.78086957,8.75011765 3.60834783,9.67482353 C3.59026087,9.77294118 3.66052174,9.82447059 3.72382609,9.83929412 L4.47513043,9.92188235 C4.5453913,9.91835294 4.59617391,9.84847059 4.61008696,9.77717647 C4.67478261,9.45882353 4.93773913,9.30494118 5.2333913,9.30494118 C5.39269565,9.30494118 5.57426087,9.36423529 5.66817391,9.50894118 C5.77669565,9.67058824 5.76208696,9.89223529 5.76208696,10.0792941 L5.76208696,10.1816471 C5.31269565,10.2324706 4.72556522,10.2670588 4.30469565,10.4541176 C3.81913043,10.6672941 3.47826087,11.1014118 3.47826087,11.7395294 C3.47826087,12.5569412 3.98608696,12.9656471 4.6386087,12.9656471 C5.18956522,12.9656471 5.49078261,12.8336471 5.91652174,12.3938824 C6.05704348,12.6007059 6.10365217,12.7009412 6.36104348,12.9176471 C6.41878261,12.9494118 6.49252174,12.9458824 6.544,12.8992941 L6.54608696,12.9014118 C6.70052174,12.7616471 6.98226087,12.5138824 7.14017391,12.3790588 C7.20278261,12.3268235 7.19165217,12.2414118 7.14226087,12.1701176 Z M5.76208696,10.9821176 C5.76208696,11.2884706 5.76904348,11.544 5.6173913,11.8164706 C5.49426087,12.0381176 5.29808696,12.1743529 5.08104348,12.1743529 C4.784,12.1743529 4.61008696,11.9442353 4.61008696,11.604 C4.61008696,10.9341176 5.20208696,10.812 5.76278261,10.812 L5.76278261,10.9821176 L5.76208696,10.9821176 Z" id="Shape" fill="#FFFFFF" fill-rule="nonzero"></path>
  </g>
  <g id="48px_amex" transform="translate(96.000000, 0.000000)">
    <path d="M29.9130435,0 L2.08695652,0 C0.93426087,0 0,0.948 0,2.11764706 L0,21.8823529 C0,23.052 0.93426087,24 2.08695652,24 L29.9130435,24 C31.0657391,24 32,23.052 32,21.8823529 L32,2.11764706 C32,0.948 31.0657391,0 29.9130435,0 Z" id="Path" fill="#007AC6"></path>
    <path d="M6.63165217,12.3028235 L8.25252174,12.3028235 L7.44208696,10.2861176 L6.63165217,12.3028235 Z M29.2173913,8.47058824 L25.0650435,8.47058824 L24.0521739,9.57952941 L23.1401739,8.47058824 L14.3290435,8.47058824 L13.5186087,10.2854118 L12.7081739,8.47058824 L9.16313043,8.47058824 L9.16313043,9.27741176 L8.75826087,8.47058824 L5.71965217,8.47058824 L2.7826087,15.5294118 L6.32765217,15.5294118 L6.73252174,14.4204706 L7.7453913,14.4204706 L8.15026087,15.5294118 L12.1001739,15.5294118 L12.1001739,14.7225882 L12.4041739,15.5294118 L14.429913,15.5294118 L14.733913,14.6216471 L14.733913,15.5294118 L22.8368696,15.5294118 L23.8497391,14.4204706 L24.7610435,15.5294118 L28.9133913,15.5294118 L26.2803478,12 L29.2173913,8.47058824 Z M16.962087,14.5207059 L15.8476522,14.5207059 L15.8476522,10.5882353 L14.125913,14.5207059 L13.1130435,14.5207059 L11.3913043,10.5882353 L11.3913043,14.5207059 L9.06156522,14.5207059 L8.65669565,13.4117647 L6.22608696,13.4117647 L5.82121739,14.5207059 L4.50434783,14.5207059 L6.63095652,9.47858824 L8.35269565,9.47858824 L10.2768696,14.2178824 L10.2768696,9.47858824 L12.2010435,9.47858824 L13.7203478,12.9070588 L15.138087,9.47858824 L17.0622609,9.47858824 L17.0622609,14.5207059 L16.962087,14.5207059 L16.962087,14.5207059 Z M26.9892174,14.5207059 L25.469913,14.5207059 L24.1530435,12.8061176 L22.6337391,14.5207059 L18.0758261,14.5207059 L18.0758261,9.47858824 L22.7346087,9.47858824 L24.1523478,11.0922353 L25.6716522,9.47858824 L27.0893913,9.47858824 L24.861913,12 L26.9892174,14.5207059 Z M19.1902609,10.4872941 L19.1902609,11.3950588 L21.7224348,11.3950588 L21.7224348,12.4037647 L19.1902609,12.4037647 L19.1902609,13.4117647 L22.0264348,13.4117647 L23.3433043,11.8990588 L22.128,10.4872941 L19.1902609,10.4872941 Z" id="Shape" fill="#FFFFFF" fill-rule="nonzero"></path>
  </g>
  <g transform="translate(240, 0)">
    <polygon id="Star" fill="#33B2FF" fill-rule="evenodd" points="16 31.3230678 14.0714131 32.8796964 12.5601044 30.8923364 10.3263218 31.927768 9.32012307 29.6251747 6.91096405 30.0792338 6.46835188 27.5952256 4.02382803 27.4415239 4.17052544 24.9204623 1.83270359 24.1679323 2.56018506 21.7563323 0.464930921 20.4487085 1.73091787 18.2867234 0 16.5 1.73091787 14.7132766 0.464930921 12.5512915 2.56018506 11.2436677 1.83270359 8.83206766 4.17052544 8.07953774 4.02382803 5.55847614 6.46835188 5.40477443 6.91096405 2.92076621 9.32012307 3.3748253 10.3263218 1.072232 12.5601044 2.10766361 14.0714131 0.120303577 16 1.6769322 17.9285869 0.120303577 19.4398956 2.10766361 21.6736782 1.072232 22.6798769 3.3748253 25.0890359 2.92076621 25.5316481 5.40477443 27.976172 5.55847614 27.8294746 8.07953774 30.1672964 8.83206766 29.4398149 11.2436677 31.5350691 12.5512915 30.2690821 14.7132766 32 16.5 30.2690821 18.2867234 31.5350691 20.4487085 29.4398149 21.7563323 30.1672964 24.1679323 27.8294746 24.9204623 27.976172 27.4415239 25.5316481 27.5952256 25.0890359 30.0792338 22.6798769 29.6251747 21.6736782 31.927768 19.4398956 30.8923364 17.9285869 32.8796964"></polygon>
    <path d="M9.03198529,12.0742187 C9.24726415,11.6946596 9.47816462,11.3401709 9.72469363,11.0107422 C9.97122264,10.6813135 10.2333728,10.3930676 10.511152,10.1459961 C10.7889311,9.89892455 11.0753866,9.70377676 11.370527,9.56054688 C11.6656673,9.41731699 11.9694837,9.34570312 12.2819853,9.34570312 C12.4278194,9.34570312 12.5858039,9.37792937 12.7559436,9.44238281 C12.9260834,9.50683626 13.0840679,9.61246671 13.229902,9.75927734 C13.375736,9.90608797 13.4955265,10.1030261 13.589277,10.3500977 C13.6830274,10.5971692 13.729902,10.9033185 13.729902,11.2685547 L13.729902,24.0947266 C13.729902,24.3668633 13.7559434,24.5942374 13.808027,24.7768555 C13.8601106,24.9594736 13.9226099,25.111653 13.995527,25.2333984 C14.068444,25.3551438 14.1500404,25.4518226 14.2403186,25.5234375 C14.3305969,25.5950524 14.4121933,25.6595049 14.4851103,25.7167969 C14.5580273,25.7740888 14.6205267,25.8277992 14.6726103,25.8779297 C14.7246939,25.9280601 14.7507353,25.9925126 14.7507353,26.0712891 C14.7507353,26.157227 14.7246939,26.2431636 14.6726103,26.3291016 C14.6205267,26.4150395 14.5476108,26.4956051 14.4538603,26.5708008 C14.3601098,26.6459965 14.2472637,26.7068683 14.1153186,26.753418 C13.9833735,26.7999677 13.8340695,26.8232422 13.667402,26.8232422 C13.5076789,26.8232422 13.3358057,26.7874353 13.151777,26.7158203 C12.9677483,26.6442054 12.795875,26.5170908 12.636152,26.3344727 C12.4764289,26.1518546 12.3427497,25.9101578 12.2351103,25.609375 C12.1274709,25.3085922 12.0701798,24.9254581 12.0632353,24.4599609 L12.0632353,11.3974609 C12.0632353,11.2542311 12.0424022,11.1665041 12.0007353,11.1342773 C11.9590684,11.1020506 11.9174022,11.0859375 11.8757353,11.0859375 C11.7646236,11.0859375 11.6187918,11.1736645 11.4382353,11.3491211 C11.2576788,11.5245777 11.0615002,11.7555324 10.8496936,12.0419922 C10.637887,12.328452 10.4243475,12.6560854 10.2090686,13.0249023 C9.99378977,13.3937193 9.79934727,13.7750631 9.62573529,14.1689453 C9.45212331,14.5628275 9.30976363,14.9513327 9.19865196,15.3344727 C9.08754029,15.7176126 9.03198529,16.0631495 9.03198529,16.3710937 L9.03198529,24.8574219 C9.03198529,25.0436207 8.97295811,25.174316 8.85490196,25.2495117 C8.73684581,25.3247074 8.59795831,25.3623047 8.43823529,25.3623047 C8.31323467,25.3623047 8.18823529,25.3444012 8.06323529,25.3085937 C7.93823467,25.2727863 7.82538858,25.2262373 7.72469363,25.1689453 C7.62399868,25.1116534 7.54066618,25.0454105 7.47469363,24.9702148 C7.40872108,24.8950192 7.37573529,24.8144536 7.37573529,24.7285156 L7.37573529,11.0644531 C6.89656623,11.1289066 6.44344576,11.2685536 6.01636029,11.4833984 C5.58927483,11.6982433 5.21775076,11.9918601 4.90177696,12.3642578 C4.58580316,12.7366555 4.33580566,13.1878229 4.15177696,13.7177734 C3.96774826,14.247724 3.87573529,14.8600226 3.87573529,15.5546875 C3.87573529,15.9987001 3.92087373,16.3979474 4.01115196,16.7524414 C4.10143019,17.1069354 4.209068,17.4077136 4.33406863,17.6547852 C4.45906925,17.9018567 4.584068,18.0934238 4.70906863,18.2294922 C4.83406925,18.3655606 4.9312905,18.4335937 5.00073529,18.4335937 C5.06323561,18.4335937 5.12226279,18.419271 5.17781863,18.390625 C5.23337446,18.361979 5.28892946,18.3476562 5.34448529,18.3476562 C5.45559696,18.3476562 5.51115196,18.4371736 5.51115196,18.6162109 C5.51115196,18.8024098 5.47816618,18.9832348 5.41219363,19.1586914 C5.34622108,19.334148 5.25768029,19.4881178 5.14656863,19.6206055 C5.03545696,19.7530931 4.9121943,19.8605139 4.77677696,19.9428711 C4.64135962,20.0252283 4.50420821,20.0664062 4.36531863,20.0664062 C4.18476217,20.0664062 3.96948654,19.9518241 3.71948529,19.7226562 C3.46948404,19.4934884 3.2316392,19.1783874 3.00594363,18.7773437 C2.78024805,18.3763001 2.58754165,17.9000679 2.42781863,17.3486328 C2.26809561,16.7971978 2.18823529,16.199222 2.18823529,15.5546875 C2.18823529,14.7812461 2.27851217,14.088382 2.45906863,13.4760742 C2.63962509,12.8637665 2.88094212,12.3284528 3.18302696,11.8701172 C3.4851118,11.4117816 3.83753884,11.021486 4.24031863,10.6992188 C4.64309842,10.3769515 5.06670529,10.1155609 5.51115196,9.91503906 C5.95559863,9.71451723 6.406983,9.56949915 6.86531863,9.47998047 C7.32365425,9.39046179 7.76114988,9.34570312 8.17781863,9.34570312 C8.28893029,9.34570312 8.39656811,9.36897763 8.50073529,9.41552734 C8.60490248,9.46207706 8.69517936,9.52652954 8.77156863,9.60888672 C8.8479579,9.6912439 8.91045727,9.78971297 8.95906863,9.90429688 C9.00767998,10.0188808 9.03198529,10.1406244 9.03198529,10.2695312 L9.03198529,12.0742187 Z M20.1302916,18.3476562 C20.1302916,18.7558614 20.062584,19.1748025 19.9271666,19.6044922 C19.7917493,20.0341818 19.5903624,20.4405905 19.323,20.8237305 C19.0556375,21.2068704 18.7257797,21.550617 18.3334166,21.8549805 C17.9410536,22.159344 17.4879331,22.3902987 16.9740416,22.5478516 C17.0434864,22.7340504 17.1354994,22.9112947 17.2500833,23.0795898 C17.3646672,23.247885 17.5018186,23.392903 17.6615416,23.5146484 C17.8212646,23.6363938 18.0070267,23.7330726 18.2188333,23.8046875 C18.4306399,23.8763024 18.6754291,23.9121094 18.9532083,23.9121094 C19.369877,23.9121094 19.7275124,23.8315438 20.026125,23.6704102 C20.3247376,23.5092765 20.5764712,23.2962253 20.7813333,23.03125 C20.9861954,22.7662747 21.1511243,22.4690772 21.276125,22.1396484 C21.4011256,21.8102197 21.4948746,21.4772152 21.557375,21.140625 C21.6059863,20.8971342 21.7049437,20.7342127 21.85425,20.6518555 C22.0035563,20.5694983 22.1563325,20.5498045 22.3125833,20.5927734 C22.4688341,20.6357424 22.6042494,20.7270501 22.7188333,20.8666992 C22.8334172,21.0063484 22.8802917,21.1728506 22.8594583,21.3662109 C22.8316804,21.5882173 22.7848058,21.8424465 22.7188333,22.1289062 C22.6528607,22.415366 22.5539034,22.7054022 22.4219583,22.9990234 C22.2900132,23.2926447 22.1216121,23.5808905 21.91675,23.8637695 C21.7118878,24.1466485 21.4601542,24.3990874 21.1615416,24.6210938 C20.862929,24.8431001 20.5122381,25.0221347 20.1094583,25.1582031 C19.7066785,25.2942715 19.2448776,25.3623047 18.7240416,25.3623047 C18.2379281,25.3623047 17.7674467,25.2638356 17.3125833,25.0668945 C16.8577199,24.8699534 16.4549462,24.5870787 16.10425,24.2182617 C15.7535538,23.8494448 15.4723066,23.3946967 15.2605,22.8540039 C15.0486933,22.3133111 14.9427916,21.6992222 14.9427916,21.0117187 C14.9427916,20.3170538 15.0365407,19.6707387 15.2240416,19.0727539 C15.4115426,18.4747691 15.6580679,17.957359 15.963625,17.5205078 C16.269182,17.0836567 16.6164008,16.7417005 17.0052916,16.4946289 C17.3941825,16.2475574 17.793484,16.1240234 18.2032083,16.1240234 C18.5018209,16.1240234 18.7709154,16.1777338 19.0105,16.2851562 C19.2500845,16.3925787 19.4532075,16.5447581 19.619875,16.7416992 C19.7865425,16.9386403 19.9132773,17.1731757 20.0000833,17.4453125 C20.0868893,17.7174493 20.1302916,18.0182275 20.1302916,18.3476562 Z M16.6927916,20.9472656 C16.6927916,21.0117191 16.6962638,21.0761716 16.7032083,21.140625 C16.7101528,21.2050784 16.713625,21.2731116 16.713625,21.3447266 C16.9775152,21.2158197 17.2170961,21.0511078 17.432375,20.8505859 C17.6476538,20.6500641 17.8316798,20.4208997 17.9844583,20.1630859 C18.1372368,19.9052721 18.2552912,19.6241877 18.338625,19.3198242 C18.4219587,19.0154607 18.463625,18.6985694 18.463625,18.3691406 C18.463625,18.1256498 18.4236948,17.9358731 18.3438333,17.7998047 C18.2639718,17.6637363 18.1545979,17.5957031 18.0157083,17.5957031 C17.8420963,17.5957031 17.687584,17.6565749 17.5521666,17.7783203 C17.4167493,17.9000657 17.2986949,18.0594066 17.198,18.2563477 C17.097305,18.4532887 17.0139725,18.6752917 16.948,18.9223633 C16.8820274,19.1694348 16.8282085,19.418293 16.7865416,19.6689453 C16.7448748,19.9195976 16.7170973,20.1577137 16.7032083,20.3833008 C16.6893194,20.6088878 16.6858471,20.7968742 16.6927916,20.9472656 Z M25.1610514,17.4238281 C25.1610514,17.2161448 25.1471627,17.0657557 25.1193848,16.9726562 C25.0916068,16.8795568 25.0777181,16.7936202 25.0777181,16.7148437 C25.0777181,16.6074213 25.131537,16.5196944 25.2391764,16.4516602 C25.3468159,16.383626 25.4770229,16.3496094 25.6298014,16.3496094 C25.9839699,16.3496094 26.2652171,16.4444977 26.4735514,16.6342773 C26.6818858,16.8240569 26.7860514,17.051431 26.7860514,17.3164062 L26.7860514,22.3544922 C26.7929959,22.58366 26.8120929,22.7949209 26.8433431,22.9882812 C26.8745933,23.1816416 26.9284122,23.3463535 27.0048014,23.4824219 C27.0811907,23.6184903 27.1853563,23.7241207 27.3173014,23.7993164 C27.4492465,23.8745121 27.6193837,23.9121094 27.8277181,23.9121094 C28.029108,23.9121094 28.1975091,23.8709314 28.3329264,23.7885742 C28.4683438,23.706217 28.5777177,23.5934252 28.6610514,23.4501953 C28.7443852,23.3069654 28.8034124,23.1404632 28.8381348,22.9506836 C28.8728572,22.760904 28.8902181,22.5621755 28.8902181,22.3544922 L28.8902181,17.4238281 C28.8902181,17.2161448 28.8763293,17.0657557 28.8485514,16.9726562 C28.8207735,16.8795568 28.8068848,16.7936202 28.8068848,16.7148437 C28.8068848,16.6074213 28.8624398,16.5196944 28.9735514,16.4516602 C29.0846631,16.383626 29.2166062,16.3496094 29.3693848,16.3496094 C29.7235532,16.3496094 30.0030643,16.4444977 30.2079264,16.6342773 C30.4127886,16.8240569 30.5152181,17.051431 30.5152181,17.3164062 L30.5152181,22.3544922 C30.5152181,22.6982439 30.4822323,23.0473615 30.4162598,23.4018555 C30.3502872,23.7563494 30.2235524,24.0786118 30.0360514,24.3686523 C29.8485505,24.6586929 29.5846642,24.896809 29.2443848,25.0830078 C28.9041053,25.2692067 28.4596653,25.3623047 27.9110514,25.3623047 C27.6818836,25.3623047 27.466608,25.3336591 27.2652181,25.2763672 C27.0638282,25.2190752 26.8798023,25.1420903 26.7131348,25.0454102 C26.5464673,24.94873 26.4006354,24.8377285 26.2756348,24.7124023 C26.1506341,24.5870762 26.0499407,24.4528002 25.9735514,24.3095703 C25.9041066,24.4528002 25.8016771,24.5870762 25.6662598,24.7124023 C25.5308424,24.8377285 25.3763301,24.94873 25.2027181,25.0454102 C25.0291061,25.1420903 24.841608,25.2190752 24.6402181,25.2763672 C24.4388282,25.3336591 24.2374413,25.3623047 24.0360514,25.3623047 C23.6402161,25.3623047 23.3016778,25.3157557 23.0204264,25.2226562 C22.739175,25.1295568 22.5013302,25.0024422 22.3068848,24.8413086 C22.1124393,24.680175 21.957927,24.4957693 21.8433431,24.2880859 C21.7287592,24.0804026 21.6402184,23.865561 21.5777181,23.6435547 C21.5152178,23.4215484 21.4752876,23.1959647 21.4579264,22.9667969 C21.4405652,22.7376291 21.4318848,22.5263682 21.4318848,22.3330078 L21.4318848,17.4238281 C21.4318848,17.2161448 21.4162599,17.0657557 21.3850098,16.9726562 C21.3537596,16.8795568 21.3381348,16.7936202 21.3381348,16.7148437 C21.3381348,16.6074213 21.3936898,16.5196944 21.5048014,16.4516602 C21.6159131,16.383626 21.7478562,16.3496094 21.9006348,16.3496094 C22.2548032,16.3496094 22.5343143,16.4444977 22.7391764,16.6342773 C22.9440386,16.8240569 23.0464681,17.051431 23.0464681,17.3164062 L23.0464681,22.3544922 C23.0464681,22.5478525 23.0586208,22.7394196 23.0829264,22.9291992 C23.1072321,23.1189788 23.1558427,23.2854811 23.2287598,23.4287109 C23.3016768,23.5719408 23.4075785,23.6883134 23.5464681,23.777832 C23.6853577,23.8673507 23.8693836,23.9121094 24.0985514,23.9121094 C24.2999413,23.9121094 24.4683424,23.8709314 24.6037598,23.7885742 C24.7391771,23.706217 24.848551,23.5934252 24.9318848,23.4501953 C25.0152185,23.3069654 25.0742457,23.1404632 25.1089681,22.9506836 C25.1436905,22.760904 25.1610514,22.5621755 25.1610514,22.3544922 L25.1610514,17.4238281 Z" id="New" fill="#FFFFFF" fill-rule="nonzero"></path>
  </g>
  <g transform="translate(288, 0)">
    <polygon id="Star" fill="#EC3D13" fill-rule="evenodd" points="16 31.3230678 14.0714131 32.8796964 12.5601044 30.8923364 10.3263218 31.927768 9.32012307 29.6251747 6.91096405 30.0792338 6.46835188 27.5952256 4.02382803 27.4415239 4.17052544 24.9204623 1.83270359 24.1679323 2.56018506 21.7563323 0.464930921 20.4487085 1.73091787 18.2867234 0 16.5 1.73091787 14.7132766 0.464930921 12.5512915 2.56018506 11.2436677 1.83270359 8.83206766 4.17052544 8.07953774 4.02382803 5.55847614 6.46835188 5.40477443 6.91096405 2.92076621 9.32012307 3.3748253 10.3263218 1.072232 12.5601044 2.10766361 14.0714131 0.120303577 16 1.6769322 17.9285869 0.120303577 19.4398956 2.10766361 21.6736782 1.072232 22.6798769 3.3748253 25.0890359 2.92076621 25.5316481 5.40477443 27.976172 5.55847614 27.8294746 8.07953774 30.1672964 8.83206766 29.4398149 11.2436677 31.5350691 12.5512915 30.2690821 14.7132766 32 16.5 30.2690821 18.2867234 31.5350691 20.4487085 29.4398149 21.7563323 30.1672964 24.1679323 27.8294746 24.9204623 27.976172 27.4415239 25.5316481 27.5952256 25.0890359 30.0792338 22.6798769 29.6251747 21.6736782 31.927768 19.4398956 30.8923364 17.9285869 32.8796964"></polygon>
    <path d="M7.62598039,25.5449219 C7.17458925,25.5449219 6.799593,25.4930018 6.50098039,25.3891602 C6.20236779,25.2853185 5.96625904,25.168946 5.79264706,25.0400391 C5.61903508,24.9111322 5.49750852,24.7875982 5.42806373,24.6694336 C5.35861893,24.5512689 5.32389706,24.474284 5.32389706,24.4384766 C5.32389706,24.3095697 5.35167456,24.171713 5.40723039,24.0249023 C5.46278623,23.8780917 5.53222998,23.7420254 5.61556373,23.6166992 C5.69889748,23.4913731 5.78917435,23.3857426 5.88639706,23.2998047 C5.98361977,23.2138668 6.07042445,23.1708984 6.14681373,23.1708984 C6.24403643,23.1708984 6.32389675,23.2353509 6.38639706,23.3642578 L6.49056373,23.4716797 C6.54611956,23.5289716 6.62424378,23.5880531 6.72493873,23.6489258 C6.82563367,23.7097985 6.95063242,23.7652992 7.09993873,23.8154297 C7.24924503,23.8655601 7.4245905,23.890625 7.62598039,23.890625 C8.06348258,23.890625 8.42111789,23.7527683 8.69889706,23.4770508 C8.97667623,23.2013333 9.11556373,22.8271508 9.11556373,22.3544922 C9.11556373,22.0250635 9.04091169,21.7314466 8.89160539,21.4736328 C8.74229909,21.215819 8.5461205,20.9759126 8.30306373,20.7539062 C8.06000695,20.5318999 7.78223195,20.315268 7.46973039,20.1040039 C7.15722883,19.8927398 6.83778758,19.6725272 6.51139706,19.4433594 C6.18500654,19.2141916 5.86556529,18.9671237 5.55306373,18.7021484 C5.24056373,18.4371732 4.96278716,18.1328142 4.71973039,17.7890625 C4.47667362,17.4453108 4.28049503,17.0568056 4.13118873,16.6235352 C3.98188242,16.1902648 3.90723039,15.6943387 3.90723039,15.1357422 C3.90723039,14.6559221 3.9870907,14.1725285 4.14681373,13.6855469 C4.30653675,13.1985653 4.52702065,12.7348655 4.80827206,12.2944336 C5.08952347,11.8540017 5.42111737,11.442222 5.80306373,11.059082 C6.18501008,10.6759421 6.59820039,10.3429376 7.04264706,10.0600586 C7.48709373,9.77717958 7.95063076,9.55517659 8.43327206,9.39404297 C8.91591336,9.23290935 9.40028352,9.15234375 9.88639706,9.15234375 C10.3030658,9.15234375 10.6780621,9.22037692 11.0113971,9.35644531 C11.3447321,9.4925137 11.6259792,9.6840808 11.8551471,9.93115234 C12.0843149,10.1782239 12.2613964,10.4754214 12.3863971,10.8227539 C12.5113977,11.1700864 12.5738971,11.5585916 12.5738971,11.9882812 C12.5738971,12.3964864 12.5044533,12.7975241 12.3655637,13.1914062 C12.2266741,13.5852884 12.0426482,13.9576805 11.8134804,14.3085938 C11.5843126,14.659507 11.3256346,14.9835597 11.0374387,15.2807617 C10.7492428,15.5779637 10.4541069,15.8357736 10.1520221,16.0541992 C9.84993722,16.2726248 9.55653737,16.4427077 9.27181373,16.5644531 C8.98709008,16.6861985 8.73709258,16.7470703 8.52181373,16.7470703 C8.33431279,16.7470703 8.16591169,16.7023116 8.01660539,16.612793 C7.86729909,16.5232743 7.74230034,16.4122728 7.64160539,16.2797852 C7.54091044,16.1472975 7.46278623,16.0076505 7.40723039,15.8608398 C7.35167456,15.7140292 7.32389706,15.5833339 7.32389706,15.46875 C7.32389706,15.3756506 7.33604972,15.3147788 7.36035539,15.2861328 C7.38466107,15.2574868 7.41938294,15.2449544 7.46452206,15.2485352 C7.50966117,15.2521159 7.56695227,15.262858 7.63639706,15.2807617 C7.70584185,15.2986655 7.78570216,15.3076172 7.87598039,15.3076172 C8.16764852,15.3076172 8.49056195,15.2037771 8.84473039,14.9960938 C9.19889883,14.7884104 9.53222883,14.5234391 9.84473039,14.2011719 C10.157232,13.8789046 10.4193821,13.524416 10.6311887,13.1376953 C10.8429953,12.7509746 10.9488971,12.3750018 10.9488971,12.0097656 C10.9488971,11.6373679 10.8603563,11.3437511 10.6832721,11.1289062 C10.5061878,10.9140614 10.2058436,10.8066406 9.78223039,10.8066406 C9.51834018,10.8066406 9.23188472,10.8585607 8.92285539,10.9624023 C8.61382607,11.066244 8.30306529,11.2112621 7.99056373,11.3974609 C7.67806216,11.5836598 7.37598185,11.8092435 7.08431373,12.0742188 C6.7926456,12.339194 6.53570373,12.6310205 6.31348039,12.949707 C6.09125706,13.2683935 5.9124394,13.6121401 5.77702206,13.980957 C5.64160472,14.349774 5.57389706,14.7346985 5.57389706,15.1357422 C5.57389706,15.5582703 5.64854909,15.9360335 5.79785539,16.269043 C5.94716169,16.6020524 6.14507638,16.904621 6.39160539,17.1767578 C6.6381344,17.4488946 6.9176455,17.6995431 7.23014706,17.9287109 C7.54264862,18.1578788 7.86208987,18.3852528 8.18848039,18.6108398 C8.51487091,18.8364269 8.83431216,19.069172 9.14681373,19.309082 C9.45931529,19.5489921 9.73882638,19.8139634 9.98535539,20.1040039 C10.2318844,20.3940444 10.4297991,20.7163068 10.5791054,21.0708008 C10.7284117,21.4252947 10.8030637,21.8317034 10.8030637,22.2900391 C10.8030637,22.7340517 10.7214673,23.1547832 10.5582721,23.5522461 C10.3950768,23.949709 10.1711207,24.2952459 9.88639706,24.5888672 C9.60167341,24.8824884 9.26487123,25.1152335 8.87598039,25.2871094 C8.48708956,25.4589852 8.07042706,25.5449219 7.62598039,25.5449219 Z M18.4019407,23.9121094 C18.6172195,23.9121094 18.8029816,23.8333341 18.9592323,23.6757813 C19.1154831,23.5182284 19.2508984,23.3212902 19.3654823,23.0849609 C19.4800663,22.8486316 19.5738153,22.5926121 19.6467323,22.3168945 C19.7196494,22.041177 19.7804127,21.7815767 19.829024,21.5380859 C19.8776354,21.3089181 19.9488152,21.1424159 20.0425657,21.0385742 C20.1363161,20.9347326 20.2387457,20.8828125 20.3498573,20.8828125 C20.4331911,20.8828125 20.5182597,20.9096677 20.6050657,20.9633789 C20.6918717,21.0170901 20.771732,21.0869136 20.844649,21.1728516 C20.917566,21.2587895 20.9765932,21.3554682 21.0217323,21.4628906 C21.0668715,21.570313 21.0894407,21.6777338 21.0894407,21.7851563 L21.0894407,21.8388672 C21.0894407,21.8603517 21.0824963,21.8925779 21.0686073,21.9355469 C20.9783291,22.3007831 20.8550665,22.6839173 20.6988157,23.0849609 C20.5425649,23.4860046 20.3429141,23.854816 20.0998573,24.1914063 C19.8568006,24.5279965 19.5634007,24.8072906 19.219649,25.0292969 C18.8758973,25.2513032 18.4748596,25.3623047 18.016524,25.3623047 C17.6415221,25.3623047 17.3151365,25.2799487 17.0373573,25.1152344 C16.7595782,24.95052 16.5408304,24.7320977 16.3811073,24.4599609 C16.1658285,24.7106132 15.9071505,24.9236645 15.6050657,25.0991211 C15.3029808,25.2745777 14.9505538,25.3623047 14.547774,25.3623047 C14.1311053,25.3623047 13.7647895,25.276368 13.4488157,25.1044922 C13.1328419,24.9326163 12.8672195,24.6980809 12.6519407,24.4008789 C12.4366618,24.1036769 12.2752051,23.752769 12.1675657,23.3481445 C12.0599263,22.9435201 12.0061073,22.5084659 12.0061073,22.0429688 C12.0061073,21.1262975 12.148467,20.302738 12.4331907,19.5722656 C12.7179143,18.8417932 13.0963828,18.2205429 13.5686073,17.7084961 C14.0408319,17.1964493 14.5807571,16.8043633 15.188399,16.5322266 C15.7960409,16.2600898 16.426243,16.1240234 17.079024,16.1240234 C17.3706921,16.1240234 17.6068009,16.2063794 17.7873573,16.3710938 C17.9679138,16.5358081 18.0581907,16.7613918 18.0581907,17.0478516 C18.0581907,17.2340504 18.0390936,17.3647457 18.000899,17.4399414 C17.9627044,17.5151371 17.8915245,17.5527344 17.7873573,17.5527344 C17.6901346,17.5527344 17.5894412,17.545573 17.485274,17.53125 C17.3811068,17.516927 17.273469,17.5097656 17.1623573,17.5097656 C16.7595776,17.5097656 16.3498594,17.6010733 15.9331907,17.7836914 C15.5165219,17.9663095 15.1397896,18.2456036 14.8029823,18.621582 C14.4661751,18.9975605 14.1901362,19.4737927 13.9748573,20.050293 C13.7595785,20.6267932 13.6519407,21.312496 13.6519407,22.1074219 C13.6519407,22.6875029 13.7595785,23.1332992 13.9748573,23.4448242 C14.1901362,23.7563492 14.4852721,23.9121094 14.860274,23.9121094 C15.1519421,23.9121094 15.3949953,23.7993175 15.5894407,23.5737305 C15.7838861,23.3481434 15.9401345,23.0813817 16.0581907,22.7734375 L16.0581907,19.3789062 C16.0581907,19.2714838 16.0529824,19.1819665 16.0425657,19.1103516 C16.032149,19.0387366 16.0217324,18.9778648 16.0113157,18.9277344 C16.000899,18.8776039 15.9922185,18.8328452 15.985274,18.793457 C15.9783295,18.7540688 15.9748573,18.7164715 15.9748573,18.6806641 C15.9748573,18.5660802 16.0286763,18.4747725 16.1363157,18.4067383 C16.2439551,18.3387041 16.3741621,18.3046875 16.5269407,18.3046875 C16.8811091,18.3046875 17.1623563,18.3995759 17.3706907,18.5893555 C17.5790251,18.7791351 17.6831907,19.0065091 17.6831907,19.2714844 L17.6831907,22.9023437 C17.6831907,23.0240892 17.6970794,23.1440424 17.7248573,23.262207 C17.7526353,23.3803717 17.7943015,23.4877925 17.8498573,23.5844727 C17.9054132,23.6811528 17.9800652,23.7599281 18.0738157,23.8208008 C18.1675661,23.8816735 18.2769401,23.9121094 18.4019407,23.9121094 Z M21.4118671,18.2402344 C21.4882564,18.089843 21.5629085,17.8875338 21.6358255,17.6333008 C21.7087425,17.3790677 21.7781863,17.0979833 21.8441588,16.7900391 C21.9101314,16.4820948 21.9708946,16.1598324 22.0264505,15.8232422 C22.0820063,15.486652 22.1306169,15.1572282 22.1722838,14.8349609 C22.2139507,14.5126937 22.2469365,14.2101251 22.2712421,13.9272461 C22.2955478,13.6443671 22.3077005,13.4026703 22.3077005,13.2021484 C22.3077005,12.471676 22.2556177,11.9363624 22.1514505,11.5961914 C22.0472833,11.2560204 21.9083958,11.0859375 21.7347838,11.0859375 C21.679228,11.0859375 21.6306174,11.114583 21.5889505,11.171875 C21.5472836,11.229167 21.5125617,11.3025712 21.4847838,11.3920898 C21.4570059,11.4816085 21.4379089,11.5782872 21.4274921,11.6821289 C21.4170754,11.7859706 21.4118671,11.8808589 21.4118671,11.9667969 L21.4118671,18.2402344 Z M24.4431171,21.5595703 C24.484784,21.3447255 24.5490195,21.1889653 24.6358255,21.0922852 C24.7226315,20.995605 24.8163805,20.9418946 24.9170755,20.9311523 C25.0177704,20.9204101 25.1202,20.945475 25.2243671,21.0063477 C25.3285343,21.0672204 25.4188112,21.147786 25.4952005,21.2480469 C25.5715898,21.3483078 25.6288808,21.4610996 25.6670755,21.5864258 C25.7052701,21.7117519 25.7104784,21.8352858 25.6827005,21.9570313 C25.5854778,22.2506525 25.4465903,22.5943991 25.2660338,22.9882813 C25.0854774,23.3821634 24.856313,23.7545555 24.5785338,24.1054688 C24.3007546,24.456382 23.974369,24.7535795 23.5993671,24.9970703 C23.2243653,25.2405611 22.793814,25.3623047 22.3077005,25.3623047 C21.8979762,25.3623047 21.5368687,25.2924812 21.2243671,25.152832 C20.9118656,25.0131829 20.6497154,24.8162448 20.4379088,24.5620117 C20.2261022,24.3077787 20.0663816,24.0034197 19.9587421,23.6489258 C19.8511027,23.2944318 19.7972838,22.8987652 19.7972838,22.4619141 L19.7972838,12.4501953 C19.7972838,12.0419901 19.8476305,11.664227 19.9483255,11.3168945 C20.0490204,10.9695621 20.1879079,10.6723645 20.3649921,10.425293 C20.5420764,10.1782214 20.7486715,9.98486398 20.9847838,9.84521484 C21.2208961,9.70556571 21.4708936,9.63574219 21.7347838,9.63574219 C22.0472854,9.63574219 22.3111716,9.69482363 22.5264505,9.81298828 C22.7417293,9.93115293 22.9188109,10.0869131 23.0577005,10.2802734 C23.1965901,10.4736338 23.305964,10.6956368 23.3858255,10.9462891 C23.465687,11.1969414 23.5229781,11.4529609 23.5577005,11.7143555 C23.5924229,11.97575 23.613256,12.2335599 23.6202005,12.487793 C23.627145,12.742026 23.6306171,12.9729807 23.6306171,13.1806641 C23.6306171,13.7177761 23.5820065,14.2817353 23.4847838,14.8725586 C23.3875611,15.4633819 23.2642985,16.0452445 23.1149921,16.6181641 C22.9656858,17.1910836 22.802493,17.74072 22.6254088,18.2670898 C22.4483246,18.7934597 22.2781874,19.2607422 22.1149921,19.6689453 C21.9517969,20.0771505 21.805965,20.410155 21.6774921,20.6679688 C21.5490193,20.9257825 21.4604785,21.0761717 21.4118671,21.1191406 L21.4118671,22.3974609 C21.4118671,22.8414736 21.502144,23.204914 21.6827005,23.487793 C21.8632569,23.770672 22.1514485,23.9121094 22.5472838,23.9121094 C22.7903406,23.9121094 23.0177689,23.8351245 23.2295755,23.6811523 C23.4413821,23.5271802 23.6288802,23.3338228 23.7920755,23.1010742 C23.9552707,22.8683257 24.0924221,22.6140964 24.2035338,22.3383789 C24.3146455,22.0626614 24.3945058,21.8030611 24.4431171,21.5595703 Z M29.2759603,18.3476562 C29.2759603,18.7558614 29.2082526,19.1748025 29.0728353,19.6044922 C28.9374179,20.0341818 28.7360311,20.4405905 28.4686686,20.8237305 C28.2013062,21.2068704 27.8714484,21.550617 27.4790853,21.8549805 C27.0867222,22.159344 26.6336017,22.3902987 26.1197103,22.5478516 C26.1891551,22.7340504 26.281168,22.9112947 26.395752,23.0795898 C26.5103359,23.247885 26.6474873,23.392903 26.8072103,23.5146484 C26.9669333,23.6363938 27.1526953,23.7330726 27.364502,23.8046875 C27.5763086,23.8763024 27.8210978,23.9121094 28.098877,23.9121094 C28.5155457,23.9121094 28.873181,23.8315438 29.1717936,23.6704102 C29.4704062,23.5092765 29.7221398,23.2962253 29.927002,23.03125 C30.1318641,22.7662747 30.6058229,24.3990874 30.3072103,24.6210938 C30.0085977,24.8431001 29.6579067,25.0221347 29.255127,25.1582031 C28.8523472,25.2942715 28.3905462,25.3623047 27.8697103,25.3623047 C27.3835967,25.3623047 26.9131153,25.2638356 26.458252,25.0668945 C26.0033886,24.8699534 25.6006148,24.5870787 25.2499186,24.2182617 C24.8992224,23.8494448 24.6179752,23.3946967 24.4061686,22.8540039 C24.194362,22.3133111 24.0884603,21.6992222 24.0884603,21.0117187 C24.0884603,20.3170538 24.1822093,19.6707387 24.3697103,19.0727539 C24.5572112,18.4747691 24.8037365,17.957359 25.1092936,17.5205078 C25.4148507,17.0836567 25.7620695,16.7417005 26.1509603,16.4946289 C26.5398511,16.2475574 26.9391527,16.1240234 27.348877,16.1240234 C27.6474896,16.1240234 27.9165841,16.1777338 28.1561686,16.2851562 C28.3957532,16.3925787 28.5988761,16.5447581 28.7655436,16.7416992 C28.9322111,16.9386403 29.058946,17.1731757 29.145752,17.4453125 C29.2325579,17.7174493 29.2759603,18.0182275 29.2759603,18.3476562 Z M25.8384603,20.9472656 C25.8384603,21.0117191 25.8419325,21.0761716 25.848877,21.140625 C25.8558214,21.2050784 25.8592936,21.2731116 25.8592936,21.3447266 C26.1231838,21.2158197 26.3627648,21.0511078 26.5780436,20.8505859 C26.7933225,20.6500641 26.9773484,20.4208997 27.130127,20.1630859 C27.2829055,19.9052721 27.4009599,19.6241877 27.4842936,19.3198242 C27.5676274,19.0154607 27.6092936,18.6985694 27.6092936,18.3691406 C27.6092936,18.1256498 27.5693635,17.9358731 27.489502,17.7998047 C27.4096404,17.6637363 27.3002665,17.5957031 27.161377,17.5957031 C26.987765,17.5957031 26.8332526,17.6565749 26.6978353,17.7783203 C26.5624179,17.9000657 26.4443636,18.0594066 26.3436686,18.2563477 C26.2429737,18.4532887 26.1596412,18.6752917 26.0936686,18.9223633 C26.0276961,19.1694348 25.9738772,19.418293 25.9322103,19.6689453 C25.8905434,19.9195976 25.8627659,20.1577137 25.848877,20.3833008 C25.834988,20.6088878 25.8315158,20.7968742 25.8384603,20.9472656 Z" id="Sale" fill="#FFFFFF" fill-rule="nonzero"></path>
  </g>
  <g transform="translate(336, 0)">
    <polygon id="Star" fill="#999999" fill-rule="evenodd" points="16 30.3738839 14.0714131 31.883342 12.5601044 29.956205 10.3263218 30.9602599 9.32012307 28.7274421 6.91096405 29.1677419 6.46835188 26.7590066 4.02382803 26.6099625 4.17052544 24.1652967 1.83270359 23.4355708 2.56018506 21.0970495 0.464930921 19.8290506 1.73091787 17.7325803 0 16 1.73091787 14.2674197 0.464930921 12.1709494 2.56018506 10.9029505 1.83270359 8.56442925 4.17052544 7.83470327 4.02382803 5.39003747 6.46835188 5.24099339 6.91096405 2.83225815 9.32012307 3.27255786 10.3263218 1.03974012 12.5601044 2.04379501 14.0714131 0.116658014 16 1.62611607 17.9285869 0.116658014 19.4398956 2.04379501 21.6736782 1.03974012 22.6798769 3.27255786 25.0890359 2.83225815 25.5316481 5.24099339 27.976172 5.39003747 27.8294746 7.83470327 30.1672964 8.56442925 29.4398149 10.9029505 31.5350691 12.1709494 30.2690821 14.2674197 32 16 30.2690821 17.7325803 31.5350691 19.8290506 29.4398149 21.0970495 30.1672964 23.4355708 27.8294746 24.1652967 27.976172 26.6099625 25.5316481 26.7590066 25.0890359 29.1677419 22.6798769 28.7274421 21.6736782 30.9602599 19.4398956 29.956205 17.9285869 31.883342"></polygon>
    <path d="M6.75618873,24.7708333 C6.30479758,24.7708333 5.92980133,24.7204866 5.63118873,24.6197917 C5.33257612,24.5190967 5.09646737,24.4062506 4.92285539,24.28125 C4.74924341,24.1562494 4.62771685,24.0364589 4.55827206,23.921875 C4.48882727,23.8072911 4.45410539,23.7326391 4.45410539,23.6979167 C4.45410539,23.572916 4.48188289,23.4392368 4.53743873,23.296875 C4.59299456,23.1545132 4.66243831,23.0225701 4.74577206,22.9010417 C4.82910581,22.7795133 4.91938268,22.6770837 5.01660539,22.59375 C5.1138281,22.5104162 5.20063279,22.46875 5.27702206,22.46875 C5.37424477,22.46875 5.45410508,22.5312494 5.51660539,22.65625 L5.62077206,22.7604167 C5.67632789,22.8159725 5.75445211,22.8732636 5.85514706,22.9322917 C5.95584201,22.9913197 6.08084076,23.0451386 6.23014706,23.09375 C6.37945336,23.1423614 6.55479883,23.1666667 6.75618873,23.1666667 C7.19369091,23.1666667 7.55132623,23.0329874 7.82910539,22.765625 C8.10688456,22.4982626 8.24577206,22.135419 8.24577206,21.6770833 C8.24577206,21.3576373 8.17112003,21.0729179 8.02181373,20.8229167 C7.87250742,20.5729154 7.67632883,20.3402789 7.43327206,20.125 C7.19021529,19.9097211 6.91244029,19.6996538 6.59993873,19.4947917 C6.28743716,19.2899295 5.96799591,19.07639 5.64160539,18.8541667 C5.31521487,18.6319433 4.99577362,18.3923624 4.68327206,18.1354167 C4.37077206,17.8784709 4.0929955,17.583335 3.84993873,17.25 C3.60688195,16.916665 3.41070336,16.5399327 3.26139706,16.1197917 C3.11209076,15.6996507 3.03743873,15.2187527 3.03743873,14.6770833 C3.03743873,14.2118032 3.11729904,13.7430579 3.27702206,13.2708333 C3.43674508,12.7986087 3.65722899,12.3489605 3.93848039,11.921875 C4.2197318,11.4947895 4.5513257,11.095488 4.93327206,10.7239583 C5.31521841,10.3524287 5.72840873,10.0295153 6.17285539,9.75520833 C6.61730206,9.48090141 7.08083909,9.26562578 7.56348039,9.109375 C8.04612169,8.95312422 8.53049185,8.875 9.01660539,8.875 C9.43327414,8.875 9.80827039,8.94097156 10.1416054,9.07291667 C10.4749404,9.20486177 10.7561876,9.3906238 10.9853554,9.63020833 C11.2145232,9.86979286 11.3916048,10.1579844 11.5166054,10.4947917 C11.641606,10.8315989 11.7041054,11.2083313 11.7041054,11.625 C11.7041054,12.0208353 11.6346616,12.4097203 11.4957721,12.7916667 C11.3568825,13.173613 11.1728565,13.5347205 10.9436887,13.875 C10.7145209,14.2152795 10.4558429,14.5295124 10.1676471,14.8177083 C9.87945117,15.1059042 9.58431524,15.3559017 9.28223039,15.5677083 C8.98014555,15.7795149 8.6867457,15.9444439 8.40202206,16.0625 C8.11729841,16.1805561 7.86730091,16.2395833 7.65202206,16.2395833 C7.46452112,16.2395833 7.29612003,16.196181 7.14681373,16.109375 C6.99750742,16.022569 6.87250867,15.9149312 6.77181373,15.7864583 C6.67111878,15.6579855 6.59299456,15.5225702 6.53743873,15.3802083 C6.48188289,15.2378465 6.45410539,15.1111117 6.45410539,15 C6.45410539,14.9097218 6.46625805,14.8506946 6.49056373,14.8229167 C6.5148694,14.7951388 6.54959128,14.7829861 6.59473039,14.7864583 C6.63986951,14.7899306 6.6971606,14.8003471 6.76660539,14.8177083 C6.83605018,14.8350695 6.9159105,14.84375 7.00618873,14.84375 C7.29785685,14.84375 7.62077029,14.7430566 7.97493873,14.5416667 C8.32910716,14.3402768 8.66243716,14.0833349 8.97493873,13.7708333 C9.28744029,13.4583318 9.54959044,13.1145852 9.76139706,12.7395833 C9.97320367,12.3645815 10.0791054,12.0000018 10.0791054,11.6458333 C10.0791054,11.2847204 9.99056461,11.000001 9.81348039,10.7916667 C9.63639617,10.5833323 9.33605195,10.4791667 8.91243873,10.4791667 C8.64854852,10.4791667 8.36209305,10.5295134 8.05306373,10.6302083 C7.7440344,10.7309033 7.43327362,10.8715269 7.12077206,11.0520833 C6.8082705,11.2326398 6.50619018,11.4513876 6.21452206,11.7083333 C5.92285393,11.9652791 5.66591206,12.2482623 5.44368873,12.5572917 C5.22146539,12.866321 5.04264774,13.199651 4.90723039,13.5572917 C4.77181305,13.9149323 4.70410539,14.2881925 4.70410539,14.6770833 C4.70410539,15.0868076 4.77875742,15.4531234 4.92806373,15.7760417 C5.07737003,16.0989599 5.27528472,16.3923598 5.52181373,16.65625 C5.76834274,16.9201402 6.04785383,17.1631933 6.36035539,17.3854167 C6.67285695,17.60764 6.9922982,17.8281239 7.31868873,18.046875 C7.64507925,18.2656261 7.9645205,18.4913183 8.27702206,18.7239583 C8.58952362,18.9565984 8.86903472,19.2135403 9.11556373,19.4947917 C9.36209274,19.7760431 9.56000742,20.0885399 9.70931373,20.4322917 C9.85862003,20.7760434 9.93327206,21.1701367 9.93327206,21.6145833 C9.93327206,22.045141 9.85167565,22.4531231 9.68848039,22.8385417 C9.52528513,23.2239603 9.30132904,23.5590264 9.01660539,23.84375 C8.73188175,24.1284736 8.39507956,24.3541658 8.00618873,24.5208333 C7.61729789,24.6875008 7.20063539,24.7708333 6.75618873,24.7708333 Z M18.6744811,20.4791667 C18.68837,20.3958329 18.7352446,20.3263892 18.8151061,20.2708333 C18.8949676,20.2152775 18.9869806,20.1770834 19.0911477,20.15625 C19.1953149,20.1354166 19.3046888,20.1354166 19.4192727,20.15625 C19.5338567,20.1770834 19.6345501,20.223958 19.7213561,20.296875 C19.8081621,20.369792 19.8706614,20.4704855 19.9088561,20.5989583 C19.9470507,20.7274312 19.9418424,20.8923601 19.8932311,21.09375 C19.8307308,21.3854181 19.7283012,21.6579848 19.5859394,21.9114583 C19.4435776,22.1649318 19.2647599,22.3888879 19.0494811,22.5833333 C18.8342022,22.7777788 18.5807325,22.930555 18.2890644,23.0416667 C17.9973963,23.1527783 17.6710107,23.2083333 17.3098977,23.2083333 C17.1154523,23.2083333 16.9331625,23.1979168 16.7630227,23.1770833 C16.592883,23.1562499 16.4279541,23.1180558 16.2682311,23.0625 C16.0043409,23.5208356 15.6640665,23.8906236 15.2473977,24.171875 C14.830729,24.4531264 14.3168452,24.59375 13.7057311,24.59375 C13.1640617,24.59375 12.6987886,24.4878483 12.3098977,24.2760417 C11.9210069,24.0642351 11.5980935,23.7760435 11.3411477,23.4114583 C11.084202,23.0468732 10.8949678,22.6250024 10.7734394,22.1458333 C10.651911,21.6666643 10.5911477,21.1597249 10.5911477,20.625 C10.5911477,19.8402739 10.6831607,19.1371559 10.8671894,18.515625 C11.0512181,17.8940941 11.2647576,17.3663216 11.5078144,16.9322917 C11.7508712,16.4982617 11.9921882,16.1666678 12.2317727,15.9375 C12.4713573,15.7083322 12.6501749,15.59375 12.7682311,15.59375 C12.9071207,15.59375 13.0338555,15.6545133 13.1484394,15.7760417 C13.2630233,15.8975701 13.3463558,16.0399297 13.3984394,16.203125 C13.450523,16.3663203 13.4644118,16.5312492 13.4401061,16.6979167 C13.4158004,16.8645842 13.334204,16.9930551 13.1953144,17.0833333 C13.1119807,17.2152784 13.0130233,17.3680547 12.8984394,17.5416667 C12.7838555,17.7152786 12.6762177,17.9322904 12.5755227,18.1927083 C12.4748278,18.4531263 12.3897592,18.7708315 12.3203144,19.1458333 C12.2508696,19.5208352 12.2161477,19.9722196 12.2161477,20.5 C12.2161477,20.9513911 12.2560779,21.3437483 12.3359394,21.6770833 C12.4158009,22.0104183 12.5269109,22.2899294 12.6692727,22.515625 C12.8116346,22.7413206 12.9748274,22.9097217 13.1588561,23.0208333 C13.3428848,23.131945 13.5390634,23.1875 13.7473977,23.1875 C14.0529548,23.1875 14.3046884,23.112848 14.5026061,22.9635417 C14.7005237,22.8142354 14.8689248,22.6180568 15.0078144,22.375 C14.5078119,21.9444423 14.1276074,21.3975728 13.8671894,20.734375 C13.6067714,20.0711772 13.4765644,19.3541705 13.4765644,18.5833333 C13.4765644,18.2499983 13.5130224,17.9322932 13.5859394,17.6302083 C13.6588564,17.3281235 13.7664943,17.0625011 13.9088561,16.8333333 C14.0512179,16.6041655 14.2300356,16.4218757 14.4453144,16.2864583 C14.6605933,16.151041 14.9105908,16.0833333 15.1953144,16.0833333 C15.4453157,16.0833333 15.6814244,16.1736102 15.9036477,16.3541667 C16.1258711,16.5347231 16.3203136,16.7847206 16.4869811,17.1041667 C16.6536486,17.4236127 16.7838556,17.8020811 16.8776061,18.2395833 C16.9713566,18.6770855 17.0182311,19.1527752 17.0182311,19.6666667 C17.0182311,20.062502 16.9939258,20.4548592 16.9453144,20.84375 C16.8967031,21.2326408 16.8203149,21.6076371 16.7161477,21.96875 C16.792537,21.9965279 16.8637169,22.0121528 16.9296894,22.015625 C16.995662,22.0190972 17.0668418,22.0208333 17.1432311,22.0208333 C17.3723989,22.0208333 17.5755219,21.9791671 17.7526061,21.8958333 C17.9296903,21.8124996 18.0807305,21.7013896 18.2057311,21.5625 C18.3307317,21.4236104 18.4314251,21.2604176 18.5078144,21.0729167 C18.5842037,20.8854157 18.6397587,20.687501 18.6744811,20.4791667 Z M14.6015644,18.5 C14.6015644,18.9791691 14.6762164,19.4340256 14.8255227,19.8645833 C14.9748291,20.295141 15.1710076,20.6701373 15.4140644,20.9895833 C15.4557313,20.6493039 15.4765644,20.3229182 15.4765644,20.0104167 C15.4765644,19.6493037 15.4713561,19.3142377 15.4609394,19.0052083 C15.4505227,18.696179 15.4262174,18.4305567 15.3880227,18.2083333 C15.3498281,17.98611 15.2977453,17.8107645 15.2317727,17.6822917 C15.1658002,17.5538188 15.0772594,17.4895833 14.9661477,17.4895833 C14.723091,17.4895833 14.6015644,17.8263855 14.6015644,18.5 Z M20.1739909,17.6875 C20.2503802,17.5416659 20.3250322,17.3454873 20.3979492,17.0989583 C20.4708662,16.8524293 20.54031,16.5798626 20.6062826,16.28125 C20.6722551,15.9826374 20.7330184,15.6701405 20.7885742,15.34375 C20.8441301,15.0173595 20.8927407,14.6979182 20.9344076,14.3854167 C20.9760744,14.0729151 21.0090602,13.7795153 21.0333659,13.5052083 C21.0576716,13.2309014 21.0698242,12.9965287 21.0698242,12.8020833 C21.0698242,12.0937465 21.0177414,11.5746544 20.9135742,11.2447917 C20.809407,10.9149289 20.6705195,10.75 20.4969076,10.75 C20.4413517,10.75 20.3927411,10.7777775 20.3510742,10.8333333 C20.3094073,10.8888892 20.2746855,10.960069 20.2469076,11.046875 C20.2191296,11.133681 20.2000326,11.2274301 20.1896159,11.328125 C20.1791992,11.4288199 20.1739909,11.5208329 20.1739909,11.6041667 L20.1739909,17.6875 Z M23.2052409,20.90625 C23.2469078,20.6979156 23.3111432,20.5468755 23.3979492,20.453125 C23.4847552,20.3593745 23.5785043,20.3072917 23.6791992,20.296875 C23.7798942,20.2864583 23.8823237,20.3107636 23.9864909,20.3697917 C24.0906581,20.4288197 24.1809349,20.506944 24.2573242,20.6041667 C24.3337135,20.7013894 24.3910046,20.8107633 24.4291992,20.9322917 C24.4673939,21.0538201 24.4726021,21.1736105 24.4448242,21.2916667 C24.3476015,21.5763903 24.208714,21.9097203 24.0281576,22.2916667 C23.8476011,22.673613 23.6184367,23.0347205 23.3406576,23.375 C23.0628784,23.7152795 22.7364928,24.003471 22.3614909,24.2395833 C21.986489,24.4756956 21.5559378,24.59375 21.0698242,24.59375 C20.6600999,24.59375 20.2989924,24.5260423 19.9864909,24.390625 C19.6739893,24.2552077 19.4118392,24.0642373 19.2000326,23.8177083 C18.9882259,23.5711793 18.8285053,23.2760434 18.7208659,22.9322917 C18.6132265,22.5885399 18.5594076,22.2048632 18.5594076,21.78125 L18.5594076,12.0729167 C18.5594076,11.6770814 18.6097543,11.3107656 18.7104492,10.9739583 C18.8111442,10.6371511 18.9500317,10.3489595 19.1271159,10.109375 C19.3042001,9.86979047 19.5107953,9.68229234 19.7469076,9.546875 C19.9830198,9.41145766 20.2330173,9.34375 20.4969076,9.34375 C20.8094091,9.34375 21.0732954,9.40104109 21.2885742,9.515625 C21.5038531,9.63020891 21.6809346,9.78124906 21.8198242,9.96875 C21.9587138,10.1562509 22.0680877,10.3715266 22.1479492,10.6145833 C22.2278107,10.8576401 22.2851018,11.1059015 22.3198242,11.359375 C22.3545466,11.6128485 22.3753797,11.862846 22.3823242,12.109375 C22.3892687,12.355904 22.3927409,12.5798601 22.3927409,12.78125 C22.3927409,13.3020859 22.3441303,13.8489555 22.2469076,14.421875 C22.1496848,14.9947945 22.0264222,15.559025 21.8771159,16.1145833 C21.7278096,16.6701417 21.5646168,17.2031224 21.3875326,17.7135417 C21.2104483,18.2239609 21.0403111,18.6770833 20.8771159,19.0729167 C20.7139206,19.468752 20.5680888,19.7916654 20.4396159,20.0416667 C20.311143,20.2916679 20.2226022,20.4374998 20.1739909,20.4791667 L20.1739909,21.71875 C20.1739909,22.1493077 20.2642678,22.5017347 20.4448242,22.7760417 C20.6253807,23.0503486 20.9135722,23.1875 21.3094076,23.1875 C21.5524643,23.1875 21.7798926,23.112848 21.9916992,22.9635417 C22.2035058,22.8142354 22.391004,22.6267372 22.5541992,22.4010417 C22.7173945,22.1753461 22.8545459,21.9288208 22.9656576,21.6614583 C23.0767692,21.3940959 23.1566295,21.1423623 23.2052409,20.90625 Z M25.5709635,24.59375 C25.1542948,24.59375 24.7758264,24.5208341 24.4355469,24.375 C24.0952674,24.2291659 23.8053397,24.0121542 23.5657552,23.7239583 C23.3261707,23.4357624 23.1421447,23.0781271 23.0136719,22.6510417 C22.885199,22.2239562 22.8209635,21.7291695 22.8209635,21.1666667 C22.8209635,20.3472181 22.9355457,19.6163227 23.1647135,18.9739583 C23.3938814,18.331594 23.7063782,17.7795162 24.1022135,17.3177083 C24.4980489,16.8559005 24.9563776,16.4878486 25.4772135,16.2135417 C25.9980495,15.9392347 26.5501273,15.7604171 27.1334635,15.6770833 L27.1334635,10.8541667 C27.1334635,10.7013881 27.1213109,10.5798616 27.0970052,10.4895833 C27.0726995,10.3993051 27.0483942,10.3281253 27.0240885,10.2760417 C26.9997829,10.2239581 26.9754776,10.1822918 26.9511719,10.1510417 C26.9268662,10.1197915 26.9147135,10.0868057 26.9147135,10.0520833 C26.9147135,10.0104165 26.9355467,9.97569458 26.9772135,9.94791667 C27.0188804,9.92013875 27.0744354,9.89583344 27.1438802,9.875 C27.213325,9.85416656 27.287977,9.83854172 27.3678385,9.828125 C27.4477001,9.81770828 27.5258243,9.8125 27.6022135,9.8125 C27.956382,9.8125 28.2358931,9.90451297 28.4407552,10.0885417 C28.6456173,10.2725704 28.7480469,10.4930543 28.7480469,10.75 L28.7480469,22.2083333 C28.7480469,22.3263895 28.7619356,22.4427078 28.7897135,22.5572917 C28.8174915,22.6718756 28.8608938,22.7760412 28.9199219,22.8697917 C28.9789499,22.9635421 29.0553381,23.0399303 29.1490885,23.0989583 C29.242839,23.1579864 29.3522129,23.1875 29.4772135,23.1875 C29.6924924,23.1875 29.8782544,23.1111119 30.0345052,22.9583333 C30.190756,22.8055548 30.3261713,22.6145845 30.4407552,22.3854167 C30.5553391,22.1562489 30.6490882,21.9079874 30.7220052,21.640625 C30.7949222,21.3732626 30.8556855,21.121529 30.9042969,20.8854167 C30.9459638,20.6631933 31.0154075,20.5017366 31.1126302,20.4010417 C31.2098529,20.3003467 31.3105464,20.25 31.4147135,20.25 C31.4980473,20.25 31.584852,20.2760414 31.6751302,20.328125 C31.7654084,20.3802086 31.8470048,20.4479163 31.9199219,20.53125 C31.9928389,20.6145838 32.0518661,20.7083328 32.0970052,20.8125 C32.1421443,20.9166672 32.1647135,21.0208328 32.1647135,21.125 L32.1647135,21.1770833 C32.1647135,21.1979168 32.1577692,21.2291665 32.1438802,21.2708333 C32.053602,21.6250018 31.9303393,21.9965258 31.7740885,22.3854167 C31.6178378,22.7743075 31.4164509,23.1319428 31.1699219,23.4583333 C30.9233929,23.7847239 30.629993,24.0555545 30.2897135,24.2708333 C29.9494341,24.4861122 29.5501325,24.59375 29.0917969,24.59375 C28.7237395,24.59375 28.400826,24.5173619 28.1230469,24.3645833 C27.8452677,24.2118048 27.6265199,24.0104179 27.4667969,23.7604167 C27.2306846,24.0034734 26.9581179,24.2031242 26.6490885,24.359375 C26.3400592,24.5156258 25.9806878,24.59375 25.5709635,24.59375 Z M25.8938802,23.1875 C26.1716594,23.1875 26.4129764,23.1076397 26.6178385,22.9479167 C26.8227007,22.7881936 26.994574,22.590279 27.1334635,22.3541667 L27.1334635,17.0833333 C26.7862396,17.1458336 26.4511735,17.2621519 26.1282552,17.4322917 C25.8053369,17.6024314 25.5206176,17.8402762 25.2740885,18.1458333 C25.0275595,18.4513904 24.8313809,18.8385393 24.6855469,19.3072917 C24.5397128,19.776044 24.4667969,20.3437467 24.4667969,21.0104167 C24.4667969,21.3993075 24.506727,21.7309014 24.5865885,22.0052083 C24.6664501,22.2795153 24.7706157,22.5034714 24.8990885,22.6770833 C25.0275614,22.8506953 25.1786016,22.9791662 25.3522135,23.0625 C25.5258255,23.1458337 25.7063793,23.1875 25.8938802,23.1875 Z" id="Sold" fill="#FFFFFF" fill-rule="nonzero"></path>
  </g>
</svg>
