<svg width="16px" height="182px" viewBox="0 0 14 182" version="1.2" xmlns="http://www.w3.org/2000/svg" xmlns:xlink="http://www.w3.org/1999/xlink">
  <g stroke="none" stroke-width="1" fill="none" fill-rule="evenodd">
    <g id="facebook" transform="translate(0.000000, 0.000000)">
      <g>
        <path d="M15.3333333,16 C15.7015233,16 16,15.7015233 16,15.3333333 L16,0.666666667 C16,0.298476667 15.7015233,0 15.3333333,0 L0.666666667,0 C0.298476667,0 0,0.298476667 0,0.666666667 L0,15.3333333 C0,15.7015233 0.298476667,16 0.666666667,16 L15.3333333,16 Z" id="White_4_" fill="#39579A"></path>
        <path d="M8.50639,16 L8.50639,9.66666667 L6.33333333,9.66666667 L6.33333333,7.33333333 L8.50639,7.33333333 L8.50639,5.60846 C8.50639,3.54187 9.76859333,2.41657333 11.6121333,2.41657333 C12.4952067,2.41657333 13.2541633,2.48232 13.4753467,2.51170667 L13.4753467,4.67141333 L12.1967533,4.67199333 C11.1941333,4.67199333 11,5.14842333 11,5.84755 L11,7.33333333 L13.3333333,7.33333333 L13,9.66666667 L11,9.66666667 L11,16 L8.50639,16 Z" id="White_2_" fill="#FFFFFF"></path>
      </g>
    </g>
    <g id="twitter" transform="translate(0.000000, 34.000000)">
      <g>
          <rect id="Rectangle" x="0" y="0" width="16" height="16"></rect>
          <path d="M16,2.87257667 C15.4113233,3.13365 14.7787033,3.31013667 14.1146433,3.38946667 C14.7924167,2.98322333 15.31291,2.33991 15.55798,1.57337333 C14.9237533,1.94955667 14.2212333,2.22274333 13.4735,2.36997333 C12.8747133,1.73197333 12.0215867,1.33333333 11.0774833,1.33333333 C9.26453333,1.33333333 7.79479333,2.80307667 7.79479333,4.61585333 C7.79479333,4.87315667 7.82382667,5.12365333 7.87977667,5.36392667 C5.15164333,5.22704333 2.73287667,3.92019 1.11385,1.93418333 C0.83129,2.41901333 0.669433333,2.98288 0.669433333,3.58447 C0.669433333,4.7233 1.24896,5.72804667 2.12974333,6.31672333 C1.59165333,6.29969333 1.08550333,6.15200667 0.64291,5.90613333 C0.64268,5.91985 0.64263,5.93357 0.64263,5.9474 C0.64263,7.53788 1.77413667,8.86462667 3.27583,9.16616667 C3.00035667,9.24114667 2.71036,9.28127333 2.41099667,9.28127333 C2.19947,9.28127333 1.99383333,9.26069667 1.79339667,9.22240333 C2.21112667,10.5265167 3.4234,11.4755967 4.85982667,11.5021167 C3.73637333,12.3825033 2.32098,12.90728 0.783053333,12.90728 C0.51809,12.9072767 0.256786667,12.8917333 0,12.86144 C1.45271333,13.7928 3.17815667,14.33621 5.03191,14.33621 C11.0698233,14.33621 14.3715433,9.33430667 14.3715433,4.99649 C14.3715433,4.85417667 14.3683467,4.71261 14.3620567,4.57184333 C15.00337,4.10902 15.5599267,3.53086 16,2.87257667 Z" id="Path" fill="#69ACE0" fill-rule="nonzero"></path>
      </g>
    </g>
    <g id="pinterest" transform="translate(0.000000, 68.000000)">
      <g>
          <path d="M16,8 C16,12.4183033 12.41826,15.9999567 8,15.9999567 C3.58174,15.9999567 0,12.4183033 0,8 C0,3.58174 3.58174,4.33333333e-05 8,4.33333333e-05 C12.41826,4.33333333e-05 16,3.58174 16,8" id="Path" fill="#FFFFFF"></path>
          <path d="M7.99048333,0.75106 C3.98701667,0.75106 0.741543333,3.99653333 0.741543333,8 C0.741543333,11.0709967 2.65217,13.6940267 5.34875667,14.7502433 C5.28535333,14.1766967 5.22817333,13.2969533 5.37394667,12.6708467 C5.50563,12.1051067 6.22397333,9.06761333 6.22397333,9.06761333 C6.22397333,9.06761333 6.00712,8.63339333 6.00712,7.99138333 C6.00712,6.98343333 6.59134,6.23091667 7.31877,6.23091667 C7.93720667,6.23091667 8.23598,6.69524667 8.23598,7.25203333 C8.23598,7.87398 7.83998,8.80383 7.63559333,9.66560333 C7.46482,10.3871233 7.99743,10.9755067 8.70905333,10.9755067 C9.99746667,10.9755067 10.9878033,9.617 10.9878033,7.65601 C10.9878033,5.9204 9.74065667,4.70687 7.95988,4.70687 C5.89733667,4.70687 4.68667667,6.25391 4.68667667,7.85271667 C4.68667667,8.47573667 4.92668333,9.14384 5.22614,9.507 C5.28533667,9.57875667 5.29405,9.64168333 5.27642667,9.7149 C5.22138,9.94389 5.09909667,10.43625 5.07508667,10.53699 C5.04345333,10.6696967 4.97001667,10.6978167 4.83268,10.6339433 C3.92726667,10.2124967 3.36125667,8.88887667 3.36125667,7.82567 C3.36125667,5.53898333 5.02266667,3.43902333 8.15089667,3.43902333 C10.6655367,3.43902333 12.6197933,5.2309 12.6197933,7.62566333 C12.6197933,10.12393 11.04456,12.1345167 8.85818,12.1345167 C8.12367,12.1345167 7.4331,11.75292 7.19673667,11.3021433 C7.19673667,11.3021433 6.83327667,12.6862 6.74515,13.0253567 C6.58144333,13.65501 6.13968333,14.4442733 5.84417333,14.9257233 C6.52245333,15.1356967 7.24321667,15.2489867 7.99049,15.2489867 C11.994,15.2489867 15.23947,12.0035167 15.23947,8.00000667 C15.2394633,3.99653333 11.9939967,0.75106 7.99048333,0.75106 Z" id="Path" fill="#BD081C"></path>
      </g>
    </g>
    <g id="social" transform="translate(0.000000, 102.000000)">
      <g>
          <rect id="Rectangle-Copy" x="0" y="0" width="16" height="16"></rect>
          <path d="M15.3333333,13.6666667 L0.666666667,13.6666667 C0.482573333,13.6666667 0.333333333,13.5174267 0.333333333,13.3333333 L0.333333333,2.66666667 C0.333333333,2.48257333 0.482573333,2.33333333 0.666666667,2.33333333 L15.3333333,2.33333333 C15.5174267,2.33333333 15.6666667,2.48257333 15.6666667,2.66666667 L15.6666667,13.3333333 C15.6666667,13.5174267 15.5174267,13.6666667 15.3333333,13.6666667 Z" id="Path" fill="#B3B3B3" fill-rule="nonzero"></path>
          <path d="M8,6.33333333 C8.08040333,6.33333333 8.16064333,6.36230333 8.22428333,6.41992333 L15.5576167,13.08659 C15.6595033,13.1793633 15.6938467,13.3251967 15.6442067,13.4534533 C15.5945633,13.58203 15.47103,13.6666667 15.3333333,13.6666667 L0.666666667,13.6666667 C0.52897,13.6666667 0.405436667,13.58203 0.355793333,13.45345 C0.30615,13.3251933 0.340493333,13.17936 0.442383333,13.0865867 L7.77571667,6.41992 C7.83935667,6.36230333 7.91959667,6.33333333 8,6.33333333 Z" id="Path" fill="#D6D6D6" fill-rule="nonzero"></path>
          <path d="M8,9.66666667 C7.91959667,9.66666667 7.83935667,9.63769667 7.77571667,9.58007667 L0.442383333,2.91341 C0.340493333,2.82063667 0.306153333,2.67480333 0.355793333,2.54655 C0.405436667,2.41797 0.52897,2.33333333 0.666666667,2.33333333 L15.3333333,2.33333333 C15.47103,2.33333333 15.5945633,2.41797 15.6442067,2.54655 C15.69385,2.67480667 15.6595067,2.82064 15.5576167,2.91341333 L8.22428333,9.58008 C8.16064333,9.63769667 8.08040333,9.66666667 8,9.66666667 Z" id="Path" fill="#E6E6E6" fill-rule="nonzero"></path>
      </g>
    </g>
    <g id="plus" transform="translate(2.000000, 136.000000)">
      <g fill="#1A1A1A" fill-rule="nonzero">
        <polygon points="9.65625 5.65625 5.65625 5.65625 5.65625 9.65625 4.34375 9.65625 4.34375 5.65625 0.34375 5.65625 0.34375 4.34375 4.34375 4.34375 4.34375 0.34375 5.65625 0.34375 5.65625 4.34375 9.65625 4.34375"></polygon>
      </g>
    </g>
    <g id="plus" transform="translate(0.000000, 170.000000)">
      <g fill="#1A1A1A" fill-rule="nonzero">
        <polygon points="12.65625 6.65625 3.34375 6.65625 3.34375 5.34375 12.65625 5.34375"></polygon>
      </g>
    </g>
  </g>
</svg>
