<svg width="24px" height="534px" viewBox="0 0 24 534" version="1.2" xmlns="http://www.w3.org/2000/svg" xmlns:xlink="http://www.w3.org/1999/xlink">
  <g stroke="none" stroke-width="1" fill="none" fill-rule="evenodd">
    <g id="facebook" transform="translate(0.000000, 0.000000)">
      <g id="product_dteail-icon-facebook" stroke="none" stroke-width="1" fill="none" fill-rule="evenodd">
        <path d="M17.015625,2.015625 L17.015625,6 L15,6 C14.6562483,6.03125016 14.4062508,6.19531102 14.25,6.4921875 C14.0937492,6.78906398 14.015625,7.12499812 14.015625,7.5 L14.015625,9.984375 L17.015625,9.984375 L17.015625,14.015625 L14.015625,14.015625 L14.015625,21.984375 L9.984375,21.984375 L9.984375,14.015625 L6.984375,14.015625 L6.984375,9.984375 L9.984375,9.984375 L9.984375,6 C10.0156252,4.87499437 10.4062463,3.93750375 11.15625,3.1875 C11.9062537,2.43749625 12.8593692,2.04687516 14.015625,2.015625 L17.015625,2.015625 Z" id="ïˆŒ" fill="#222222" fill-rule="nonzero"></path>
      </g>
    </g>
    <g id="twitter" transform="translate(0.000000, 34.000000)">
      <g id="product_dteail-icon-twitter" stroke="none" stroke-width="1" fill="none" fill-rule="evenodd">
        <g transform="translate(1.000000, 3.000000)" fill="#222222" fill-rule="nonzero" id="ï•„">
          <path d="M21.453125,3 C20.859372,3.87500437 20.1406292,4.62499688 19.296875,5.25 L19.34375,5.8125 C19.3124998,8.78126484 18.2578229,11.5156125 16.1796875,14.015625 C14.1015521,16.5156375 11.0781448,17.8437492 7.109375,18 C5.89061891,18 4.72656805,17.8281267 3.6171875,17.484375 C2.50780695,17.1406233 1.48437969,16.671878 0.546875,16.078125 C0.890626719,16.1093752 1.23437328,16.125 1.578125,16.125 C2.57813,16.125 3.53124547,15.9687516 4.4375,15.65625 C5.34375453,15.3437484 6.15624641,14.890628 6.875,14.296875 C5.93749531,14.2656248 5.10937859,13.9765652 4.390625,13.4296875 C3.67187141,12.8828098 3.17187641,12.1718794 2.890625,11.296875 C3.14062625,11.3593753 3.40624859,11.390625 3.6875,11.390625 C4.09375203,11.390625 4.46874828,11.3437505 4.8125,11.25 C3.812495,11.0312489 2.9921907,10.5390663 2.3515625,9.7734375 C1.7109343,9.00780867 1.390625,8.09375531 1.390625,7.03125 L1.390625,6.984375 C1.95312781,7.29687656 2.59374641,7.46874984 3.3125,7.5 C2.74999719,7.12499812 2.29687672,6.62500312 1.953125,6 C1.60937328,5.37499688 1.4375,4.67969133 1.4375,3.9140625 C1.4375,3.14843367 1.62499812,2.43750328 2,1.78125 C3.06250531,3.09375656 4.35155492,4.14062109 5.8671875,4.921875 C7.38282008,5.70312891 9.04686594,6.15624938 10.859375,6.28125 C10.7656245,5.96874844 10.71875,5.64062672 10.71875,5.296875 C10.7500002,4.07811891 11.1718709,3.06250406 11.984375,2.25 C12.7968791,1.43749594 13.7968691,1.01562516 14.984375,0.984375 C16.2968816,1.01562516 17.3593709,1.46874563 18.171875,2.34375 C19.1406298,2.15624906 20.0468708,1.8125025 20.890625,1.3125 C20.5468733,2.34375516 19.9218795,3.14062219 19.015625,3.703125 C19.8593792,3.57812438 20.6718711,3.34375172 21.453125,3 Z"></path>
        </g>
      </g>
    </g>
    <g id="pinterest" transform="translate(0.000000, 68.000000)">
      <g id="product_dteail-icon-pinterest" stroke="none" stroke-width="1" fill="none" fill-rule="evenodd">
        <g transform="translate(2.000000, 2.000000)" fill="#222222" fill-rule="nonzero" id="ï‡">
          <path d="M7.046875,19.5625 C7.26562609,19.2187483 7.49999875,18.7968775 7.75,18.296875 C8.00000125,17.7968725 8.18749937,17.3281272 8.3125,16.890625 L9.015625,14.5 C9.20312594,14.8125016 9.49999797,15.0781239 9.90625,15.296875 C10.312502,15.5156261 10.7656225,15.625 11.265625,15.625 C12.7968827,15.5937498 14.0390577,14.9921934 14.9921875,13.8203125 C15.9453173,12.6484316 16.421875,11.1875087 16.421875,9.4375 C16.3906248,7.74999156 15.8046932,6.37500531 14.6640625,5.3125 C13.5234318,4.24999469 12.0781337,3.70312516 10.328125,3.671875 C8.17186422,3.73437531 6.53906805,4.35155664 5.4296875,5.5234375 C4.32030695,6.69531836 3.765625,8.09374187 3.765625,9.71875 C3.765625,10.4687537 3.93749828,11.2187462 4.28125,11.96875 C4.62500172,12.7187538 5.12499672,13.2499984 5.78125,13.5625 C5.96875094,13.6562505 6.0625,13.6250008 6.0625,13.46875 L6.34375,12.34375 C6.37500016,12.2187494 6.35937531,12.1250003 6.296875,12.0625 C6.04687375,11.7812486 5.85937563,11.437502 5.734375,11.03125 C5.60937437,10.624998 5.546875,10.2031272 5.546875,9.765625 C5.546875,8.60936922 5.93749609,7.60937922 6.71875,6.765625 C7.50000391,5.92187078 8.60936781,5.48437516 10.046875,5.453125 C11.2968813,5.48437516 12.2968713,5.85937141 13.046875,6.578125 C13.7968787,7.29687859 14.1874998,8.26561891 14.21875,9.484375 C14.1874998,10.8593819 13.8828154,11.9609334 13.3046875,12.7890625 C12.7265596,13.6171916 11.9843795,14.0468748 11.078125,14.078125 C10.5468723,14.078125 10.1406264,13.8984393 9.859375,13.5390625 C9.57812359,13.1796857 9.46874969,12.7500025 9.53125,12.25 C9.68750078,11.656247 9.86718648,11.0703154 10.0703125,10.4921875 C10.2734385,9.91405961 10.3828124,9.41406461 10.3984375,8.9921875 C10.4140626,8.57031039 10.3125011,8.22656383 10.09375,7.9609375 C9.87499891,7.69531117 9.56250203,7.54687516 9.15625,7.515625 C8.62499734,7.54687516 8.18750172,7.78124781 7.84375,8.21875 C7.49999828,8.65625219 7.31250016,9.23437141 7.28125,9.953125 C7.31250016,10.4218773 7.36718711,10.7890612 7.4453125,11.0546875 C7.52343789,11.3203138 7.57812484,11.453125 7.609375,11.453125 L6.4375,16.375 C6.34374953,16.8437523 6.30468742,17.3515598 6.3203125,17.8984375 C6.33593758,18.4453152 6.37499969,18.921873 6.4375,19.328125 C4.53124047,18.5781212 2.99219336,17.3750083 1.8203125,15.71875 C0.648431641,14.0624917 0.0468751563,12.1562608 0.015625,10 C0.0781253125,7.15623578 1.04686563,4.79688437 2.921875,2.921875 C4.79688437,1.04686562 7.15623578,0.0781253125 10,0.015625 C12.8437642,0.0781253125 15.2031156,1.04686562 17.078125,2.921875 C18.9531344,4.79688437 19.9218747,7.15623578 19.984375,10 C19.9218747,12.8437642 18.9531344,15.2031156 17.078125,17.078125 C15.2031156,18.9531344 12.8437642,19.9218747 10,19.984375 C8.96874484,19.984375 7.98437969,19.8437514 7.046875,19.5625 Z"></path>
        </g>
      </g>
    </g>
    <g id="instagram" transform="translate(0.000000, 102.000000)">
      <g id="product_dteail-icon-instagram" stroke="none" stroke-width="1" fill="none" fill-rule="evenodd">
        <g fill="#222222" fill-rule="nonzero" id="ï‡">
          <path d="M7.8,2H16.2C19.4,2 22,4.6 22,7.8V16.2A5.8,5.8 0 0,1 16.2,22H7.8C4.6,22 2,19.4 2,16.2V7.8A5.8,5.8 0 0,1 7.8,2M7.6,4A3.6,3.6 0 0,0 4,7.6V16.4C4,18.39 5.61,20 7.6,20H16.4A3.6,3.6 0 0,0 20,16.4V7.6C20,5.61 18.39,4 16.4,4H7.6M17.25,5.5A1.25,1.25 0 0,1 18.5,6.75A1.25,1.25 0 0,1 17.25,8A1.25,1.25 0 0,1 16,6.75A1.25,1.25 0 0,1 17.25,5.5M12,7A5,5 0 0,1 17,12A5,5 0 0,1 12,17A5,5 0 0,1 7,12A5,5 0 0,1 12,7M12,9A3,3 0 0,0 9,12A3,3 0 0,0 12,15A3,3 0 0,0 15,12A3,3 0 0,0 12,9Z" />
        </g>
      </g>
    </g>
    <g id="account" transform="translate(0.000000, 136.000000)">
      <g stroke="none" stroke-width="1" fill="none" fill-rule="evenodd">
        <g fill="#222222" fill-rule="nonzero" id="ï‡">
          <path d="M12,2 C6.48,2 2,6.48 2,12 C2,17.52 6.48,22 12,22 C17.52,22 22,17.52 22,12 C22,6.48 17.52,2 12,2 Z M7.07,18.28 C7.5,17.38 10.12,16.5 12,16.5 C13.88,16.5 16.51,17.38 16.93,18.28 C15.57,19.36 13.86,20 12,20 C10.14,20 8.43,19.36 7.07,18.28 Z M18.36,16.83 C16.93,15.09 13.46,14.5 12,14.5 C10.54,14.5 7.07,15.09 5.64,16.83 C4.62,15.49 4,13.82 4,12 C4,7.59 7.59,4 12,4 C16.41,4 20,7.59 20,12 C20,13.82 19.38,15.49 18.36,16.83 Z M12,6 C10.06,6 8.5,7.56 8.5,9.5 C8.5,11.44 10.06,13 12,13 C13.94,13 15.5,11.44 15.5,9.5 C15.5,7.56 13.94,6 12,6 Z M12,11 C11.17,11 10.5,10.33 10.5,9.5 C10.5,8.67 11.17,8 12,8 C12.83,8 13.5,8.67 13.5,9.5 C13.5,10.33 12.83,11 12,11 Z" id="ðŸ”¹-Icon-Color" fill="#1A1A1A"></path>
        </g>
      </g>
    </g>
    <g id="chevron-down" transform="translate(0.000000, 170.000000)" stroke="none" stroke-width="1" fill="none" fill-rule="evenodd">
      <path fill="#555550" d="M7.41,15.41L12,10.83L16.59,15.41L18,14L12,8L6,14L7.41,15.41Z" />
    </g>
    <g id="chevron-down" transform="translate(0.000000, 204.000000)" stroke="none" stroke-width="1" fill="none" fill-rule="evenodd">
      <path fill="#555550" d="M7.41,8.58L12,13.17L16.59,8.58L18,10L12,16L6,10L7.41,8.58Z" />
    </g>
    <g id="youtube" transform="translate(0.000000, 238.000000)">
      <g stroke="none" stroke-width="1" fill="none" fill-rule="evenodd">
        <g fill="#222222" fill-rule="nonzero" id="ï‡">
          <path d="M10,15L15.19,12L10,9V15M21.56,7.17C21.69,7.64 21.78,8.27 21.84,9.07C21.91,9.87 21.94,10.56 21.94,11.16L22,12C22,14.19 21.84,15.8 21.56,16.83C21.31,17.73 20.73,18.31 19.83,18.56C19.36,18.69 18.5,18.78 17.18,18.84C15.88,18.91 14.69,18.94 13.59,18.94L12,19C7.81,19 5.2,18.84 4.17,18.56C3.27,18.31 2.69,17.73 2.44,16.83C2.31,16.36 2.22,15.73 2.16,14.93C2.09,14.13 2.06,13.44 2.06,12.84L2,12C2,9.81 2.16,8.2 2.44,7.17C2.69,6.27 3.27,5.69 4.17,5.44C4.64,5.31 5.5,5.22 6.82,5.16C8.12,5.09 9.31,5.06 10.41,5.06L12,5C16.19,5 18.8,5.16 19.83,5.44C20.73,5.69 21.31,6.27 21.56,7.17Z" />
        </g>
      </g>
    </g>
    <g id="cart" transform="translate(4.000000, 272.000000)">
      <g stroke="none" stroke-width="1" fill="none" fill-rule="evenodd">
        <g fill="#1A1A1A" fill-rule="nonzero">
          <path d="M11.34375,12 C11.7187519,12 12.0312487,12.130207 12.28125,12.390625 C12.5312513,12.651043 12.65625,12.9687481 12.65625,13.34375 C12.65625,13.7187519 12.5312513,14.0312487 12.28125,14.28125 C12.0312487,14.5312513 11.7135436,14.65625 11.328125,14.65625 C10.9427064,14.65625 10.6250013,14.5312513 10.375,14.28125 C10.1249987,14.0312487 10,13.7135436 10,13.328125 C10,12.9427064 10.1249987,12.6250013 10.375,12.375 C10.6250013,12.1249987 10.9479147,12 11.34375,12 Z M0.65625,1.34375 L2.84375,1.34375 L3.46875,2.65625 L13.34375,2.65625 C13.5312509,2.67708344 13.6874994,2.74999937 13.8125,2.875 C13.9375006,3.00000063 14,3.15624906 14,3.34375 C14,3.44791719 13.9687503,3.55208281 13.90625,3.65625 L11.53125,7.96875 C11.4062494,8.17708437 11.2447927,8.34374937 11.046875,8.46875 C10.8489573,8.59375063 10.6250013,8.65625 10.375,8.65625 L5.40625,8.65625 L4.8125,9.75 L4.78125,9.84375 C4.78125,9.94791719 4.83333281,10 4.9375,10 L12.65625,10 L12.65625,11.34375 L4.65625,11.34375 C4.28124813,11.3229166 3.96875125,11.1875013 3.71875,10.9375 C3.46874875,10.6874987 3.34375,10.3750019 3.34375,10 C3.34375,9.77083219 3.39583281,9.56250094 3.5,9.375 L4.40625,7.71875 L2,2.65625 L0.65625,2.65625 L0.65625,1.34375 Z M4.65625,12 C5.03125187,12 5.34895703,12.130207 5.609375,12.390625 C5.86979297,12.651043 6,12.9687481 6,13.34375 C6,13.7187519 5.86979297,14.0312487 5.609375,14.28125 C5.34895703,14.5312513 5.03125187,14.65625 4.65625,14.65625 C4.28124813,14.65625 3.96875125,14.5312513 3.71875,14.28125 C3.46874875,14.0312487 3.34375,13.7135436 3.34375,13.328125 C3.34375,12.9427064 3.46874875,12.6250013 3.71875,12.375 C3.96875125,12.1249987 4.28124813,12 4.65625,12 Z M10.65625,7.34375 L12.53125,4 L4.09375,4 L5.65625,7.34375 L10.65625,7.34375 Z" id="ï„‘"></path>
        </g>
      </g>
    </g>
    <g id="hamburger" transform="translate(4.000000, 306.000000)">
      <g id="Exportable" stroke="none" stroke-width="1" fill="none" fill-rule="evenodd">
        <g id="menu" fill="#1A1A1A" fill-rule="nonzero">
          <path d="M2,4 L14,4 L14,5.34375 L2,5.34375 L2,4 Z M2,7.34375 L14,7.34375 L14,8.65625 L2,8.65625 L2,7.34375 Z M2,10.65625 L14,10.65625 L14,12 L2,12 L2,10.65625 Z" id="ïœ"></path>
        </g>
      </g>
    </g>
    <g id="search-icon" transform="translate(6.000000, 340.000000)">
      <g id="Symbols" stroke="none" stroke-width="1" fill="none" fill-rule="evenodd">
        <g id="Input-Icon" transform="translate(-273.000000, -13.000000)" fill="#1A1A1A">
          <g id="Input---Placeholder---Icon">
            <g id="Icons/Customs/Arrows/Select/Double-arrow" transform="translate(272.000000, 12.000000)">
              <path d="M14.942809,14 L14,14.942809 L11.7238576,12.6666667 L12.6666667,11.7238576 L14.942809,14 Z M11.5760003,11.5759603 C9.23285379,13.9191068 5.43386621,13.9191068 3.09073304,11.5759603 C0.747586541,9.23281379 0.747586541,5.43382621 3.09073304,3.09069304 C5.27453971,0.906886372 8.72291809,0.758382049 11.0787031,2.64518116 L11.1045958,2.61928852 L11.5760003,3.09069304 L12.0474048,3.56210024 L12.0215123,3.58799261 C13.9083113,5.94378734 13.7598073,9.39216568 11.5760003,11.5759603 Z M4.03354074,4.03350342 C2.21109509,5.85593871 2.21109509,8.81070426 4.03354342,10.6331526 C5.85597871,12.4555982 8.81074426,12.4555982 10.6331926,10.6331499 C12.4556382,8.81071463 12.4556382,5.85594908 10.6331913,4.03350208 C8.81075463,2.21105509 5.85598908,2.21105509 4.03354074,4.03350342 Z" id="Icon-color"></path>
            </g>
          </g>
        </g>
      </g>
    </g>
    <g id="blog-icon" transform="translate(0.000000, 374.000000)">
      <g stroke="none" stroke-width="1" fill="none" fill-rule="evenodd">
        <g fill="#1A1A1A" fill-rule="nonzero">
          <path d="M14,13H9.95A1,1 0 0,0 8.95,14A1,1 0 0,0 9.95,15H14A1,1 0 0,0 15,14A1,1 0 0,0 14,13M9.95,10H12.55A1,1 0 0,0 13.55,9A1,1 0 0,0 12.55,8H9.95A1,1 0 0,0 8.95,9A1,1 0 0,0 9.95,10M16,9V10A1,1 0 0,0 17,11A1,1 0 0,1 18,12V15A3,3 0 0,1 15,18H9A3,3 0 0,1 6,15V8A3,3 0 0,1 9,5H13A3,3 0 0,1 16,8M20,2H4C2.89,2 2,2.89 2,4V20A2,2 0 0,0 4,22H20A2,2 0 0,0 22,20V4C22,2.89 21.1,2 20,2Z" />
        </g>
      </g>
    </g>
    <g id="cart-02" transform="translate(5.000000, 408.000000)" stroke="none" stroke-width="1" fill="none" fill-rule="evenodd">
      <g id="cart-02">
        <g id="Bag">
          <rect id="Rectangle" x="0" y="0" width="16" height="16"></rect>
            <g id="24px-bag-09" transform="translate(1.333333, 0.666667)" stroke="#1A1A1A" stroke-linecap="square">
            <polygon id="Path" points="13.3333333 14.6666667 0 14.6666667 1.33333333 4 12 4"></polygon>
            <path d="M4,6 L4,2.66666667 C4,1.2 5.2,0 6.66666667,0 L6.66666667,0 C8.13333333,0 9.33333333,1.2 9.33333333,2.66666667 L9.33333333,6" id="Path"></path>
          </g>
        </g>
      </g>
    </g>
    <g id="blog-icon" transform="translate(0.000000, 442.000000)">
      <g stroke="none" stroke-width="1" fill="none" fill-rule="evenodd">
        <g fill="#FFFFFF" fill-rule="nonzero">
          <path d="M19 6.41L17.59 5 12 10.59 6.41 5 5 6.41 10.59 12 5 17.59 6.41 19 12 13.41 17.59 19 19 17.59 13.41 12z"/>
        </g>
      </g>
    </g>
    <g id="more-icon" transform="translate(0.000000, 476.000000)">
      <path fill="#000000" d="M16,12A2,2 0 0,1 18,10A2,2 0 0,1 20,12A2,2 0 0,1 18,14A2,2 0 0,1 16,12M10,12A2,2 0 0,1 12,10A2,2 0 0,1 14,12A2,2 0 0,1 12,14A2,2 0 0,1 10,12M4,12A2,2 0 0,1 6,10A2,2 0 0,1 8,12A2,2 0 0,1 6,14A2,2 0 0,1 4,12Z" />
    </g>
    <g id="pencil-icon" transform="translate(0.000000, 500.000000)">
      <path fill="#000000" d="M20.71,7.04C21.1,6.65 21.1,6 20.71,5.63L18.37,3.29C18,2.9 17.35,2.9 16.96,3.29L15.12,5.12L18.87,8.87M3,17.25V21H6.75L17.81,9.93L14.06,6.18L3,17.25Z" />
    </g>
  </g>
</svg>
